<svg width="759" height="1018" viewBox="0 0 759 1018" fill="none" xmlns="http://www.w3.org/2000/svg">
<mask id="mask0_723_335" style="mask-type:alpha" maskUnits="userSpaceOnUse" x="0" y="0" width="759" height="1018">
<rect width="759" height="1018" transform="matrix(-1 0 0 1 759 0)" fill="black"/>
</mask>
<g mask="url(#mask0_723_335)">
<g filter="url(#filter0_f_723_335)">
<circle cx="350" cy="350" r="350" transform="matrix(-1 0 0 1 848 144)" fill="#B2B2B2" fill-opacity="0.2"/>
</g>
<line y1="-1" x2="657" y2="-1" transform="matrix(-1 8.74228e-08 8.74228e-08 1 759 345)" stroke="black" stroke-width="2"/>
<line y1="-1" x2="680" y2="-1" transform="matrix(-1 8.74228e-08 8.74228e-08 1 759 452)" stroke="black" stroke-width="2"/>
<line y1="-1" x2="830" y2="-1" transform="matrix(0 -1 -1 0 518 933)" stroke="black" stroke-width="2"/>
<line y1="-1" x2="830" y2="-1" transform="matrix(0 -1 -1 0 638 944)" stroke="black" stroke-width="2"/>
<line y1="-1" x2="830" y2="-1" transform="matrix(0 -1 -1 0 396 944)" stroke="black" stroke-width="2"/>
<line y1="-1" x2="830" y2="-1" transform="matrix(0 -1 -1 0 261 968)" stroke="black" stroke-width="2"/>
<line y1="-1" x2="680" y2="-1" transform="matrix(-1 -8.74228e-08 -8.74228e-08 1 759 787)" stroke="black" stroke-width="2"/>
<line y1="-1" x2="671" y2="-1" transform="matrix(-1 -8.74228e-08 -8.74228e-08 1 759 671)" stroke="black" stroke-width="2"/>
<line y1="-1" x2="680" y2="-1" transform="matrix(-1 8.74228e-08 8.74228e-08 1 759 239)" stroke="black" stroke-width="2"/>
<line y1="-1" x2="680" y2="-1" transform="matrix(-1 8.74228e-08 8.74228e-08 1 759 560)" stroke="black" stroke-width="2"/>
</g>
<defs>
<filter id="filter0_f_723_335" x="-152" y="-156" width="1300" height="1300" filterUnits="userSpaceOnUse" color-interpolation-filters="sRGB">
<feFlood flood-opacity="0" result="BackgroundImageFix"/>
<feBlend mode="normal" in="SourceGraphic" in2="BackgroundImageFix" result="shape"/>
<feGaussianBlur stdDeviation="150" result="effect1_foregroundBlur_723_335"/>
</filter>
</defs>
</svg>
