<svg width="496" height="500" viewBox="0 0 496 500" fill="none" xmlns="http://www.w3.org/2000/svg">
<path d="M71.7422 327.745H117.365V348.552H71.7422V327.745Z" fill="#7FA632"/>
<path d="M71.7422 357.78H117.365V378.588H71.7422V357.78Z" fill="#7FA632"/>
<path d="M71.7422 387.815H117.365V445.29H71.7422V387.815Z" fill="#7FA632"/>
<path d="M403.365 98.0475C405.998 98.0475 408.572 98.836 410.761 100.313C412.95 101.791 414.656 103.891 415.664 106.347C416.672 108.804 416.935 111.507 416.422 114.115C415.908 116.724 414.64 119.119 412.778 121C410.917 122.88 408.545 124.16 405.962 124.679C403.38 125.198 400.703 124.932 398.271 123.914C395.838 122.896 393.759 121.173 392.296 118.962C390.833 116.751 390.053 114.152 390.053 111.492C390.054 107.927 391.457 104.508 393.953 101.987C396.45 99.4658 399.835 98.0488 403.365 98.0475Z" fill="#7FA632"/>
<path d="M403.365 161.12C405.999 161.119 408.574 161.907 410.765 163.384C412.955 164.861 414.663 166.961 415.672 169.418C416.681 171.876 416.945 174.58 416.432 177.189C415.92 179.798 414.652 182.195 412.79 184.077C410.928 185.959 408.556 187.241 405.973 187.761C403.39 188.281 400.712 188.015 398.278 186.998C395.845 185.981 393.764 184.258 392.3 182.047C390.836 179.835 390.054 177.235 390.053 174.575C390.052 171.008 391.454 167.587 393.951 165.064C396.447 162.541 399.833 161.122 403.365 161.12Z" fill="#7FA632"/>
<path d="M31.0703 126.618C31.0703 129.975 31.7251 133.3 32.9973 136.402C34.2695 139.504 36.1342 142.322 38.485 144.697C40.8357 147.071 43.6264 148.954 46.6978 150.239C49.7692 151.524 53.0611 152.185 56.3856 152.185C59.71 152.185 63.0019 151.524 66.0733 150.239C69.1447 148.954 71.9354 147.071 74.2861 144.697C76.6369 142.322 78.5016 139.504 79.7738 136.402C81.046 133.3 81.7008 129.975 81.7008 126.618C81.7008 123.26 81.046 119.935 79.7738 116.833C78.5016 113.731 76.6369 110.913 74.2861 108.539C71.9354 106.164 69.1447 104.281 66.0733 102.996C63.0019 101.711 59.71 101.05 56.3856 101.05C53.0611 101.05 49.7692 101.711 46.6978 102.996C43.6264 104.281 40.8357 106.164 38.485 108.539C36.1342 110.913 34.2695 113.731 32.9973 116.833C31.7251 119.935 31.0703 123.26 31.0703 126.618Z" fill="#7FA632"/>
<path d="M284.389 73.87C284.389 75.0913 284.869 76.2626 285.724 77.1262C286.579 77.9898 287.739 78.475 288.948 78.475C290.158 78.475 291.317 77.9898 292.172 77.1262C293.027 76.2626 293.508 75.0913 293.508 73.87C293.508 72.6487 293.027 71.4774 292.172 70.6138C291.317 69.7502 290.158 69.265 288.948 69.265C287.739 69.265 286.579 69.7502 285.724 70.6138C284.869 71.4774 284.389 72.6487 284.389 73.87Z" fill="#7FA632"/>
<path d="M109.479 98.0475C109.479 98.6522 109.596 99.2511 109.826 99.8098C110.055 100.368 110.391 100.876 110.814 101.304C111.237 101.731 111.74 102.071 112.293 102.302C112.846 102.533 113.439 102.653 114.038 102.653C114.637 102.653 115.23 102.533 115.783 102.302C116.336 102.071 116.839 101.731 117.262 101.304C117.686 100.876 118.021 100.368 118.251 99.8098C118.48 99.2511 118.598 98.6522 118.598 98.0475C118.598 97.4428 118.48 96.844 118.251 96.2852C118.021 95.7265 117.686 95.2189 117.262 94.7913C116.839 94.3637 116.336 94.0245 115.783 93.793C115.23 93.5616 114.637 93.4425 114.038 93.4425C113.439 93.4425 112.846 93.5616 112.293 93.793C111.74 94.0245 111.237 94.3637 110.814 94.7913C110.391 95.2189 110.055 95.7265 109.826 96.2852C109.596 96.844 109.479 97.4428 109.479 98.0475Z" fill="#7FA632"/>
<path d="M78.7157 274.94C80.5032 274.94 82.2505 275.476 83.7365 276.48C85.2225 277.483 86.3804 278.909 87.0639 280.577C87.7474 282.246 87.9258 284.081 87.5764 285.852C87.227 287.622 86.3655 289.248 85.101 290.524C83.8365 291.8 82.2258 292.669 80.4724 293.02C78.7191 293.372 76.9019 293.19 75.2507 292.498C73.5996 291.807 72.1886 290.636 71.1963 289.135C70.2039 287.633 69.6748 285.868 69.6758 284.062C69.6755 282.864 69.9091 281.677 70.3634 280.569C70.8177 279.462 71.4836 278.456 72.3232 277.608C73.1628 276.761 74.1596 276.089 75.2565 275.632C76.3533 275.174 77.5288 274.939 78.7157 274.94Z" fill="white"/>
<path d="M376.991 53.7775C376.991 56.1989 377.944 58.5211 379.639 60.2333C381.334 61.9456 383.634 62.9075 386.031 62.9075C388.429 62.9075 390.728 61.9456 392.423 60.2333C394.119 58.5211 395.071 56.1989 395.071 53.7775C395.071 51.356 394.119 49.0338 392.423 47.3216C390.728 45.6094 388.429 44.6475 386.031 44.6475C383.634 44.6475 381.334 45.6094 379.639 47.3216C377.944 49.0338 376.991 51.356 376.991 53.7775Z" fill="white"/>
<path d="M213.53 14.61C215.317 14.6085 217.066 15.1425 218.553 16.1443C220.04 17.1462 221.2 18.571 221.886 20.2386C222.571 21.9062 222.752 23.7416 222.405 25.5129C222.058 27.2842 221.198 28.9117 219.935 30.1897C218.672 31.4677 217.063 32.3388 215.309 32.6928C213.556 33.0468 211.739 32.8679 210.086 32.1786C208.434 31.4893 207.021 30.3207 206.026 28.8204C205.031 27.3201 204.499 25.5556 204.497 23.75C204.495 22.5505 204.727 21.3624 205.18 20.2536C205.633 19.1448 206.298 18.137 207.137 17.2881C207.975 16.4391 208.972 15.7656 210.069 15.3061C211.166 14.8465 212.342 14.61 213.53 14.61Z" fill="white"/>
<path d="M30.0107 53.7775C30.0107 56.1989 30.9632 58.5211 32.6585 60.2333C34.3538 61.9456 36.6531 62.9075 39.0507 62.9075C41.4482 62.9075 43.7475 61.9456 45.4429 60.2333C47.1382 58.5211 48.0906 56.1989 48.0906 53.7775C48.0906 51.356 47.1382 49.0338 45.4429 47.3216C43.7475 45.6094 41.4482 44.6475 39.0507 44.6475C36.6531 44.6475 34.3538 45.6094 32.6585 47.3216C30.9632 49.0338 30.0107 51.356 30.0107 53.7775Z" fill="white"/>
<path d="M358.966 294.34L347.758 296.02C345.29 296.024 342.911 295.09 341.094 293.403C339.278 291.717 338.156 289.401 337.953 286.917V286.802C337.53 284.387 337.985 281.898 339.233 279.794C340.481 277.689 342.439 276.111 344.748 275.347L355.887 273.677C355.208 273.89 349.188 275.927 350.641 285.677C350.826 287.87 351.756 289.93 353.273 291.509C354.79 293.088 356.802 294.088 358.966 294.34Z" fill="white"/>
<path d="M436.689 88.29V226.29C436.687 227.14 436.353 227.954 435.758 228.555C435.163 229.156 434.357 229.494 433.515 229.495H373.224C372.383 229.494 371.576 229.155 370.982 228.555C370.388 227.954 370.053 227.139 370.053 226.29V88.29C370.054 87.4408 370.388 86.6267 370.983 86.026C371.577 85.4253 372.383 85.0869 373.224 85.085H433.515C434.356 85.0869 435.162 85.4252 435.757 86.0259C436.352 86.6265 436.687 87.4406 436.689 88.29ZM416.686 111.5C416.687 108.84 415.906 106.239 414.444 104.026C412.981 101.814 410.902 100.089 408.469 99.0705C406.035 98.0516 403.358 97.7844 400.774 98.3026C398.191 98.8208 395.817 100.101 393.954 101.982C392.091 103.862 390.822 106.259 390.308 108.868C389.793 111.477 390.056 114.181 391.064 116.639C392.071 119.097 393.777 121.198 395.967 122.677C398.157 124.155 400.732 124.944 403.366 124.945C406.897 124.946 410.285 123.53 412.782 121.008C415.28 118.487 416.684 115.067 416.686 111.5ZM416.686 174.582C416.687 171.922 415.906 169.321 414.444 167.109C412.981 164.896 410.902 163.172 408.469 162.153C406.035 161.134 403.358 160.867 400.774 161.385C398.191 161.903 395.817 163.184 393.954 165.064C392.091 166.945 390.822 169.341 390.308 171.95C389.793 174.559 390.056 177.264 391.064 179.722C392.071 182.18 393.777 184.281 395.967 185.759C398.157 187.238 400.732 188.027 403.366 188.027C406.898 188.027 410.286 186.61 412.784 184.087C415.282 181.564 416.686 178.143 416.686 174.575V174.582Z" fill="white"/>
<path d="M129.356 318.585V456.572C129.355 457.422 129.021 458.236 128.426 458.837C127.832 459.438 127.026 459.776 126.185 459.777H65.8931C65.0519 459.776 64.2455 459.438 63.6506 458.837C63.0558 458.237 62.721 457.422 62.7197 456.572V318.585C62.7197 317.735 63.0541 316.92 63.6492 316.319C64.2443 315.718 65.0515 315.38 65.8931 315.38H126.185C126.601 315.38 127.014 315.463 127.399 315.624C127.784 315.785 128.133 316.021 128.428 316.319C128.722 316.617 128.956 316.97 129.115 317.359C129.274 317.748 129.356 318.164 129.356 318.585ZM117.363 445.29V387.815H71.7423V445.29H117.363ZM117.363 378.59V357.78H71.7423V378.59H117.363ZM117.363 348.553V327.75H71.7423V348.558L117.363 348.553Z" fill="white"/>
<path d="M264.188 58.25V196.25C264.188 197.101 263.855 197.918 263.26 198.521C262.665 199.123 261.857 199.463 261.014 199.465H200.723C199.88 199.462 199.073 199.122 198.479 198.52C197.885 197.917 197.551 197.101 197.552 196.25V58.25C197.552 57.4007 197.887 56.5862 198.481 55.9854C199.076 55.3845 199.882 55.0464 200.723 55.045H261.014C261.856 55.0457 262.663 55.3836 263.258 55.9845C263.853 56.5854 264.187 57.4002 264.188 58.25Z" fill="white"/>
<path d="M89.7084 88.29V226.29C89.7084 226.712 89.626 227.13 89.4659 227.52C89.3059 227.909 89.0714 228.263 88.7757 228.562C88.48 228.86 88.1291 229.096 87.7429 229.257C87.3567 229.418 86.9429 229.501 86.5251 229.5H26.2383C25.8217 229.5 25.4091 229.417 25.0243 229.256C24.6394 229.095 24.2897 228.859 23.9953 228.561C23.7008 228.263 23.4673 227.91 23.3081 227.521C23.1488 227.132 23.0671 226.716 23.0674 226.295V88.295C23.0664 87.8738 23.1477 87.4565 23.3066 87.0671C23.4655 86.6777 23.699 86.3238 23.9935 86.0256C24.288 85.7274 24.6379 85.4909 25.0231 85.3295C25.4083 85.168 25.8213 85.085 26.2383 85.085H86.5251C87.3678 85.0843 88.1764 85.4214 88.7732 86.0223C89.3701 86.6233 89.7064 87.4388 89.7084 88.29ZM81.7006 126.617C81.7011 121.561 80.2168 116.617 77.4355 112.412C74.6541 108.207 70.7006 104.93 66.0748 102.994C61.4491 101.059 56.359 100.552 51.4482 101.538C46.5373 102.525 42.0263 104.96 38.4857 108.535C34.945 112.111 32.5337 116.666 31.5568 121.626C30.5798 126.586 31.0809 131.727 32.9969 136.399C34.9129 141.071 38.1576 145.064 42.3207 147.873C46.4839 150.683 51.3784 152.182 56.3854 152.182C63.099 152.182 69.5376 149.489 74.2851 144.695C79.0326 139.9 81.7 133.398 81.7006 126.617Z" fill="white"/>
<path d="M348.425 91.2925C349.329 91.291 350.212 91.5603 350.964 92.0663C351.716 92.5723 352.302 93.2922 352.648 94.1349C352.995 94.9775 353.086 95.9051 352.91 96.8C352.734 97.695 352.299 98.5171 351.66 99.1622C351.021 99.8074 350.207 100.247 349.321 100.424C348.435 100.602 347.517 100.51 346.682 100.16C345.848 99.8103 345.135 99.2182 344.634 98.459C344.133 97.6997 343.867 96.8074 343.868 95.895C343.869 94.6745 344.349 93.5043 345.204 92.6413C346.058 91.7783 347.217 91.2931 348.425 91.2925Z" fill="#7FA632"/>
<path d="M343.866 135.95C343.866 137.171 344.347 138.343 345.202 139.206C346.057 140.07 347.216 140.555 348.426 140.555C349.635 140.555 350.795 140.07 351.65 139.206C352.505 138.343 352.985 137.171 352.985 135.95C352.985 134.729 352.505 133.557 351.65 132.694C350.795 131.83 349.635 131.345 348.426 131.345C347.216 131.345 346.057 131.83 345.202 132.694C344.347 133.557 343.866 134.729 343.866 135.95Z" fill="#7FA632"/>
<path d="M343.866 155.978C343.866 157.199 344.347 158.37 345.202 159.234C346.057 160.097 347.216 160.583 348.426 160.583C349.635 160.583 350.795 160.097 351.65 159.234C352.505 158.37 352.985 157.199 352.985 155.978C352.985 154.756 352.505 153.585 351.65 152.721C350.795 151.858 349.635 151.373 348.426 151.373C347.216 151.373 346.057 151.858 345.202 152.721C344.347 153.585 343.866 154.756 343.866 155.978Z" fill="#7FA632"/>
<path d="M348.425 171.39C349.328 171.389 350.211 171.658 350.963 172.163C351.714 172.669 352.301 173.388 352.647 174.23C352.994 175.072 353.086 175.999 352.911 176.894C352.735 177.789 352.302 178.611 351.664 179.256C351.026 179.902 350.213 180.342 349.327 180.521C348.442 180.699 347.524 180.609 346.689 180.261C345.855 179.912 345.141 179.322 344.639 178.564C344.137 177.806 343.869 176.915 343.868 176.003C343.867 175.397 343.984 174.798 344.213 174.239C344.441 173.679 344.777 173.171 345.2 172.742C345.623 172.314 346.126 171.974 346.679 171.742C347.233 171.51 347.826 171.39 348.425 171.39Z" fill="#7FA632"/>
<path d="M153.688 365.945C154.591 365.944 155.474 366.213 156.225 366.719C156.976 367.225 157.562 367.944 157.909 368.786C158.255 369.628 158.346 370.555 158.171 371.449C157.996 372.344 157.562 373.166 156.925 373.811C156.287 374.457 155.474 374.897 154.589 375.075C153.704 375.254 152.786 375.164 151.951 374.816C151.117 374.468 150.403 373.878 149.901 373.12C149.399 372.363 149.13 371.472 149.129 370.56C149.128 369.338 149.608 368.165 150.463 367.299C151.318 366.434 152.478 365.947 153.688 365.945Z" fill="#7FA632"/>
<path d="M153.688 406C154.59 406 155.472 406.27 156.222 406.776C156.972 407.282 157.556 408.002 157.901 408.843C158.246 409.685 158.336 410.611 158.16 411.504C157.984 412.398 157.55 413.218 156.912 413.862C156.274 414.506 155.461 414.944 154.576 415.122C153.692 415.299 152.775 415.208 151.942 414.859C151.109 414.51 150.397 413.919 149.896 413.162C149.395 412.404 149.128 411.513 149.129 410.603C149.131 409.382 149.612 408.212 150.467 407.349C151.321 406.487 152.48 406.001 153.688 406Z" fill="#7FA632"/>
<path d="M256.782 283.945C260.417 284.328 264.091 284.064 267.636 283.165C275.52 281.05 279.983 272.557 279.983 272.557C282.745 276.452 285.975 279.985 289.597 283.077L254.41 288C255.288 286.758 256.077 285.455 256.772 284.1L256.782 283.945Z" fill="#7FA632"/>
<path d="M242.283 255.965C251.286 243.255 274.307 223.547 289.703 221.965C293.859 221.532 313.714 230.315 329.217 237.322C329.217 237.322 365.357 236.017 370.33 241.685C390.952 265.127 409.022 329.252 412.549 336.375C416.077 343.497 466.905 372.162 483.752 380.965V484.68L384.462 424.01C378.162 424.789 371.792 424.789 365.493 424.01C312.16 413.55 240.689 359.037 226.85 352.56C216.683 347.81 214.265 337.872 212.988 331.202C212.714 329.318 212.292 327.459 211.725 325.642C210.853 323.857 209.694 322.23 208.295 320.827C206.621 318.972 204.616 317.052 202.829 315.267C201.417 313.909 200.111 312.444 198.92 310.885C197.521 308.916 196.727 306.574 196.639 304.152C196.551 301.729 197.172 299.335 198.425 297.267C199.368 295.541 200.553 293.961 201.943 292.577C206.864 287.597 218.676 291.852 219.154 292.017C219.615 288.385 220.978 284.929 223.114 281.97C230.597 270.242 232.288 263.855 234.87 260.397C235.705 259.233 236.843 258.325 238.157 257.772C239.117 257.355 240.553 256.727 242.283 255.965ZM256.781 283.945V284.11C256.087 285.465 255.298 286.768 254.42 288.01C251.024 293.139 246.169 297.109 240.496 299.397C239.781 299.647 239.026 299.87 238.268 300.065C241.307 303.239 243.925 306.798 246.056 310.652C246.61 311.66 247.095 312.705 247.509 313.78C247.509 313.78 274.918 330.89 279.332 333.362C279.332 333.362 307.484 318.277 316.066 314.067C316.066 314.067 306.872 304.552 304.885 302.032L347.775 296.02L358.983 294.34L363.991 293.59C366.696 293.177 369.129 291.698 370.758 289.477C372.386 287.256 373.077 284.474 372.678 281.74C372.28 279.006 370.826 276.542 368.633 274.889C366.441 273.235 363.689 272.526 360.981 272.917L355.963 273.667C355.944 273.665 355.925 273.665 355.906 273.667L344.767 275.337L289.627 283.067C286.004 279.975 282.775 276.441 280.012 272.547C280.012 272.547 275.557 281.047 267.665 283.155C264.111 284.061 260.427 284.329 256.781 283.945Z" fill="white"/>
<path d="M483.752 380.972C466.905 372.17 416.074 343.495 412.549 336.382C409.025 329.27 390.952 265.132 370.33 241.692C365.36 236.025 329.22 237.33 329.22 237.33" stroke="#7FA632" stroke-width="1.544" stroke-linecap="round" stroke-linejoin="round"/>
<path d="M219.149 292.035C218.671 291.87 206.859 287.615 201.938 292.595C200.548 293.979 199.363 295.559 198.42 297.285C197.167 299.352 196.546 301.747 196.634 304.169C196.722 306.591 197.516 308.934 198.916 310.903C200.106 312.462 201.413 313.927 202.824 315.285C204.611 317.07 206.616 318.99 208.29 320.845C209.689 322.247 210.848 323.874 211.72 325.66C212.287 327.477 212.709 329.336 212.983 331.22C214.263 337.888 216.681 347.82 226.845 352.578C240.684 359.055 312.155 413.578 365.488 424.028C371.788 424.807 378.157 424.807 384.457 424.028L483.747 484.698" stroke="#7FA632" stroke-width="1.544" stroke-linecap="round" stroke-linejoin="round"/>
<path d="M238.231 300.055H238.251C241.29 303.229 243.908 306.788 246.039 310.642C246.593 311.65 247.078 312.695 247.492 313.77C247.492 313.77 274.901 330.88 279.315 333.352C279.315 333.352 307.467 318.267 316.049 314.057C316.049 314.057 306.855 304.542 304.867 302.022L304.84 302.002" stroke="#7FA632" stroke-width="1.544" stroke-linecap="round" stroke-linejoin="round"/>
<path d="M208.292 320.835C208.292 320.835 211.198 310.255 213.614 307.485C216.03 304.715 209.839 298.297 205.884 295.432" stroke="#7FA632" stroke-width="1.544" stroke-linecap="round" stroke-linejoin="round"/>
<path d="M217.618 322.75C216.133 325.057 212.42 328.522 212.985 331.205" stroke="#7FA632" stroke-width="1.544" stroke-linecap="round" stroke-linejoin="round"/>
<path d="M289.703 283.165L289.596 283.077C285.974 279.985 282.745 276.452 279.982 272.557C279.982 272.557 275.527 281.057 267.635 283.165C264.09 284.064 260.416 284.328 256.781 283.945C255.218 283.808 253.667 283.547 252.145 283.165" stroke="#7FA632" stroke-width="1.544" stroke-linecap="round" stroke-linejoin="round"/>
<path d="M256.771 284.11C256.077 285.465 255.288 286.768 254.41 288.01C251.013 293.139 246.159 297.109 240.486 299.397C239.77 299.647 239.015 299.87 238.258 300.065C237.837 300.16 237.416 300.247 236.978 300.315C227.211 302.022 218.705 299.785 219.156 292.015C219.617 288.382 220.98 284.926 223.116 281.967C230.599 270.24 232.29 263.85 234.872 260.395C235.707 259.231 236.845 258.322 238.159 257.77C239.149 257.345 240.575 256.717 242.305 255.955C249.922 252.54 263.511 246.237 272.561 241.455C283.656 235.595 287.183 236.87 293.748 239.67C300.312 242.47 333.848 261.577 333.848 261.577" stroke="#7FA632" stroke-width="1.544" stroke-linecap="round" stroke-linejoin="round"/>
<path d="M346.524 245.06C343.361 243.768 336.814 240.755 329.217 237.33C313.716 230.33 293.859 221.54 289.703 221.973C274.307 223.548 251.286 243.255 242.283 255.973" stroke="#7FA632" stroke-width="1.544" stroke-linecap="round" stroke-linejoin="round"/>
<path d="M254.41 288.01L289.597 283.077L344.738 275.347" stroke="#7FA632" stroke-width="1.544" stroke-linecap="round" stroke-linejoin="round"/>
<path d="M347.757 296.02L304.867 302.033L246.937 310.16" stroke="#7FA632" stroke-width="1.544" stroke-linecap="round" stroke-linejoin="round"/>
<path d="M189.745 302.583L178.601 309.408L187.49 311.723L189.485 312.245L202.473 315.633" stroke="#7FA632" stroke-width="1.544" stroke-linecap="round" stroke-linejoin="round"/>
<path d="M198.4 297.275L189.744 302.583" stroke="#7FA632" stroke-width="1.544" stroke-linecap="round" stroke-linejoin="round"/>
<path d="M358.966 294.34L347.758 296.02C345.29 296.024 342.911 295.09 341.094 293.403C339.278 291.717 338.156 289.401 337.953 286.917V286.802C337.53 284.387 337.985 281.898 339.233 279.794C340.481 277.689 342.439 276.111 344.748 275.347L355.887 273.677" stroke="#7FA632" stroke-width="1.544" stroke-linecap="round" stroke-linejoin="round"/>
<path d="M358.965 294.34L363.973 293.59C366.679 293.177 369.112 291.698 370.74 289.477C372.368 287.256 373.059 284.474 372.661 281.74C372.263 279.006 370.808 276.542 368.616 274.889C366.424 273.235 363.672 272.527 360.963 272.918L355.946 273.668C355.927 273.666 355.908 273.666 355.889 273.668C355.21 273.88 349.19 275.918 350.643 285.668C350.826 287.861 351.754 289.924 353.271 291.505C354.788 293.085 356.8 294.087 358.965 294.34Z" stroke="#7FA632" stroke-width="1.544" stroke-linecap="round" stroke-linejoin="round"/>
<path d="M178.6 309.407L172.954 309.957" stroke="#7FA632" stroke-width="1.544" stroke-linecap="round" stroke-linejoin="round"/>
<path d="M86.5722 237H26.1964C22.813 236.999 19.5683 235.642 17.1759 233.225C14.7835 230.809 13.4391 227.532 13.4385 224.115V88.3475C13.4398 84.9306 14.7843 81.654 17.1766 79.2379C19.5689 76.8218 22.8132 75.4638 26.1964 75.4625H86.5722C89.9556 75.4632 93.2003 76.8209 95.5927 79.2372C97.9851 81.6534 99.3295 84.9304 99.3301 88.3475V224.115C99.3295 227.532 97.9851 230.809 95.5927 233.225C93.2003 235.642 89.9556 236.999 86.5722 237Z" stroke="#7FA632" stroke-width="1.544" stroke-linecap="round" stroke-linejoin="round"/>
<path d="M86.5251 229.5H26.2383C25.8217 229.5 25.4091 229.417 25.0243 229.256C24.6394 229.095 24.2897 228.859 23.9953 228.561C23.7008 228.263 23.4673 227.91 23.3081 227.521C23.1488 227.132 23.0671 226.716 23.0674 226.295V88.295C23.0664 87.8738 23.1477 87.4565 23.3066 87.0671C23.4655 86.6777 23.699 86.3238 23.9935 86.0256C24.288 85.7274 24.6379 85.4909 25.0231 85.3295C25.4083 85.168 25.8213 85.085 26.2383 85.085H86.5251C87.3678 85.0843 88.1764 85.4214 88.7732 86.0223C89.3701 86.6233 89.7064 87.4388 89.7084 88.29V226.29C89.7084 226.712 89.626 227.13 89.4659 227.52C89.3059 227.909 89.0714 228.263 88.7757 228.562C88.48 228.86 88.1291 229.096 87.7429 229.257C87.3567 229.418 86.9429 229.501 86.5251 229.5Z" stroke="#7FA632" stroke-width="1.544" stroke-linecap="round" stroke-linejoin="round"/>
<path d="M38.9844 80.1825H70.8147" stroke="#7FA632" stroke-width="1.544" stroke-linecap="round" stroke-linejoin="round"/>
<path d="M76.4433 54.76H54.8955" stroke="#7FA632" stroke-width="1.544" stroke-linecap="round" stroke-linejoin="round"/>
<path d="M30.0107 53.7775C30.0107 56.1989 30.9632 58.5211 32.6585 60.2333C34.3538 61.9456 36.6531 62.9075 39.0507 62.9075C41.4482 62.9075 43.7475 61.9456 45.4429 60.2333C47.1382 58.5211 48.0906 56.1989 48.0906 53.7775C48.0906 51.356 47.1382 49.0338 45.4429 47.3216C43.7475 45.6094 41.4482 44.6475 39.0507 44.6475C36.6531 44.6475 34.3538 45.6094 32.6585 47.3216C30.9632 49.0338 30.0107 51.356 30.0107 53.7775Z" stroke="#7FA632" stroke-width="1.544" stroke-linecap="round" stroke-linejoin="round"/>
<path d="M126.242 467.287H65.8565C64.181 467.288 62.5219 466.955 60.9739 466.307C59.4259 465.66 58.0193 464.711 56.8346 463.514C55.6499 462.318 54.7101 460.897 54.0691 459.334C53.4281 457.77 53.0983 456.095 53.0986 454.402V318.633C53.0983 316.94 53.4281 315.265 54.0692 313.702C54.7102 312.138 55.65 310.718 56.8348 309.522C58.0195 308.325 59.4261 307.376 60.9741 306.729C62.5221 306.082 64.1811 305.749 65.8565 305.75H126.242C129.625 305.751 132.87 307.108 135.262 309.524C137.654 311.939 138.999 315.216 139 318.633V454.402C138.999 457.819 137.654 461.096 135.262 463.512C132.87 465.928 129.625 467.286 126.242 467.287Z" stroke="#7FA632" stroke-width="1.544" stroke-linecap="round" stroke-linejoin="round"/>
<path d="M126.185 459.777H65.8931C65.0519 459.776 64.2455 459.438 63.6506 458.837C63.0558 458.237 62.721 457.422 62.7197 456.572V318.585C62.7197 317.735 63.0541 316.92 63.6492 316.319C64.2443 315.718 65.0515 315.38 65.8931 315.38H126.185C126.601 315.38 127.014 315.463 127.399 315.624C127.784 315.785 128.133 316.021 128.428 316.319C128.722 316.617 128.956 316.97 129.115 317.359C129.274 317.748 129.356 318.164 129.356 318.585V456.572C129.355 457.422 129.021 458.236 128.426 458.837C127.832 459.438 127.026 459.776 126.185 459.777Z" stroke="#7FA632" stroke-width="1.544" stroke-linecap="round" stroke-linejoin="round"/>
<path d="M78.6318 310.467H110.465" stroke="#7FA632" stroke-width="1.544" stroke-linecap="round" stroke-linejoin="round"/>
<path d="M116.103 285.055H94.5527" stroke="#7FA632" stroke-width="1.544" stroke-linecap="round" stroke-linejoin="round"/>
<path d="M87.7379 284.062C87.7384 285.868 87.2088 287.632 86.2161 289.133C85.2234 290.634 83.8122 291.804 82.161 292.495C80.5099 293.186 78.6929 293.367 76.94 293.015C75.1871 292.662 73.577 291.793 72.3134 290.516C71.0498 289.24 70.1894 287.613 69.8412 285.843C69.4929 284.073 69.6724 282.238 70.3569 280.57C71.0414 278.903 72.2002 277.478 73.6867 276.476C75.1732 275.473 76.9206 274.939 78.7079 274.94C81.103 274.941 83.3998 275.902 85.0932 277.613C86.7866 279.323 87.7379 281.643 87.7379 284.062Z" stroke="#7FA632" stroke-width="1.544" stroke-linecap="round" stroke-linejoin="round"/>
<path d="M261.052 206.955H200.676C199.001 206.955 197.342 206.622 195.795 205.975C194.247 205.327 192.841 204.378 191.657 203.181C190.473 201.984 189.535 200.564 188.895 199C188.255 197.437 187.926 195.762 187.928 194.07V58.3199C187.926 56.6283 188.255 54.953 188.895 53.3898C189.535 51.8266 190.474 50.4061 191.658 49.2095C192.842 48.0129 194.248 47.0636 195.795 46.4159C197.342 45.7683 199.001 45.4349 200.676 45.4349H261.052C262.727 45.4336 264.387 45.766 265.935 46.4131C267.484 47.0601 268.891 48.0092 270.076 49.2059C271.261 50.4027 272.2 51.8236 272.841 53.3875C273.482 54.9514 273.811 56.6275 273.809 58.3199V194.07C273.811 195.762 273.482 197.439 272.842 199.003C272.201 200.567 271.261 201.988 270.076 203.185C268.891 204.381 267.484 205.331 265.936 205.977C264.387 206.624 262.727 206.957 261.052 206.955Z" stroke="#7FA632" stroke-width="1.544" stroke-linecap="round" stroke-linejoin="round"/>
<path d="M261.014 199.458H200.723C199.882 199.455 199.076 199.116 198.482 198.515C197.887 197.914 197.553 197.099 197.552 196.25V58.25C197.552 57.4007 197.887 56.5862 198.481 55.9854C199.076 55.3845 199.882 55.0464 200.723 55.045H261.014C261.856 55.0457 262.663 55.3836 263.258 55.9845C263.853 56.5854 264.187 57.4002 264.188 58.25V196.25C264.186 197.1 263.852 197.915 263.257 198.516C262.662 199.117 261.856 199.456 261.014 199.458Z" stroke="#7FA632" stroke-width="1.544" stroke-linecap="round" stroke-linejoin="round"/>
<path d="M213.463 50.1475H245.293" stroke="#7FA632" stroke-width="1.544" stroke-linecap="round" stroke-linejoin="round"/>
<path d="M250.932 24.725H229.382" stroke="#7FA632" stroke-width="1.544" stroke-linecap="round" stroke-linejoin="round"/>
<path d="M222.57 23.75C222.57 25.555 222.039 27.3194 221.046 28.82C220.053 30.3206 218.641 31.4902 216.99 32.1807C215.339 32.8712 213.522 33.0518 211.769 32.6995C210.016 32.3472 208.406 31.478 207.142 30.2016C205.878 28.9253 205.018 27.2991 204.669 25.5288C204.32 23.7585 204.499 21.9234 205.183 20.2557C205.866 18.588 207.024 17.1624 208.51 16.1593C209.996 15.1562 211.743 14.6205 213.53 14.62C214.717 14.6197 215.893 14.8556 216.99 15.3143C218.087 15.773 219.084 16.4455 219.923 17.2934C220.763 18.1412 221.428 19.1479 221.883 20.2557C222.337 21.3636 222.57 22.5509 222.57 23.75Z" stroke="#7FA632" stroke-width="1.544" stroke-linecap="round" stroke-linejoin="round"/>
<path d="M433.553 237H373.177C369.793 236.999 366.549 235.642 364.156 233.225C361.764 230.809 360.42 227.532 360.419 224.115V88.3475C360.42 84.9306 361.765 81.654 364.157 79.2379C366.549 76.8218 369.794 75.4638 373.177 75.4625H433.553C435.228 75.4622 436.887 75.7953 438.435 76.4427C439.983 77.0901 441.39 78.0392 442.575 79.2357C443.759 80.4323 444.699 81.8528 445.34 83.4163C445.981 84.9797 446.311 86.6554 446.311 88.3475V224.115C446.311 225.807 445.982 227.483 445.341 229.047C444.7 230.61 443.76 232.031 442.575 233.228C441.391 234.424 439.984 235.373 438.436 236.021C436.888 236.668 435.228 237.001 433.553 237Z" stroke="#7FA632" stroke-width="1.544" stroke-linecap="round" stroke-linejoin="round"/>
<path d="M433.515 229.5H373.224C372.383 229.499 371.576 229.16 370.982 228.56C370.388 227.959 370.053 227.144 370.053 226.295V88.295C370.054 87.4458 370.388 86.6317 370.983 86.031C371.577 85.4303 372.383 85.0919 373.224 85.09H433.515C434.356 85.0919 435.162 85.4303 435.757 86.0309C436.352 86.6315 436.687 87.4456 436.689 88.295V226.295C436.687 227.145 436.353 227.959 435.758 228.56C435.163 229.161 434.357 229.499 433.515 229.5Z" stroke="#7FA632" stroke-width="1.544" stroke-linecap="round" stroke-linejoin="round"/>
<path d="M385.964 80.1825H417.794" stroke="#7FA632" stroke-width="1.544" stroke-linecap="round" stroke-linejoin="round"/>
<path d="M423.423 54.76H401.873" stroke="#7FA632" stroke-width="1.544" stroke-linecap="round" stroke-linejoin="round"/>
<path d="M376.991 53.7775C376.991 56.1989 377.944 58.5211 379.639 60.2333C381.334 61.9456 383.634 62.9075 386.031 62.9075C388.429 62.9075 390.728 61.9456 392.423 60.2333C394.119 58.5211 395.071 56.1989 395.071 53.7775C395.071 51.356 394.119 49.0338 392.423 47.3216C390.728 45.6094 388.429 44.6475 386.031 44.6475C383.634 44.6475 381.334 45.6094 379.639 47.3216C377.944 49.0338 376.991 51.356 376.991 53.7775Z" stroke="#7FA632" stroke-width="1.544" stroke-linecap="round" stroke-linejoin="round"/>
<path d="M158.255 370.56C158.254 371.471 157.986 372.362 157.484 373.12C156.981 373.877 156.268 374.467 155.434 374.815C154.6 375.164 153.683 375.254 152.798 375.076C151.913 374.898 151.1 374.459 150.462 373.814C149.824 373.169 149.39 372.348 149.214 371.454C149.038 370.56 149.128 369.634 149.473 368.791C149.818 367.949 150.403 367.229 151.153 366.723C151.904 366.216 152.786 365.946 153.688 365.945C154.288 365.945 154.882 366.064 155.437 366.296C155.991 366.527 156.495 366.867 156.919 367.296C157.343 367.725 157.679 368.234 157.909 368.794C158.138 369.354 158.256 369.954 158.255 370.56Z" stroke="#7FA632" stroke-width="1.544" stroke-linecap="round" stroke-linejoin="round"/>
<path d="M158.255 410.603C158.256 411.514 157.99 412.406 157.49 413.165C156.989 413.925 156.277 414.517 155.443 414.867C154.609 415.217 153.691 415.309 152.805 415.133C151.92 414.956 151.106 414.517 150.466 413.873C149.827 413.229 149.392 412.408 149.215 411.514C149.038 410.619 149.127 409.692 149.472 408.849C149.817 408.006 150.402 407.286 151.152 406.779C151.902 406.272 152.785 406.001 153.688 406C154.287 405.999 154.881 406.117 155.435 406.348C155.988 406.579 156.492 406.918 156.916 407.345C157.34 407.773 157.677 408.28 157.907 408.839C158.136 409.398 158.255 409.997 158.255 410.603Z" stroke="#7FA632" stroke-width="1.544" stroke-linecap="round" stroke-linejoin="round"/>
<path d="M158.733 410.603H281.064V387.575" stroke="#7FA632" stroke-width="1.544" stroke-linecap="round" stroke-linejoin="round"/>
<path d="M109.479 98.0475C109.479 98.6522 109.596 99.2511 109.826 99.8098C110.055 100.368 110.391 100.876 110.814 101.304C111.237 101.731 111.74 102.071 112.293 102.302C112.846 102.533 113.439 102.653 114.038 102.653C114.637 102.653 115.23 102.533 115.783 102.302C116.336 102.071 116.839 101.731 117.262 101.304C117.686 100.876 118.021 100.368 118.251 99.8098C118.48 99.2511 118.598 98.6522 118.598 98.0475C118.598 97.4428 118.48 96.844 118.251 96.2852C118.021 95.7265 117.686 95.2189 117.262 94.7913C116.839 94.3637 116.336 94.0245 115.783 93.793C115.23 93.5616 114.637 93.4425 114.038 93.4425C113.439 93.4425 112.846 93.5616 112.293 93.793C111.74 94.0245 111.237 94.3637 110.814 94.7913C110.391 95.2189 110.055 95.7265 109.826 96.2852C109.596 96.844 109.479 97.4428 109.479 98.0475Z" stroke="#7FA632" stroke-width="1.544" stroke-linecap="round" stroke-linejoin="round"/>
<path d="M118.596 98.0475H153.689V244.75H251.754" stroke="#7FA632" stroke-width="1.544" stroke-linecap="round" stroke-linejoin="round"/>
<path d="M165.833 309.958H158.256V260.405H234.85H234.86" stroke="#7FA632" stroke-width="1.544" stroke-linecap="round" stroke-linejoin="round"/>
<path d="M352.982 95.895C352.983 96.8059 352.716 97.6965 352.215 98.4541C351.714 99.2117 351.003 99.8023 350.169 100.151C349.336 100.5 348.419 100.592 347.535 100.414C346.65 100.237 345.838 99.7985 345.2 99.1546C344.562 98.5107 344.127 97.6901 343.951 96.7968C343.775 95.9034 343.865 94.9774 344.21 94.1358C344.555 93.2942 345.14 92.5749 345.889 92.0687C346.639 91.5626 347.521 91.2925 348.423 91.2925C349.631 91.2931 350.79 91.7782 351.645 92.6411C352.5 93.504 352.981 94.6743 352.982 95.895Z" stroke="#7FA632" stroke-width="1.544" stroke-linecap="round" stroke-linejoin="round"/>
<path d="M284.389 73.87C284.389 75.0913 284.869 76.2626 285.724 77.1262C286.579 77.9898 287.739 78.475 288.948 78.475C290.158 78.475 291.317 77.9898 292.172 77.1262C293.027 76.2626 293.508 75.0913 293.508 73.87C293.508 72.6487 293.027 71.4774 292.172 70.6138C291.317 69.7502 290.158 69.265 288.948 69.265C287.739 69.265 286.579 69.7502 285.724 70.6138C284.869 71.4774 284.389 72.6487 284.389 73.87Z" stroke="#7FA632" stroke-width="1.544" stroke-linecap="round" stroke-linejoin="round"/>
<path d="M343.866 135.95C343.866 137.171 344.347 138.343 345.202 139.206C346.057 140.07 347.216 140.555 348.426 140.555C349.635 140.555 350.795 140.07 351.65 139.206C352.505 138.343 352.985 137.171 352.985 135.95C352.985 134.729 352.505 133.557 351.65 132.694C350.795 131.83 349.635 131.345 348.426 131.345C347.216 131.345 346.057 131.83 345.202 132.694C344.347 133.557 343.866 134.729 343.866 135.95Z" stroke="#7FA632" stroke-width="1.544" stroke-linecap="round" stroke-linejoin="round"/>
<path d="M343.866 155.978C343.866 157.199 344.347 158.37 345.202 159.234C346.057 160.097 347.216 160.583 348.426 160.583C349.635 160.583 350.795 160.097 351.65 159.234C352.505 158.37 352.985 157.199 352.985 155.978C352.985 154.756 352.505 153.585 351.65 152.721C350.795 151.858 349.635 151.373 348.426 151.373C347.216 151.373 346.057 151.858 345.202 152.721C344.347 153.585 343.866 154.756 343.866 155.978Z" stroke="#7FA632" stroke-width="1.544" stroke-linecap="round" stroke-linejoin="round"/>
<path d="M352.982 176C352.981 176.91 352.712 177.8 352.21 178.556C351.709 179.313 350.996 179.902 350.163 180.249C349.329 180.596 348.413 180.687 347.529 180.508C346.645 180.33 345.833 179.89 345.196 179.246C344.559 178.602 344.126 177.781 343.95 176.888C343.775 175.995 343.866 175.069 344.211 174.228C344.556 173.387 345.141 172.669 345.89 172.163C346.64 171.657 347.521 171.387 348.423 171.387C349.022 171.387 349.616 171.507 350.169 171.739C350.723 171.971 351.226 172.31 351.65 172.739C352.073 173.167 352.409 173.676 352.637 174.235C352.866 174.795 352.983 175.395 352.982 176Z" stroke="#7FA632" stroke-width="1.544" stroke-linecap="round" stroke-linejoin="round"/>
<path d="M288.948 78.475V135.95H310.449H343.868" stroke="#7FA632" stroke-width="1.544" stroke-linecap="round" stroke-linejoin="round"/>
<path d="M343.868 155.978H328.635V236.325" stroke="#7FA632" stroke-width="1.544" stroke-linecap="round" stroke-linejoin="round"/>
<path d="M343.869 176.002H337.886V236.325" stroke="#7FA632" stroke-width="1.544" stroke-linecap="round" stroke-linejoin="round"/>
<path d="M343.869 95.895H310.449V135.95V228.488" stroke="#7FA632" stroke-width="1.544" stroke-linecap="round" stroke-linejoin="round"/>
<path d="M31.0703 126.618C31.0703 129.975 31.7251 133.3 32.9973 136.402C34.2695 139.504 36.1342 142.322 38.485 144.697C40.8357 147.071 43.6264 148.954 46.6978 150.239C49.7692 151.524 53.0611 152.185 56.3856 152.185C59.71 152.185 63.0019 151.524 66.0733 150.239C69.1447 148.954 71.9354 147.071 74.2861 144.697C76.6369 142.322 78.5016 139.504 79.7738 136.402C81.046 133.3 81.7008 129.975 81.7008 126.618C81.7008 123.26 81.046 119.935 79.7738 116.833C78.5016 113.731 76.6369 110.913 74.2861 108.539C71.9354 106.164 69.1447 104.281 66.0733 102.996C63.0019 101.711 59.71 101.05 56.3856 101.05C53.0611 101.05 49.7692 101.711 46.6978 102.996C43.6264 104.281 40.8357 106.164 38.485 108.539C36.1342 110.913 34.2695 113.731 32.9973 116.833C31.7251 119.935 31.0703 123.26 31.0703 126.618Z" stroke="#7FA632" stroke-width="1.544" stroke-linecap="round" stroke-linejoin="round"/>
<path d="M31.7383 167.2H78.0592" stroke="#7FA632" stroke-width="1.544" stroke-linecap="round" stroke-linejoin="round"/>
<path d="M31.7383 182.22H78.0592" stroke="#7FA632" stroke-width="1.544" stroke-linecap="round" stroke-linejoin="round"/>
<path d="M31.7383 197.237H78.0592" stroke="#7FA632" stroke-width="1.544" stroke-linecap="round" stroke-linejoin="round"/>
<path d="M71.7422 327.745H117.365V348.552H71.7422V327.745Z" stroke="#7FA632" stroke-width="1.544" stroke-linecap="round" stroke-linejoin="round"/>
<path d="M71.7422 357.78H117.365V378.588H71.7422V357.78Z" stroke="#7FA632" stroke-width="1.544" stroke-linecap="round" stroke-linejoin="round"/>
<path d="M71.7422 387.815H117.365V445.29H71.7422V387.815Z" stroke="#7FA632" stroke-width="1.544" stroke-linecap="round" stroke-linejoin="round"/>
<path d="M416.685 111.5C416.686 114.16 415.906 116.761 414.444 118.973C412.981 121.186 410.902 122.911 408.468 123.929C406.035 124.948 403.358 125.215 400.774 124.697C398.19 124.179 395.817 122.899 393.954 121.018C392.091 119.138 390.822 116.741 390.307 114.132C389.793 111.523 390.056 108.819 391.063 106.361C392.071 103.903 393.777 101.802 395.967 100.323C398.157 98.8448 400.732 98.0554 403.366 98.0549C406.897 98.0543 410.284 99.4703 412.782 101.992C415.28 104.513 416.684 107.933 416.685 111.5Z" stroke="#7FA632" stroke-width="1.544" stroke-linecap="round" stroke-linejoin="round"/>
<path d="M384.605 138.555H422.134" stroke="#7FA632" stroke-width="1.544" stroke-linecap="round" stroke-linejoin="round"/>
<path d="M384.605 148.565H422.134" stroke="#7FA632" stroke-width="1.544" stroke-linecap="round" stroke-linejoin="round"/>
<path d="M416.685 174.575C416.684 177.235 415.903 179.835 414.439 182.046C412.975 184.257 410.895 185.98 408.462 186.997C406.028 188.015 403.351 188.28 400.768 187.761C398.185 187.242 395.813 185.961 393.95 184.08C392.088 182.199 390.82 179.802 390.307 177.194C389.793 174.585 390.057 171.881 391.064 169.423C392.072 166.966 393.779 164.866 395.968 163.388C398.158 161.91 400.732 161.12 403.366 161.12C405.115 161.12 406.848 161.467 408.464 162.144C410.08 162.82 411.549 163.811 412.786 165.06C414.023 166.31 415.004 167.793 415.673 169.426C416.342 171.058 416.686 172.808 416.685 174.575Z" stroke="#7FA632" stroke-width="1.544" stroke-linecap="round" stroke-linejoin="round"/>
<path d="M384.605 201.627H422.134" stroke="#7FA632" stroke-width="1.544" stroke-linecap="round" stroke-linejoin="round"/>
<path d="M384.605 211.647H422.134" stroke="#7FA632" stroke-width="1.544" stroke-linecap="round" stroke-linejoin="round"/>
<path d="M158.256 370.56H254.41" stroke="#7FA632" stroke-width="1.544" stroke-linecap="round" stroke-linejoin="round"/>
</svg>
