<svg width="500" height="500" viewBox="0 0 500 500" fill="none" xmlns="http://www.w3.org/2000/svg">
<rect x="362.5" y="167.5" width="11.25" height="6.25" fill="#DBFF94"/>
<rect x="342.5" y="166.25" width="11.25" height="7.5" fill="#DBFF94"/>
<rect x="348.75" y="186.25" width="17.5" height="6.25" fill="#DBFF94"/>
<rect x="172.5" y="127.5" width="12.5" height="6.25" fill="#DBFF94"/>
<rect x="192.5" y="130" width="11.25" height="7.5" fill="#DBFF94"/>
<rect x="177.5" y="147.5" width="15" height="7.5" fill="#DBFF94"/>
<path d="M401.9 185.675C405.4 179.582 404.462 171.135 394.165 175.795L382.5 145L361.352 140.157L348.405 145C348.405 145 341.825 154.437 341.825 158.277C341.825 162.117 342.735 169.852 342.735 169.852C341.276 172.618 340.39 175.649 340.13 178.765C340.347 182.18 345.59 200.582 349.15 202.765C352.71 204.947 360.797 203.692 360.797 203.692L362.297 211.637L347.837 213.87C347.837 213.87 346.63 227.202 355.997 227.737C365.365 228.272 401.91 217.587 401.91 217.587L390.83 212.587L389.362 192.475C389.362 192.475 398.41 191.767 401.9 185.675ZM344.187 170.402C344.052 169.444 344.241 168.468 344.725 167.63C344.725 167.63 345.395 166.88 347.63 167.507C349.29 168.201 350.718 169.351 351.75 170.825C349.917 171.775 347.954 172.449 345.925 172.825C345.177 172.78 344.39 172.08 344.187 170.402ZM352.637 191.5C350.637 191 348.405 186.795 348.405 186.795L355.472 186.38L365.222 186.865C359.692 192.127 354.637 192 352.637 191.5ZM365 173.725C364.32 173.592 363.892 173.035 363.295 171.547C362.697 170.06 364.337 167.99 364.337 167.99C365.098 168.035 365.86 168.035 366.62 167.99C367.89 167.915 373.04 172.32 373.04 172.32C370.437 173.156 367.732 173.629 365 173.725Z" fill="white"/>
<path d="M111.417 161.607C111.417 161.607 99.9993 166 97.7343 169.342C95.4693 172.685 90.4718 173.62 94.1393 181.472C94.1393 181.472 89.6193 186.57 92.6718 191.872C92.6718 191.872 117.739 175.372 123.469 174.547C129.199 173.722 157.577 189.885 169.819 198.315L182.244 203.442C182.244 203.442 190.932 194.582 191.097 184.6C191.205 178.646 190.533 172.704 189.097 166.925C189.097 166.925 186.922 167.355 185.619 167.772C184.673 167.989 183.682 167.893 182.794 167.5L175.447 185C175.447 185 164.697 172.707 155.077 167.187C145.457 161.667 135.457 147.055 111.417 161.607Z" fill="#DBFF94"/>
<path d="M218.647 213.387H217.945C216.708 213.387 215.485 213.643 214.353 214.139C213.22 214.634 212.203 215.359 211.364 216.267C210.525 217.175 209.883 218.247 209.479 219.415C209.075 220.583 208.917 221.823 209.015 223.055L210.1 236.657C210.864 234.785 212.024 233.099 213.499 231.714C214.974 230.33 216.73 229.28 218.647 228.635V213.387Z" fill="#DBFF94"/>
<path d="M89.0819 225.477C89.0819 225.477 102.657 204.042 124.954 200.085C147.252 196.127 150.817 218.277 150.817 218.277L154.777 243L165.157 244.562L164.569 254.112L171.374 250.612L176.334 259.167C176.334 259.167 179.219 252.77 181.372 252.192C185.059 250.901 188.457 248.897 191.372 246.295C194.784 243.247 205.939 236.11 210.089 236.655C211.072 234.481 212.533 232.557 214.362 231.026C216.192 229.495 218.344 228.397 220.657 227.812C226.416 226.171 231.814 223.457 236.567 219.812L246.817 245.727L243.112 248.75C243.112 248.75 245.064 255.907 240.862 256.09C236.659 256.272 241.169 268.322 231.047 269.725C231.047 269.725 229.207 269.445 228.252 271.935C227.297 274.425 215.954 289.592 212.314 291.57C208.674 293.547 184.632 314.782 168.224 317.13C151.817 319.477 114.499 274.272 114.499 274.272C114.499 274.272 91.3569 261.772 88.2844 248.497C86.3889 240.901 86.6652 232.925 89.0819 225.477Z" fill="#DBFF94"/>
<path d="M91.5898 379.48L95.2048 389.12C95.2048 389.12 158.44 394.415 172.152 395.21C185.865 396.005 222.117 384.15 222.117 384.15C223.246 380.457 223.801 376.612 223.762 372.75C223.762 372.75 173.035 377.645 154.602 378.06L91.5898 379.48Z" fill="#DBFF94"/>
<path d="M216.05 288.68C216.05 288.68 219.857 332.987 220.52 336.795C221.182 340.602 226.472 360.045 226.467 362.705C226.462 365.365 226.785 369.717 223.762 372.75L222.117 384.15L228.332 405.48C228.332 405.48 238.812 406.122 242.677 404.862C246.542 403.602 244.817 400.81 244.817 400.81L243.177 386.752C244.778 382.212 245.917 377.521 246.577 372.752C246.528 367.947 244.61 363.349 241.23 359.932C243.177 353.444 243.512 346.579 242.207 339.932C240.247 327.475 234.957 320.72 233.31 307.492C231.671 296.842 229.367 286.305 226.41 275.942L216.05 288.68Z" fill="#DBFF94"/>
<path d="M348.404 145C348.404 145 353.229 143.04 355.324 142.205C357.622 143.79 360.118 145.066 362.749 146C364.529 146.105 374.389 144.63 374.389 144.63C376.539 146.664 377.992 149.326 378.539 152.235C379.684 157.42 385.242 158.042 386.222 158.41C387.202 158.777 386.672 164.315 386.672 164.315L385.832 170.815C386.196 172.931 386.929 174.967 387.997 176.83L389.342 178.48C389.342 178.48 386.444 182.837 385.264 182.787C384.084 182.737 379.182 183.92 378.629 185.32C378.077 186.72 379.042 187.272 381.912 187.212C384.776 186.819 387.408 185.424 389.342 183.275C391.087 180.867 392.695 178.363 394.159 175.775C394.159 175.775 400.227 174.632 400.424 174.525C400.622 174.417 402.764 177.057 402.764 177.057C404.081 175.028 405.014 172.774 405.514 170.407C405.357 168.545 405.292 163.237 405.292 163.237L406.434 156.667C408.546 157.155 410.744 157.125 412.842 156.58C413.675 156.193 414.416 155.634 415.019 154.941C415.622 154.248 416.072 153.436 416.34 152.558C416.608 151.679 416.688 150.754 416.575 149.843C416.462 148.931 416.159 148.054 415.684 147.267C416.427 146.748 417.019 146.042 417.402 145.221C417.785 144.4 417.944 143.492 417.864 142.59C418.073 140.972 417.635 139.337 416.646 138.04C415.656 136.743 414.195 135.889 412.579 135.662C409.369 135.442 411.107 135.517 411.107 135.517C411.153 134.097 410.681 132.709 409.779 131.611C408.878 130.513 407.608 129.779 406.207 129.547C401.132 128.695 394.679 129.637 394.432 137.925C394.432 137.925 394.532 135.49 389.717 137.175C388.013 135.417 385.846 134.178 383.467 133.602C380.684 133.48 373.914 131 370.649 131.157C365.919 131.83 361.285 133.058 356.842 134.815C354.282 135.97 348.404 145 348.404 145Z" fill="#DBFF94"/>
<path d="M389.775 194.305C391.772 195.385 393.832 196.344 395.945 197.175C396.903 197.443 397.884 197.623 398.875 197.712L399.125 195.037C397.654 194.841 396.215 194.46 394.84 193.902C393.102 193.097 391.99 192.475 391.99 192.475H389.362L389.775 194.305Z" fill="#DBFF94"/>
<path d="M205.62 122.2C205.62 122.2 203.03 107.782 200.12 103.547C200.12 103.547 172.72 94.7974 167.523 99.0649C162.325 103.332 158.125 109.165 158.175 115.477C158.225 121.79 157.203 130.935 157.203 130.935C157.203 130.935 150.433 116.07 146.498 121.045C143.469 125.105 141.982 130.11 142.3 135.165C142.955 136.66 143.693 138.116 144.513 139.527C144.513 139.527 150 144.372 153.098 144.315L147.58 161.607C147.58 161.607 166 176 168.025 176.875C170.05 177.75 175.448 185 175.448 185L182.795 167.5C184.535 167.684 186.295 167.493 187.955 166.941C189.615 166.388 191.138 165.486 192.42 164.295C196.153 160.337 198.645 151.635 201.075 148.412C203.641 143.746 204.657 138.384 203.975 133.102C203.075 129.71 205.62 122.2 205.62 122.2ZM173.558 127.75C176.308 126.18 184.95 127.75 184.95 127.75C184.799 129.374 184.436 130.971 183.87 132.5C183.644 132.581 183.409 132.632 183.17 132.652L181.065 131.857C179.865 131.335 173.558 127.75 173.558 127.75ZM184.09 154.35C181.92 153.87 177.068 146.817 177.068 146.817L193.185 149.792C193.185 149.792 186.25 154.832 184.09 154.35ZM201.215 135.165C200.635 136.165 199.255 135.695 199.255 135.695L197.073 134.84L194.535 133.715L193.4 130.055C193.4 130.055 195.63 130.112 197.168 130.142C198.664 130.316 200.136 130.658 201.555 131.162C201.61 132.506 201.496 133.85 201.215 135.165Z" fill="white"/>
<path d="M238.302 223.172L246.509 244.322L253.187 247.515L259.854 248.615H263.484L266.984 250.77L272.497 251.99L276.392 249.625V245.992L279.612 244.122L280.594 240.77L275.982 226.79L273.029 222.267L265.969 221.497L238.302 223.172Z" fill="white"/>
<path d="M317.932 235.455L307.002 247.887L300.819 249.587L294.969 249.505L291.874 248.947L288.559 250.25L283.674 250.445L280.717 247.832L281.272 244.737L278.812 242.65L278.489 239.642L284.559 228.43L287.769 225.03L293.907 225.452L312.934 232.287L317.932 235.455Z" fill="white"/>
<path d="M307.654 247.145C307.654 247.145 347.727 298.777 362.077 303.765C376.427 308.752 394.372 295.322 394.372 295.322L377.014 265.68L369.222 267.85L317.932 235.455L307.654 247.145Z" fill="white"/>
<path d="M309.102 286.81C309.102 286.81 305.534 326.47 304.282 329.1C303.029 331.73 297.242 342.962 296.264 347.952C295.287 352.942 291.639 370.675 296.859 407.3C296.859 407.3 307.927 408.072 310.109 407.842C310.109 407.842 306.217 383.615 309.574 370.185C312.932 356.755 316.894 339.465 325.419 331.015L326.762 319.217L323.762 288.68L309.102 286.81Z" fill="white"/>
<path d="M369.847 269.725L377.015 265.68L373.61 259.868C373.513 259.702 373.479 259.507 373.514 259.319C373.55 259.131 373.652 258.961 373.802 258.843L385.49 249.57L387.252 240.32C387.267 240.213 387.303 240.11 387.359 240.018C387.415 239.925 387.489 239.845 387.577 239.782C387.665 239.719 387.765 239.674 387.87 239.651C387.976 239.628 388.085 239.626 388.191 239.646C388.297 239.667 388.398 239.708 388.488 239.768C388.577 239.829 388.654 239.907 388.712 239.998C388.771 240.088 388.81 240.19 388.828 240.297C388.846 240.403 388.843 240.512 388.817 240.618L387.402 248.058L394.75 242.225C394.832 242.159 394.926 242.111 395.027 242.081C395.128 242.052 395.234 242.043 395.338 242.055C395.442 242.066 395.544 242.098 395.636 242.149C395.728 242.2 395.809 242.268 395.875 242.35C395.94 242.432 395.989 242.526 396.018 242.627C396.048 242.728 396.057 242.834 396.045 242.938C396.033 243.043 396.001 243.144 395.951 243.236C395.9 243.328 395.832 243.409 395.75 243.475L375.345 259.663L396.707 296.138L425.26 274.448C429.422 268.213 435.882 254.25 435.852 242.853C435.822 231.878 410.995 217.63 404.537 214.103C404.069 213.846 403.552 213.694 403.019 213.657C402.487 213.619 401.953 213.698 401.455 213.888C394.675 216.45 367.822 226.258 360.225 223.888C354.025 221.943 349.122 215.808 346.81 212.425C346.358 211.768 345.707 211.275 344.952 211.018C344.198 210.76 343.381 210.753 342.622 210.998C336.437 212.965 321.797 217.673 320.372 218.605C318.572 219.79 313.462 230.537 313.462 230.537L312.935 232.288L312.287 233.105C312.287 233.105 336.537 249.592 344.26 254.042C351.982 258.493 369.847 269.725 369.847 269.725Z" fill="#7FA632"/>
<path d="M396.945 297.947C396.806 298.054 396.637 298.111 396.462 298.11C396.41 298.11 396.358 298.105 396.307 298.095C396.197 298.072 396.092 298.027 396.001 297.961C395.909 297.896 395.832 297.812 395.775 297.715L394.372 295.322C394.363 295.3 394.356 295.278 394.35 295.255C389.47 297.532 372.142 305.145 362.932 302.952C352.895 300.562 313.682 253.685 308.275 247.29L301.005 272.117C300.903 272.464 300.926 272.834 301.071 273.165C301.215 273.495 301.472 273.764 301.795 273.925L306.032 276.037L309.56 263.37C309.623 263.175 309.76 263.012 309.941 262.915C310.122 262.818 310.334 262.795 310.532 262.85C310.729 262.905 310.898 263.034 311.003 263.211C311.108 263.387 311.141 263.597 311.095 263.797L307.182 277.847C307.182 278.64 307.205 279.94 307.297 282.097C307.562 288.12 317.932 295.735 317.932 295.735C317.932 295.735 320.155 296.235 320.145 306.692C320.135 317.15 326.752 319.225 326.752 319.225C326.752 319.225 347.737 320.347 359.252 320.75C370.767 321.152 410.285 318.972 410.285 318.972C413.788 316.153 416.68 312.649 418.785 308.675C421.735 303.032 423.48 282.787 423.895 277.472L396.945 297.947Z" fill="#7FA632"/>
<path d="M173.558 127.11C177.362 126.618 181.224 126.833 184.95 127.745" stroke="#7FA632" stroke-width="1.276" stroke-linecap="round" stroke-linejoin="round"/>
<path d="M181.485 127.45C181.485 127.45 180.27 130.412 181.065 131.865L183.17 132.66C183.77 132.035 184.227 131.285 184.507 130.465C184.786 129.644 184.883 128.772 184.79 127.91L181.485 127.45Z" fill="#7FA632"/>
<path d="M193.399 130.045C196.191 129.918 198.986 130.218 201.687 130.935" stroke="#7FA632" stroke-width="1.276" stroke-linecap="round" stroke-linejoin="round"/>
<path d="M198.167 130.772C198.167 130.772 196.955 133.732 197.747 135.185L199.852 135.98C200.453 135.355 200.91 134.605 201.19 133.785C201.469 132.964 201.566 132.092 201.472 131.23L198.167 130.772Z" fill="#7FA632"/>
<path d="M173.027 119.605C175.074 118.611 177.311 118.072 179.586 118.027C181.86 117.981 184.118 118.429 186.202 119.34C186.735 119.623 187.602 120.015 187.107 121.573C186.612 123.13 186.507 123.238 184.372 122.96C182.178 122.298 179.883 122.028 177.595 122.163C173.557 123.08 170.545 120.75 173.027 119.605Z" fill="#7FA632"/>
<path d="M189.1 121.167L188.175 123.237" stroke="#7FA632" stroke-width="1.276" stroke-linecap="round" stroke-linejoin="round"/>
<path d="M205.619 122.2C204.565 121.539 203.368 121.14 202.128 121.036C200.889 120.932 199.642 121.125 198.492 121.6C197.917 121.777 196.992 122.007 197.194 123.627C197.397 125.247 197.477 125.377 199.627 125.495C201.777 125.612 201.034 124.445 203.247 125.157C203.694 125.251 204.134 125.373 204.564 125.525C205.407 125.902 206.499 122.767 205.619 122.2Z" fill="#7FA632"/>
<path d="M195.31 122.865L195.837 125.07" stroke="#7FA632" stroke-width="1.276" stroke-linecap="round" stroke-linejoin="round"/>
<path d="M193.36 125C192.857 126.402 192.671 127.898 192.816 129.38C192.961 130.863 193.433 132.294 194.197 133.573C194.197 133.573 197.422 139.628 196.64 141.663C195.857 143.698 189.607 144.705 189.607 144.705" stroke="#7FA632" stroke-width="1.276" stroke-linecap="round" stroke-linejoin="round"/>
<path d="M189.734 142C188.643 141.97 187.553 142.105 186.502 142.4" stroke="#7FA632" stroke-width="1.276" stroke-linecap="round" stroke-linejoin="round"/>
<path d="M176.999 146.82C176.999 146.82 181.044 154.01 184.892 154.557C188.739 155.105 193.249 149.712 193.249 149.712C193.249 149.712 178.072 147.212 176.899 146.43C176.576 146.249 176.316 145.973 176.156 145.639C175.996 145.305 175.943 144.93 176.004 144.565" stroke="#7FA632" stroke-width="1.276" stroke-linecap="round" stroke-linejoin="round"/>
<path d="M144.775 123.25C144.775 123.25 140.912 132.028 142.862 136.648C143.748 139.102 145.435 141.186 147.652 142.562C149.869 143.938 152.485 144.526 155.077 144.23" stroke="#7FA632" stroke-width="1.276" stroke-linecap="round" stroke-linejoin="round"/>
<path d="M152.649 144.347C151.164 150.204 149.323 155.965 147.137 161.597" stroke="#7FA632" stroke-width="1.276" stroke-linecap="round" stroke-linejoin="round"/>
<path d="M151.232 126.85C146.552 126.19 143.19 134.92 151.982 139.527" stroke="#7FA632" stroke-width="1.276" stroke-linecap="round" stroke-linejoin="round"/>
<path d="M199.289 101.907C199.289 101.907 205.942 114.022 205.619 122.997C204.862 126.13 204.273 129.302 203.854 132.497C203.647 135.412 205.634 139.517 200.492 149.57C193.282 163.67 192.902 165.84 186.834 167.57C180.767 169.3 165.062 159.535 162.104 155" stroke="#7FA632" stroke-width="1.276" stroke-linecap="round" stroke-linejoin="round"/>
<path d="M144.937 125C144.937 125 147.025 120.32 149.892 121.275C152.507 122.142 155.212 127.775 156.332 131.477C156.42 131.772 156.6 132.03 156.845 132.214C157.091 132.398 157.39 132.497 157.697 132.497H160.197C160.418 132.498 160.635 132.448 160.833 132.35C161.03 132.252 161.202 132.11 161.335 131.934C161.468 131.758 161.558 131.553 161.599 131.337C161.639 131.12 161.628 130.897 161.567 130.685C160.735 127.787 159.317 122.26 160.11 120.525C161.195 118.135 163.667 121.395 164.837 112.182C166.007 102.97 168.702 100.182 174.77 102.432C180.837 104.682 191.285 108.502 195.317 108.14C199.35 107.777 202.445 98.775 203.665 94.25C204.885 89.725 202.345 90.3975 200.077 92.8325C200.077 92.8325 200.692 83.1425 196.77 81.68C192.847 80.2175 190.802 87.1975 190.802 87.1975C190.802 87.1975 192.302 80.3625 188.182 81.0125C184.062 81.6625 182.39 86.475 180.097 86.5975C177.805 86.72 163.692 83.1825 154.32 93.195C144.947 103.207 139.762 113.34 144.937 125Z" fill="#7FA632"/>
<path d="M170.832 162.972L178.43 176.797L182.742 167.477L170.832 162.972Z" fill="#7FA632"/>
<path d="M182.75 167.477L175.447 185C175.447 185 180.502 192.465 181.067 197.472" stroke="#7FA632" stroke-width="1.276" stroke-linecap="round" stroke-linejoin="round"/>
<path d="M158.188 135.695H161.602" stroke="#7FA632" stroke-width="1.276" stroke-linecap="round" stroke-linejoin="round"/>
<path d="M159.064 138.752H160.992" stroke="#7FA632" stroke-width="1.276" stroke-linecap="round" stroke-linejoin="round"/>
<path d="M150.59 149.65C150.59 149.65 130.182 145.737 120.207 151.167C112.752 155.584 105.754 160.731 99.3174 166.532C99.3174 166.532 103.765 169.282 116.465 160.172C129.165 151.062 147.75 162.972 147.75 162.972L149.905 154L150.59 149.65Z" fill="#7FA632"/>
<path d="M101.5 165.64C101.5 165.64 92.6546 172.64 92.6621 176.557C92.6696 180.475 94.7021 180.885 94.0946 182.57C93.4871 184.255 89.7696 186.8 92.6621 191.872C92.6621 191.872 116.975 172.937 127.085 174.372C137.195 175.807 168.475 201.25 182.25 203.442C182.25 203.442 180.87 186.897 167.857 176.797C154.845 166.697 147.142 161.607 147.142 161.607" stroke="#7FA632" stroke-width="1.276" stroke-linecap="round" stroke-linejoin="round"/>
<path d="M182.795 157.717C183.787 158.39 184.978 158.705 186.172 158.612" stroke="#7FA632" stroke-width="1.276" stroke-linecap="round" stroke-linejoin="round"/>
<path d="M162.104 166.28C162.104 166.28 170.157 178.08 172.754 181.472" stroke="#7FA632" stroke-width="1.276" stroke-linecap="round" stroke-linejoin="round"/>
<path d="M92.6719 191.872C92.6719 191.872 88.9219 213.89 89.0869 223.657C89.2519 233.425 76.6944 256.157 114.494 274.272C114.494 274.272 147.947 309.982 155.957 313.902C163.967 317.822 164.977 320.167 180.857 313.077C196.737 305.987 219.944 288.555 229.289 269.972C229.289 269.972 235.479 268.222 236.884 266.42C238.289 264.617 237.789 258.222 238.972 256.747C240.154 255.272 243.514 259.28 243.112 248.747L246.792 245.045L236.729 219.12C234.828 221.095 232.601 222.73 230.147 223.952C225.774 226.24 209.869 230.407 210.099 236.655C210.099 236.655 198.404 238.682 191.349 246.335C184.294 253.987 181.999 250.147 179.367 253.882C176.199 259.336 173.321 264.953 170.744 270.71" stroke="#7FA632" stroke-width="1.276" stroke-linecap="round" stroke-linejoin="round"/>
<path d="M143.223 204.87C145.998 207.633 148.257 210.871 149.893 214.43C151.925 221.415 154.778 243 154.778 243L165.158 244.562L148.908 263.943" stroke="#7FA632" stroke-width="1.276" stroke-linecap="round" stroke-linejoin="round"/>
<path d="M165.157 244.562C165.157 244.562 163.84 273.03 160.522 284.265C160.522 284.265 167.187 267.19 172.152 259.895" stroke="#7FA632" stroke-width="1.276" stroke-linecap="round" stroke-linejoin="round"/>
<path d="M164.569 254.112C166.675 252.653 168.963 251.477 171.374 250.612C172.594 250.732 176.334 259.167 176.334 259.167" stroke="#7FA632" stroke-width="1.276" stroke-linecap="round" stroke-linejoin="round"/>
<path d="M182.25 203.442C188.007 197.184 191.256 189.025 191.378 180.522C190.845 176.094 189.893 171.726 188.535 167.477" stroke="#7FA632" stroke-width="1.276" stroke-linecap="round" stroke-linejoin="round"/>
<path d="M102.152 175.937C102.152 175.937 124.232 162.532 133.5 163.75C142.767 164.967 116.25 176.787 116.25 176.787" stroke="#7FA632" stroke-width="1.276" stroke-linecap="round" stroke-linejoin="round"/>
<path d="M153.354 233.03C153.354 233.03 155.919 220.192 157.889 220.687C159.859 221.182 157.354 237.045 157.354 237.045" stroke="#7FA632" stroke-width="1.276" stroke-linecap="round" stroke-linejoin="round"/>
<path d="M168.223 317.13C168.223 317.13 188.34 303.06 191.383 296.422" stroke="#7FA632" stroke-width="1.276" stroke-linecap="round" stroke-linejoin="round"/>
<path d="M243.113 248.75C243.113 248.75 234.428 236.145 234.098 239.115C233.768 242.085 236.533 248.75 236.533 248.75" stroke="#7FA632" stroke-width="1.276" stroke-linecap="round" stroke-linejoin="round"/>
<path d="M189.734 171.532C191.82 174.841 195.061 177.256 198.827 178.31C204.634 179.56 221.382 179.462 218.467 211.35L218.804 228.635" stroke="#7FA632" stroke-width="1.276" stroke-linecap="round" stroke-linejoin="round"/>
<path d="M91.5844 256C91.5844 256 91.8569 300.68 88.3119 321.642C84.7669 342.605 75.5794 374.142 91.9369 377.392C108.294 380.642 134.732 379.34 140.312 378.565" stroke="#7FA632" stroke-width="1.276" stroke-linecap="round" stroke-linejoin="round"/>
<path d="M216.377 288.68C216.377 288.68 217.272 330.497 223.984 352.43C230.697 374.362 223.529 374.36 205.632 374.807" stroke="#7FA632" stroke-width="1.276" stroke-linecap="round" stroke-linejoin="round"/>
<path d="M226.467 275.945C226.467 275.945 237.077 325.397 239.647 330.945C242.217 336.492 245.034 351.632 241.289 359.73C241.289 359.73 251.809 368.117 243.177 386.752C244.057 391.542 244.607 396.387 244.822 401.252" stroke="#7FA632" stroke-width="1.276" stroke-linecap="round" stroke-linejoin="round"/>
<path d="M170.122 216.92C169.688 216.875 169.271 216.733 168.9 216.503C168.53 216.274 168.216 215.963 167.983 215.595C167.75 215.227 167.604 214.81 167.555 214.377C167.506 213.944 167.557 213.506 167.702 213.095C168.723 210.379 169.434 207.556 169.819 204.68C170.237 201.193 170.06 197.66 169.297 194.232C169.242 194.032 169.229 193.823 169.261 193.617C169.293 193.412 169.368 193.216 169.481 193.042C169.594 192.867 169.743 192.719 169.918 192.607C170.092 192.495 170.289 192.421 170.494 192.39C170.761 192.345 171.035 192.376 171.285 192.478C171.535 192.58 171.752 192.749 171.912 192.967C174.25 196.63 175.38 200.934 175.144 205.272C175.21 208.74 174.477 212.177 173.004 215.317C172.745 215.847 172.33 216.284 171.814 216.571C171.299 216.857 170.708 216.979 170.122 216.92Z" fill="#7FA632"/>
<path d="M169.819 215.33L167.802 221.227" stroke="#7FA632" stroke-width="1.276" stroke-linecap="round" stroke-linejoin="round"/>
<path d="M189.612 213.725C189.178 213.768 188.741 213.712 188.332 213.561C187.923 213.41 187.554 213.168 187.252 212.854C186.951 212.539 186.724 212.16 186.59 211.746C186.457 211.331 186.419 210.891 186.479 210.46C186.94 207.595 187.074 204.687 186.879 201.792C186.593 198.292 185.716 194.865 184.287 191.657C184.193 191.472 184.139 191.269 184.13 191.062C184.12 190.854 184.154 190.647 184.23 190.454C184.306 190.261 184.422 190.086 184.571 189.941C184.719 189.796 184.897 189.684 185.092 189.612C185.344 189.518 185.617 189.495 185.882 189.545C186.146 189.595 186.392 189.717 186.592 189.897C189.613 193.021 191.577 197.013 192.207 201.312C192.961 204.698 192.928 208.212 192.109 211.582C191.961 212.152 191.642 212.663 191.195 213.046C190.748 213.429 190.197 213.666 189.612 213.725Z" fill="#7FA632"/>
<path d="M188.999 212.23L188.194 218.41" stroke="#7FA632" stroke-width="1.276" stroke-linecap="round" stroke-linejoin="round"/>
<path d="M91.9376 377.387C91.9268 381.524 93.0574 385.584 95.2051 389.12C95.2051 389.12 201.25 393.425 222.118 384.15C223.081 380.133 223.632 376.029 223.763 371.9" stroke="#7FA632" stroke-width="1.276" stroke-linecap="round" stroke-linejoin="round"/>
<path d="M95.205 389.12L93.8125 407.532C93.8125 407.532 161.745 411.647 184.125 408.727C199.109 406.915 214.19 406.028 229.282 406.072L222.117 384.15C192.457 390.27 160.327 390.872 122.42 390.117C111.802 389.907 99.7 389.66 95.205 389.12Z" fill="#7FA632"/>
<path d="M128.472 379.322L93.4296 385.5L91.9346 378.06L107.54 379.265L128.472 379.322Z" fill="#7FA632"/>
<path d="M135.305 313.275C135.305 313.275 146.305 325.145 147.267 338.597C148.23 352.05 141.577 358.562 141.577 358.562" stroke="#7FA632" stroke-width="1.276" stroke-linecap="round" stroke-linejoin="round"/>
<path d="M207.03 314.54C207.03 314.54 203.8 317.13 203.215 332.222C202.507 350.52 212.15 355.222 212.15 355.222" stroke="#7FA632" stroke-width="1.276" stroke-linecap="round" stroke-linejoin="round"/>
<path d="M91.5898 282.63C94.2801 284.209 97.1044 285.547 100.03 286.63C103.962 287.955 130.547 292.085 136.222 296.21L115.64 275.5C115.64 275.5 95.0548 261.032 91.5898 257.587V282.63Z" fill="#7FA632"/>
<path d="M163.845 181.472C163.845 181.472 179.53 195.905 182.245 203.442" stroke="#7FA632" stroke-width="1.276" stroke-linecap="round" stroke-linejoin="round"/>
<path d="M238.302 223.172C238.302 223.172 261.104 222.272 267.832 221.595C274.559 220.917 274.717 223.752 277.212 229.952C279.707 236.152 280.787 239.977 280.567 242.165C280.347 244.352 277.607 245.877 275.682 246.137C274.728 246.902 273.604 247.426 272.406 247.666C271.207 247.905 269.969 247.854 268.794 247.515C268.794 247.515 259.294 246.175 257.629 244.562C255.964 242.95 256.759 239.612 258.354 239.312C259.949 239.012 263.124 240.515 263.212 242.502" stroke="#7FA632" stroke-width="1.276" stroke-linecap="round" stroke-linejoin="round"/>
<path d="M265.649 226.79C266.811 226.808 267.939 227.186 268.876 227.873C269.813 228.56 270.513 229.522 270.879 230.625C271.822 234.375 271.649 245.54 268.794 247.515" stroke="#7FA632" stroke-width="1.276" stroke-linecap="round" stroke-linejoin="round"/>
<path d="M275.078 246.582C275.078 246.582 277.683 245.96 276.44 240.082C275.058 233.525 275.19 227.745 271.393 225.487" stroke="#7FA632" stroke-width="1.276" stroke-linecap="round" stroke-linejoin="round"/>
<path d="M265.969 239.75C265.969 239.75 261.519 241.205 259.854 238.677" stroke="#7FA632" stroke-width="1.276" stroke-linecap="round" stroke-linejoin="round"/>
<path d="M261.847 235.61C260.378 237.354 258.555 238.765 256.499 239.75C254.052 240.5 248.214 241.59 246.797 239.75" stroke="#7FA632" stroke-width="1.276" stroke-linecap="round" stroke-linejoin="round"/>
<path d="M246.5 243.84C246.5 243.84 253.528 248.375 256.975 248.75C260.423 249.125 261.322 247.235 265.26 249.972C269.197 252.71 273.825 252.61 276.14 249.972C276.775 249.247 277.5 247.07 275.672 246.137" stroke="#7FA632" stroke-width="1.276" stroke-linecap="round" stroke-linejoin="round"/>
<path d="M279.774 243.875C280.485 244.519 281.336 244.988 282.259 245.245C282.992 245.983 283.89 246.535 284.88 246.853C285.87 247.172 286.921 247.249 287.947 247.077C287.947 247.077 296.109 246.87 297.677 245.667C299.244 244.465 298.892 241.567 297.572 241.167C296.252 240.767 293.422 241.722 293.154 243.395" stroke="#7FA632" stroke-width="1.276" stroke-linecap="round" stroke-linejoin="round"/>
<path d="M313.385 232.615C313.385 232.615 296.905 226.482 291.282 225.257C285.66 224.032 285.252 226.41 282.532 231.412C281.385 233.525 280.495 235.302 279.845 236.792" stroke="#7FA632" stroke-width="1.276" stroke-linecap="round" stroke-linejoin="round"/>
<path d="M292.622 229.86C291.638 229.762 290.648 229.973 289.789 230.463C288.931 230.953 288.246 231.698 287.829 232.595C286.667 235.667 285.727 245.132 287.947 247.077" stroke="#7FA632" stroke-width="1.276" stroke-linecap="round" stroke-linejoin="round"/>
<path d="M282.727 245.678C282.727 245.678 280.587 244.9 282.207 240.042C284.014 234.632 284.457 229.733 287.894 228.193" stroke="#7FA632" stroke-width="1.276" stroke-linecap="round" stroke-linejoin="round"/>
<path d="M291.092 240.792C291.092 240.792 294.712 242.452 296.367 240.48" stroke="#7FA632" stroke-width="1.276" stroke-linecap="round" stroke-linejoin="round"/>
<path d="M294.979 237.688C296.052 239.307 297.457 240.679 299.102 241.713C301.102 242.598 305.929 244.072 307.307 242.655" stroke="#7FA632" stroke-width="1.276" stroke-linecap="round" stroke-linejoin="round"/>
<path d="M282.25 245.25C280.612 245.86 281.015 247.77 281.482 248.447C283.182 250.902 287.085 251.448 290.68 249.505C294.275 247.563 297.245 250.055 300.197 250.073C302.848 249.696 305.394 248.778 307.675 247.375" stroke="#7FA632" stroke-width="1.276" stroke-linecap="round" stroke-linejoin="round"/>
<path d="M143.222 117.992H34.9395V288.68H90.9094" stroke="#7FA632" stroke-width="1.276" stroke-linecap="round" stroke-linejoin="round"/>
<path d="M265.969 250.77V288.68H229.927" stroke="#7FA632" stroke-width="1.276" stroke-linecap="round" stroke-linejoin="round"/>
<path d="M205.512 117.992H265.969V221.497" stroke="#7FA632" stroke-width="1.276" stroke-linecap="round" stroke-linejoin="round"/>
<path d="M38.6348 118C40.9562 129.289 41.7517 140.839 40.9998 152.34H120.207" stroke="#7FA632" stroke-width="1.276" stroke-linecap="round" stroke-linejoin="round"/>
<path d="M258.895 118C258.895 118 259.767 135.72 261.317 152.347H199.64" stroke="#7FA632" stroke-width="1.276" stroke-linecap="round" stroke-linejoin="round"/>
<path d="M53.6844 152.34C53.6844 152.34 51.3619 187.295 51.9894 197.035C52.6169 206.775 54.7269 222.117 54.4019 232.887C54.1956 239.283 54.6066 245.683 55.6294 252" stroke="#7FA632" stroke-width="1.276" stroke-linecap="round" stroke-linejoin="round"/>
<path d="M51.8818 256.145C51.8818 257.071 52.2495 257.958 52.904 258.613C53.5585 259.267 54.4462 259.635 55.3718 259.635C56.2974 259.635 57.1851 259.267 57.8396 258.613C58.4941 257.958 58.8618 257.071 58.8618 256.145C58.8618 255.219 58.4941 254.332 57.8396 253.677C57.1851 253.023 56.2974 252.655 55.3718 252.655C54.4462 252.655 53.5585 253.023 52.904 253.677C52.2495 254.332 51.8818 255.219 51.8818 256.145Z" stroke="#7FA632" stroke-width="1.276" stroke-linecap="round" stroke-linejoin="round"/>
<path d="M45.2744 123.967C45.2744 123.967 106.839 125.467 111.417 125.555C115.994 125.642 138.692 125.555 138.692 125.555" stroke="#7FA632" stroke-width="1.276" stroke-linecap="round" stroke-linejoin="round"/>
<path d="M40.9824 134.84C49.1749 133.833 57.4164 133.276 65.6699 133.17C72.9049 133.545 112.575 134.09 120.207 133.982" stroke="#7FA632" stroke-width="1.276" stroke-linecap="round" stroke-linejoin="round"/>
<path d="M51.8818 144.347C51.8818 144.347 123.077 144.565 130.522 144.565" stroke="#7FA632" stroke-width="1.276" stroke-linecap="round" stroke-linejoin="round"/>
<path d="M208.647 129.902C208.647 129.902 249.42 130.49 255.022 130.037" stroke="#7FA632" stroke-width="1.276" stroke-linecap="round" stroke-linejoin="round"/>
<path d="M260.627 144.347C260.627 144.347 218.267 145.115 214.167 144.347" stroke="#7FA632" stroke-width="1.276" stroke-linecap="round" stroke-linejoin="round"/>
<path d="M257.56 100.567C257.56 100.567 319.787 101.337 338.187 100.567C356.587 99.7974 365.887 99.7699 365.887 99.7699" stroke="#7FA632" stroke-width="1.276" stroke-linecap="round" stroke-linejoin="round"/>
<path d="M283.529 89.25C283.529 89.25 356.609 89.75 365.887 89.8025C375.164 89.855 385.542 90.0525 385.542 90.0525" stroke="#7FA632" stroke-width="1.276" stroke-linecap="round" stroke-linejoin="round"/>
<path d="M40.9824 303.765H80.5949" stroke="#7FA632" stroke-width="1.276" stroke-linecap="round" stroke-linejoin="round"/>
<path d="M237.854 303.765H301.38" stroke="#7FA632" stroke-width="1.276" stroke-linecap="round" stroke-linejoin="round"/>
<path d="M13.9297 364.982H40.9822" stroke="#7FA632" stroke-width="1.276" stroke-linecap="round" stroke-linejoin="round"/>
<path d="M53.7822 364.982H72.8622" stroke="#7FA632" stroke-width="1.276" stroke-linecap="round" stroke-linejoin="round"/>
<path d="M27.4551 349.087H60.7876" stroke="#7FA632" stroke-width="1.276" stroke-linecap="round" stroke-linejoin="round"/>
<path d="M440.357 364.982H457.047" stroke="#7FA632" stroke-width="1.276" stroke-linecap="round" stroke-linejoin="round"/>
<path d="M469.85 364.982H488.93" stroke="#7FA632" stroke-width="1.276" stroke-linecap="round" stroke-linejoin="round"/>
<path d="M434.755 349.087H476.855" stroke="#7FA632" stroke-width="1.276" stroke-linecap="round" stroke-linejoin="round"/>
<path d="M243 347.952C243 347.952 253.955 334.952 269.785 334.952C283.933 334.952 296.57 344.16 296.57 344.16" stroke="#7FA632" stroke-width="1.276" stroke-linecap="round" stroke-linejoin="round"/>
<path d="M242.207 336.795C249.964 330.288 259.671 326.557 269.79 326.195C289.245 326.195 299.762 336.195 299.762 336.195" stroke="#7FA632" stroke-width="1.276" stroke-linecap="round" stroke-linejoin="round"/>
<path d="M483.038 315.882C480.81 315.632 467.453 316.132 460.328 315.882C453.203 315.632 435.828 315.882 435.828 315.882L430.04 287.382C430.04 287.382 441.633 286.552 448.263 286.382C458.405 286.221 468.548 286.638 478.643 287.632L471.823 315.382" stroke="#7FA632" stroke-width="1.276" stroke-linecap="round" stroke-linejoin="round"/>
<path d="M454.947 286C454.947 286 463.932 248.75 462.662 223.662C462.045 211.49 460.802 194.992 465.075 194.99C472.207 194.99 472.477 213.367 472.192 228.382C471.735 252.405 460.387 286.352 460.387 286.352" stroke="#7FA632" stroke-width="1.276" stroke-linecap="round" stroke-linejoin="round"/>
<path d="M463.577 286.34C463.577 286.34 474.902 262.15 476.787 247.895C479.39 228.21 488.93 229.505 483.617 251.975C478.29 274.512 469.052 286.34 469.052 286.34" stroke="#7FA632" stroke-width="1.276" stroke-linecap="round" stroke-linejoin="round"/>
<path d="M447.472 286.372C447.472 286.372 443.972 258.255 442.604 241.595C441.237 224.935 443.312 217.275 442.749 202.265C442.232 188.532 450.284 188.132 451.249 209.527C452.214 230.922 452.614 232.722 453.032 243.245C453.449 253.767 452.199 286.372 452.199 286.372" stroke="#7FA632" stroke-width="1.276" stroke-linecap="round" stroke-linejoin="round"/>
<path d="M436.85 286.837C434.49 277.395 430.787 262.292 428.565 251.777C425.107 235.425 426.192 227.562 423.735 212.742C421.485 199.185 429.422 197.772 433.072 218.875C436.722 239.977 437.36 241.71 439.105 252.095C440.277 259.095 441.972 276.142 442.952 286.512" stroke="#7FA632" stroke-width="1.276" stroke-linecap="round" stroke-linejoin="round"/>
<path d="M326.749 319.217C325.797 323.076 325.346 327.041 325.407 331.015C325.407 331.015 309.907 352.765 308.754 378.652C307.602 404.54 310.097 407.842 310.097 407.842" stroke="#7FA632" stroke-width="1.276" stroke-linecap="round" stroke-linejoin="round"/>
<path d="M331.039 332.415C331.039 332.415 323.097 345.892 319.199 350.72" stroke="#7FA632" stroke-width="1.276" stroke-linecap="round" stroke-linejoin="round"/>
<path d="M355.062 320.583C355.113 324.253 354.726 327.916 353.91 331.495C352.547 340.473 352.029 349.56 352.363 358.635" stroke="#7FA632" stroke-width="1.276" stroke-linecap="round" stroke-linejoin="round"/>
<path d="M342.787 384.3C342.787 384.3 363.19 395.865 365.94 397.457L369.132 407.842" stroke="#7FA632" stroke-width="1.276" stroke-linecap="round" stroke-linejoin="round"/>
<path d="M351.6 394.565C356.313 395.836 361.103 396.802 365.94 397.457" stroke="#7FA632" stroke-width="1.276" stroke-linecap="round" stroke-linejoin="round"/>
<path d="M410.295 318.965C410.557 321.959 410.557 324.971 410.295 327.965C410.295 327.965 426.64 343.407 434.755 362.247C442.87 381.087 451.187 405.467 451.187 405.467" stroke="#7FA632" stroke-width="1.276" stroke-linecap="round" stroke-linejoin="round"/>
<path d="M390.223 334.985C390.223 334.985 406.763 350.402 415.375 355.962" stroke="#7FA632" stroke-width="1.276" stroke-linecap="round" stroke-linejoin="round"/>
<path d="M361.545 330.897C361.545 332.462 361.776 333.962 362.189 335.068C362.601 336.174 363.16 336.795 363.742 336.795C364.325 336.795 364.884 336.174 365.296 335.068C365.708 333.962 365.94 332.462 365.94 330.897C365.94 329.333 365.708 327.833 365.296 326.727C364.884 325.621 364.325 325 363.742 325C363.16 325 362.601 325.621 362.189 326.727C361.776 327.833 361.545 329.333 361.545 330.897Z" stroke="#7FA632" stroke-width="1.276" stroke-linecap="round" stroke-linejoin="round"/>
<path d="M309.102 282.602C309.102 282.602 305.452 318.492 304.905 326.195C304.357 333.897 296.575 334.605 294.212 361.66C292.904 376.922 293.795 392.292 296.86 407.3" stroke="#7FA632" stroke-width="1.276" stroke-linecap="round" stroke-linejoin="round"/>
<path d="M59.5173 312.975L24.9473 328.53" stroke="#7FA632" stroke-width="1.276" stroke-linecap="round" stroke-linejoin="round"/>
<path d="M61.3321 317.01L26.7646 332.565" stroke="#7FA632" stroke-width="1.276" stroke-linecap="round" stroke-linejoin="round"/>
<path d="M63.6367 311.12L64.0892 310.918C64.6243 310.677 65.233 310.659 65.7816 310.867C66.3301 311.075 66.7735 311.492 67.0142 312.028C67.2548 312.563 67.273 313.171 67.0649 313.72C66.8567 314.268 66.4392 314.712 65.9042 314.953L64.8892 315.41" stroke="#7FA632" stroke-width="1.276" stroke-linecap="round" stroke-linejoin="round"/>
<path d="M21.7049 329.99L17.1074 334.485L23.5199 334.025" stroke="#7FA632" stroke-width="1.276" stroke-linecap="round" stroke-linejoin="round"/>
<path d="M50.4244 323.893C46.6756 329.175 42.5984 334.217 38.2169 338.987C34.7619 342.005 70.1644 340.488 70.1644 340.488L85.6244 317.12L68.4794 316.62" stroke="#7FA632" stroke-width="1.276" stroke-linecap="round" stroke-linejoin="round"/>
<path d="M45.5 334.485L50 332.965C50.3654 332.841 50.7552 332.808 51.1362 332.868C51.5171 332.929 51.8779 333.08 52.1875 333.31C52.6366 333.642 53.1878 333.806 53.7454 333.774C54.303 333.742 54.8318 333.516 55.24 333.135L55.53 332.865C55.9218 332.5 56.4246 332.277 56.9581 332.232C57.4915 332.186 58.0248 332.321 58.4725 332.615L59.7225 333.435C60.1787 333.734 60.7236 333.868 61.2666 333.815C61.8096 333.762 62.3181 333.525 62.7075 333.142L62.8175 333.035C63.2276 332.633 63.7687 332.391 64.342 332.355C64.9153 332.319 65.4825 332.49 65.94 332.837L68.24 334.587" stroke="#7FA632" stroke-width="1.276" stroke-linecap="round" stroke-linejoin="round"/>
<path d="M53.8701 327.18L57.5876 325.43C57.9104 325.278 58.2749 325.24 58.6223 325.32C58.9697 325.401 59.2798 325.596 59.5026 325.875C59.636 326.043 59.8019 326.181 59.9905 326.283C60.179 326.385 60.3862 326.447 60.5995 326.467C60.8128 326.486 61.0279 326.462 61.2317 326.396C61.4354 326.33 61.6237 326.223 61.7851 326.082L63.7851 324.332C63.9563 324.184 64.1574 324.073 64.3748 324.008C64.5923 323.944 64.821 323.926 65.0458 323.957C65.2705 323.988 65.486 324.067 65.6777 324.188C65.8695 324.309 66.0331 324.47 66.1576 324.66L67.8401 327.23C68.066 327.574 68.4166 327.817 68.818 327.908C69.2194 327.999 69.6405 327.931 69.9926 327.717L73.1101 325.825" stroke="#7FA632" stroke-width="1.276" stroke-linecap="round" stroke-linejoin="round"/>
<path d="M369.067 267.85C370.967 270.016 372.714 272.311 374.297 274.717" stroke="#7FA632" stroke-width="1.276" stroke-linecap="round" stroke-linejoin="round"/>
<path d="M347.827 213.857C347.827 213.857 359.947 212.465 362.287 211.625" stroke="#7FA632" stroke-width="1.276" stroke-linecap="round" stroke-linejoin="round"/>
<path d="M360.797 203.68L363.359 214.252" stroke="#7FA632" stroke-width="1.276" stroke-linecap="round" stroke-linejoin="round"/>
<path d="M406.222 156.595C406.228 158.73 405.891 160.852 405.222 162.88C404.155 165.83 396.445 171.74 393.795 172C392.467 172.127 391.31 174.685 390.017 177.25C388.979 179.665 387.049 181.587 384.63 182.615C376.02 184.415 377.917 187.865 381.912 187.212C385.907 186.56 390.867 183.712 394.162 175.785C394.162 175.785 401.26 172.305 402.767 177.062C404.275 181.82 400.5 193.91 388.472 192.425L390.91 212.505L399.122 215.582" stroke="#7FA632" stroke-width="1.276" stroke-linecap="round" stroke-linejoin="round"/>
<path d="M405.227 162.88C405.722 165.072 405.691 167.35 405.137 169.527C404.129 171.772 402.37 173.595 400.162 174.683" stroke="#7FA632" stroke-width="1.276" stroke-linecap="round" stroke-linejoin="round"/>
<path d="M405.137 169.527C405.137 169.527 407.222 171.925 402.77 177.072" stroke="#7FA632" stroke-width="1.276" stroke-linecap="round" stroke-linejoin="round"/>
<path d="M389 177.728C385.035 175.36 385.702 168.93 386.265 166.05C386.827 163.17 389.19 158.325 383.182 156.753C377.175 155.18 378.432 147.503 375.525 145.218C372.617 142.933 368.35 146.818 362.775 146.01C357.2 145.203 358 140.563 354.44 142.603C352.588 143.741 350.553 144.549 348.425 144.99C348.425 144.99 358.467 124.028 382.772 133.665" stroke="#7FA632" stroke-width="1.276" stroke-linecap="round" stroke-linejoin="round"/>
<path d="M358.75 138.847C365.15 132.015 374.212 131.822 384.46 134.007" stroke="#7FA632" stroke-width="1.276" stroke-linecap="round" stroke-linejoin="round"/>
<path d="M366.652 141.087C366.652 141.087 381.837 131.88 386.597 134.47C387.626 135.241 388.561 136.131 389.382 137.12C389.382 137.12 392.06 135.76 393.252 137.37" stroke="#7FA632" stroke-width="1.276" stroke-linecap="round" stroke-linejoin="round"/>
<path d="M396.707 139.345C396.707 139.345 391.63 138.052 391.657 142.12C391.73 143.145 392.139 144.117 392.82 144.885C393.502 145.654 394.419 146.176 395.427 146.37C394.975 146.448 394.546 146.63 394.174 146.901C393.803 147.171 393.498 147.523 393.284 147.93C393.071 148.337 392.953 148.788 392.941 149.247C392.929 149.706 393.023 150.162 393.215 150.58C394.592 153.92 400.347 151.782 400.347 151.782C400.347 151.782 402.9 158.385 411.745 156.647C412.522 156.596 413.28 156.385 413.971 156.027C414.663 155.67 415.273 155.173 415.764 154.568C416.255 153.964 416.615 153.264 416.823 152.514C417.031 151.763 417.081 150.978 416.972 150.207C416.862 149.437 416.594 148.697 416.185 148.034C415.776 147.372 415.234 146.801 414.595 146.357C413.955 145.913 413.23 145.607 412.466 145.456C411.702 145.306 410.915 145.315 410.155 145.482" stroke="#7FA632" stroke-width="1.276" stroke-linecap="round" stroke-linejoin="round"/>
<path d="M394.525 139.172C394.228 138.076 394.176 136.928 394.374 135.81C394.572 134.692 395.015 133.631 395.67 132.704C396.326 131.777 397.179 131.006 398.167 130.447C399.155 129.888 400.255 129.554 401.388 129.47C407.59 128.325 412.75 132.145 411.158 138.272" stroke="#7FA632" stroke-width="1.276" stroke-linecap="round" stroke-linejoin="round"/>
<path d="M411.427 135.532C411.427 135.532 417.427 135.657 417.834 141.087C418.242 146.517 415.699 147.282 415.699 147.282" stroke="#7FA632" stroke-width="1.276" stroke-linecap="round" stroke-linejoin="round"/>
<path d="M375.515 145.217C377.193 142.338 379.879 140.184 383.055 139.172" stroke="#7FA632" stroke-width="1.276" stroke-linecap="round" stroke-linejoin="round"/>
<path d="M386.228 173.725C386.228 173.725 389.003 167.975 392.925 167.675C396.848 167.375 399.69 162.122 401.9 159.485" stroke="#7FA632" stroke-width="1.276" stroke-linecap="round" stroke-linejoin="round"/>
<path d="M391.657 143.69C391.657 143.69 384.982 146.225 383.055 149.037" stroke="#7FA632" stroke-width="1.276" stroke-linecap="round" stroke-linejoin="round"/>
<path d="M387 162.88C389.707 161.485 392.17 159.659 394.292 157.475C397.352 154.147 398.423 154.43 398.423 154.43" stroke="#7FA632" stroke-width="1.276" stroke-linecap="round" stroke-linejoin="round"/>
<path d="M393.447 178.25C393.447 178.25 398 177.432 398.407 180.445C398.379 181.94 397.92 183.395 397.087 184.636C396.253 185.878 395.08 186.853 393.707 187.445" stroke="#7FA632" stroke-width="1.276" stroke-linecap="round" stroke-linejoin="round"/>
<path d="M348.405 145C348.405 145 341.19 153.587 341.825 162.12C341.825 162.12 342.6 168.155 342.735 169.853C342.87 171.55 339.22 176.603 340.347 182.18C341.6 186.913 343.35 191.5 345.567 195.865C348.405 202.763 350.172 204.665 357.637 203.865C361.629 203.544 365.542 202.575 369.222 200.995" stroke="#7FA632" stroke-width="1.276" stroke-linecap="round" stroke-linejoin="round"/>
<path d="M349.157 143.652C349.157 143.652 345.455 144.825 344.472 141.867C344.198 140.99 344.148 140.058 344.326 139.156C344.505 138.254 344.907 137.411 345.495 136.705C345.495 136.705 341.907 135.402 344.202 130.395C346.497 125.387 351.805 128.592 351.805 128.592C351.805 128.592 352.22 123.987 356.055 123.41C359.89 122.832 362.305 127.59 362.305 127.59C362.305 127.59 366.097 122.615 369.205 126.09C372.312 129.565 371.177 131.132 371.177 131.132C365.74 131.537 360.44 133.034 355.595 135.535C352.723 137.576 350.49 140.391 349.157 143.652Z" fill="#7FA632"/>
<path d="M388.447 188.23C388.447 188.797 388.672 189.34 389.073 189.741C389.474 190.142 390.018 190.367 390.585 190.367C391.152 190.367 391.695 190.142 392.096 189.741C392.497 189.34 392.722 188.797 392.722 188.23C392.722 187.663 392.497 187.119 392.096 186.718C391.695 186.318 391.152 186.092 390.585 186.092C390.018 186.092 389.474 186.318 389.073 186.718C388.672 187.119 388.447 187.663 388.447 188.23Z" fill="#7FA632"/>
<path d="M391.98 192.475C393.225 193.232 394.556 193.838 395.945 194.28C396.727 194.487 397.497 194.738 398.252 195.03C398.545 195.143 398.79 195.354 398.943 195.628C399.096 195.902 399.149 196.221 399.092 196.53C399.028 196.88 398.828 197.191 398.536 197.394C398.243 197.596 397.882 197.675 397.532 197.612C394.176 196.553 391.087 194.785 388.475 192.427" stroke="#7FA632" stroke-width="1.276" stroke-linecap="round" stroke-linejoin="round"/>
<path d="M391.904 195.037C392.197 197.349 393.359 199.462 395.154 200.947C396.084 201.662 396.824 202.182 397.404 202.555C397.852 202.842 398.174 203.288 398.306 203.803C398.438 204.318 398.369 204.863 398.114 205.33C397.97 205.596 397.77 205.828 397.528 206.009C397.286 206.191 397.007 206.318 396.711 206.382C396.415 206.445 396.109 206.444 395.813 206.378C395.518 206.312 395.24 206.183 394.999 206C394.499 205.625 393.977 205.197 393.459 204.75C391.298 202.496 389.762 199.718 389.002 196.69V193.217L391.904 195.037Z" fill="#7FA632"/>
<path d="M341.824 162.11C341.824 162.11 343.484 159.658 345.402 160.06C347.109 160.691 348.676 161.649 350.017 162.88" stroke="#7FA632" stroke-width="1.276" stroke-linecap="round" stroke-linejoin="round"/>
<path d="M360.125 163.315C362.522 161.664 365.295 160.644 368.19 160.347C369.442 160.549 370.639 161.006 371.706 161.69C372.774 162.375 373.689 163.271 374.395 164.325" stroke="#7FA632" stroke-width="1.276" stroke-linecap="round" stroke-linejoin="round"/>
<path d="M344.188 166.717C347.049 166.79 349.767 167.991 351.748 170.057" stroke="#7FA632" stroke-width="1.276" stroke-linecap="round" stroke-linejoin="round"/>
<path d="M347.403 169.31C347.225 170.94 346.288 172.172 345.308 172.06C344.328 171.947 343.68 170.56 343.86 168.92C344.04 167.28 344.975 166.855 345.953 166.962C346.93 167.07 347.58 167.682 347.403 169.31Z" fill="#7FA632"/>
<path d="M363.305 167.63C363.305 167.63 369.792 168.522 372.687 171.88" stroke="#7FA632" stroke-width="1.276" stroke-linecap="round" stroke-linejoin="round"/>
<path d="M366.52 170.222C366.342 171.85 365.405 173.082 364.427 172.972C363.45 172.862 362.8 171.46 362.977 169.832C363.155 168.205 364.092 167.767 365.07 167.875C366.047 167.982 366.697 168.592 366.52 170.222Z" fill="#7FA632"/>
<path d="M354.584 164.812C354.584 164.812 355.797 167.472 355.247 168.607C354.697 169.742 350.879 175.287 350.017 177.072C349.154 178.857 352.704 181.797 352.704 181.797" stroke="#7FA632" stroke-width="1.276" stroke-linecap="round" stroke-linejoin="round"/>
<path d="M355.473 179.94C356.623 180.132 357.726 180.542 358.723 181.147" stroke="#7FA632" stroke-width="1.276" stroke-linecap="round" stroke-linejoin="round"/>
<path d="M347.63 186.092C350.212 186.713 352.832 187.164 355.472 187.442C358.964 187.238 362.439 186.807 365.875 186.15C365.875 186.15 360.78 191.975 355.472 192.077C350.165 192.18 347.63 186.092 347.63 186.092Z" stroke="#7FA632" stroke-width="1.276" stroke-linecap="round" stroke-linejoin="round"/>
<path d="M350.667 193.365C351.03 194.051 351.552 194.639 352.19 195.081C352.828 195.522 353.563 195.804 354.332 195.902C356.14 195.832 357.903 195.317 359.464 194.402" stroke="#7FA632" stroke-width="1.276" stroke-linecap="round" stroke-linejoin="round"/>
<path d="M347.63 186.057C349.481 185.154 351.461 184.544 353.5 184.25C355.25 184.35 364.355 186.408 364.355 186.408L354.705 187.093L347.63 186.057Z" fill="#7FA632"/>
<path d="M363.174 209.975L365.874 202.902L360.797 203.68L362.287 209.827" fill="#7FA632"/>
</svg>
