<svg width="500" height="500" viewBox="0 0 500 500" fill="none" xmlns="http://www.w3.org/2000/svg">
<path d="M471.038 135.07L450.925 240.292C448.113 238.65 445.19 237.206 442.175 235.972C443.393 227.04 442.953 222.08 441.06 219.265C441.336 218.798 441.528 218.286 441.625 217.752C441.864 216.498 441.595 215.201 440.877 214.145C440.159 213.089 439.051 212.362 437.797 212.124C436.543 211.885 435.245 212.154 434.189 212.872C433.134 213.59 432.407 214.698 432.168 215.952C432.143 216.097 432.118 216.25 432.1 216.392C428.375 218.065 425.933 223.77 423.473 230.615L423.423 231.115C408.26 229.308 392.918 232.41 379.648 239.965C378.625 221.887 384.938 198.157 379.368 190.215C379.652 189.748 379.847 189.233 379.943 188.695C380.075 188.006 380.055 187.296 379.884 186.616C379.713 185.936 379.395 185.301 378.953 184.757C378.511 184.212 377.955 183.771 377.325 183.463C376.694 183.156 376.004 182.99 375.303 182.978C374.601 182.965 373.906 183.106 373.265 183.39C372.623 183.675 372.052 184.096 371.591 184.625C371.13 185.153 370.789 185.776 370.594 186.45C370.399 187.123 370.353 187.832 370.46 188.525C357.835 196.097 355.775 243.302 339.338 240.65C322.79 237.97 347.315 170.745 335.035 155.56C335.413 155.018 335.669 154.4 335.785 153.75C335.904 153.129 335.899 152.491 335.771 151.872C335.643 151.253 335.395 150.665 335.04 150.142C334.685 149.619 334.23 149.172 333.702 148.824C333.174 148.477 332.583 148.237 331.962 148.119C331.341 148 330.703 148.005 330.084 148.133C329.465 148.261 328.877 148.509 328.354 148.864C327.831 149.219 327.383 149.674 327.036 150.202C326.689 150.73 326.449 151.322 326.33 151.942C326.245 152.382 326.222 152.831 326.263 153.277C308.05 162.487 307.045 260.847 280.798 256.445C255.023 252.125 283.56 174.295 270.935 158.855C271.028 158.611 271.099 158.361 271.148 158.105C271.267 157.483 271.262 156.845 271.134 156.225C271.005 155.605 270.756 155.017 270.401 154.494C270.045 153.97 269.59 153.522 269.061 153.175C268.533 152.827 267.941 152.587 267.319 152.469C266.698 152.35 266.059 152.355 265.439 152.483C264.82 152.611 264.231 152.86 263.708 153.216C263.185 153.571 262.736 154.026 262.389 154.555C262.042 155.084 261.802 155.676 261.683 156.297C261.641 156.526 261.616 156.758 261.605 156.99C243.75 164.835 233.86 229.102 223.44 227.717L249.25 92.6724L471.038 135.07ZM308.065 115.787C308.258 114.781 308.148 113.74 307.748 112.797C307.349 111.853 306.679 111.049 305.823 110.486C304.967 109.923 303.964 109.627 302.939 109.635C301.914 109.642 300.915 109.953 300.068 110.529C299.22 111.105 298.562 111.919 298.177 112.868C297.792 113.817 297.697 114.86 297.905 115.863C298.112 116.866 298.613 117.786 299.342 118.505C300.072 119.224 300.999 119.71 302.005 119.902C303.354 120.155 304.748 119.865 305.884 119.094C307.019 118.323 307.803 117.134 308.065 115.787ZM286.39 111.637C286.583 110.631 286.473 109.59 286.073 108.647C285.674 107.703 285.004 106.899 284.148 106.336C283.292 105.773 282.289 105.477 281.264 105.485C280.239 105.492 279.24 105.803 278.393 106.379C277.545 106.955 276.887 107.769 276.502 108.718C276.117 109.667 276.022 110.71 276.23 111.713C276.437 112.716 276.938 113.636 277.667 114.355C278.397 115.074 279.324 115.56 280.33 115.752C281.68 116.01 283.076 115.721 284.213 114.95C285.349 114.178 286.132 112.987 286.39 111.637ZM264.72 107.5C264.912 106.494 264.801 105.454 264.401 104.511C264.002 103.569 263.332 102.766 262.476 102.204C261.62 101.642 260.617 101.346 259.593 101.354C258.569 101.363 257.57 101.674 256.724 102.25C255.877 102.825 255.22 103.639 254.835 104.588C254.451 105.537 254.357 106.579 254.564 107.581C254.772 108.584 255.272 109.503 256.002 110.221C256.731 110.939 257.657 111.425 258.663 111.617C260.012 111.872 261.407 111.582 262.543 110.81C263.678 110.039 264.461 108.848 264.72 107.5Z" fill="white"/>
<path d="M465.5 251.53C478.893 264.923 486.418 283.089 486.418 302.03C486.418 320.971 478.893 339.137 465.5 352.53C452.107 365.923 433.941 373.448 415 373.448C396.059 373.448 377.893 365.923 364.5 352.53L415 302.03L465.5 251.53Z" fill="white"/>
<path d="M465.5 251.53L415 302.025L364.5 251.525C374.473 241.564 387.167 234.772 400.988 232.004C414.809 229.236 429.14 230.615 442.18 235.967C445.194 237.201 448.118 238.645 450.93 240.287C456.252 243.389 461.15 247.168 465.5 251.53Z" fill="#7FA632"/>
<path d="M441.073 219.265C442.965 222.08 443.405 227.04 442.188 235.972C436.188 233.505 429.88 231.87 423.438 231.112L423.488 230.612C425.948 223.767 428.39 218.062 432.115 216.39C432.01 217.484 432.282 218.581 432.887 219.498C433.491 220.416 434.392 221.1 435.438 221.435C436.484 221.771 437.614 221.738 438.64 221.343C439.665 220.948 440.524 220.213 441.075 219.262L441.073 219.265Z" fill="white"/>
<path d="M437.81 212.125C439.064 212.364 440.172 213.091 440.89 214.146C441.607 215.201 441.877 216.499 441.638 217.752C441.54 218.286 441.349 218.798 441.073 219.265C439.884 217.615 438.108 216.484 436.11 216.105C434.784 215.731 433.369 215.833 432.11 216.392C432.128 216.25 432.153 216.097 432.18 215.952C432.298 215.331 432.536 214.739 432.883 214.21C433.23 213.681 433.678 213.225 434.201 212.87C434.724 212.514 435.312 212.265 435.931 212.137C436.551 212.01 437.189 212.005 437.81 212.125Z" fill="#7FA632"/>
<path d="M441.073 219.265C440.522 220.216 439.663 220.95 438.637 221.345C437.612 221.741 436.482 221.773 435.436 221.438C434.389 221.102 433.489 220.419 432.885 219.501C432.28 218.583 432.008 217.486 432.113 216.392C433.372 215.833 434.787 215.731 436.113 216.105C438.11 216.485 439.885 217.616 441.073 219.265Z" fill="#7FA632"/>
<path d="M415.001 302.025L364.501 352.525C357.866 345.895 352.602 338.023 349.011 329.358C345.42 320.692 343.571 311.405 343.571 302.025C343.571 292.645 345.42 283.357 349.011 274.692C352.602 266.027 357.866 258.155 364.501 251.525L415.001 302.025Z" fill="#DBFF93"/>
<path d="M376.128 183.07C376.749 183.187 377.341 183.426 377.87 183.773C378.399 184.12 378.854 184.568 379.21 185.091C379.565 185.614 379.814 186.202 379.942 186.821C380.07 187.44 380.075 188.079 379.955 188.7C379.859 189.238 379.665 189.753 379.38 190.22C378.517 188.931 377.187 188.028 375.67 187.702C374.793 187.486 373.881 187.448 372.989 187.591C372.097 187.733 371.242 188.052 370.475 188.53C370.357 187.769 370.423 186.99 370.668 186.259C370.913 185.529 371.33 184.868 371.885 184.333C372.439 183.798 373.114 183.403 373.852 183.184C374.591 182.964 375.371 182.925 376.128 183.07Z" fill="#7FA632"/>
<path d="M379.381 190.22C384.951 198.155 378.631 221.885 379.661 239.97C370.426 245.237 362.481 252.497 356.406 261.221C350.33 269.945 346.276 279.914 344.538 290.403L300.063 281.903L216.146 265.863L222.603 232.068L223.441 227.725C233.861 229.11 243.748 164.843 261.628 157C261.579 158.147 261.941 159.275 262.65 160.178C263.359 161.082 264.367 161.702 265.494 161.928C266.62 162.153 267.789 161.969 268.791 161.408C269.793 160.846 270.562 159.946 270.958 158.868C283.583 174.308 255.046 252.138 280.821 256.458C307.071 260.86 308.071 162.5 326.286 153.29C326.376 154.274 326.768 155.207 327.407 155.961C328.047 156.715 328.903 157.253 329.859 157.502C330.816 157.752 331.826 157.7 332.752 157.355C333.679 157.01 334.476 156.387 335.036 155.573C347.316 170.758 322.786 237.983 339.338 240.663C355.776 243.315 357.838 196.11 370.463 188.538C370.613 189.521 371.064 190.433 371.754 191.149C372.445 191.865 373.34 192.349 374.317 192.535C375.294 192.72 376.305 192.598 377.21 192.185C378.114 191.771 378.868 191.088 379.368 190.228L379.381 190.22Z" fill="white"/>
<path d="M375.671 187.702C377.187 188.028 378.517 188.931 379.381 190.22C378.881 191.08 378.127 191.764 377.222 192.177C376.318 192.59 375.307 192.712 374.33 192.527C373.353 192.342 372.457 191.858 371.767 191.142C371.077 190.426 370.625 189.513 370.476 188.53C371.242 188.052 372.097 187.733 372.989 187.591C373.882 187.448 374.793 187.486 375.671 187.702Z" fill="#7FA632"/>
<path d="M331.98 148.12C333.234 148.361 334.341 149.09 335.059 150.146C335.777 151.202 336.047 152.5 335.81 153.755C335.688 154.406 335.428 155.023 335.047 155.565C333.867 154.063 332.177 153.046 330.297 152.707C328.93 152.438 327.512 152.64 326.275 153.282C326.234 152.836 326.256 152.387 326.342 151.947C326.46 151.325 326.699 150.733 327.047 150.204C327.394 149.674 327.843 149.219 328.366 148.863C328.89 148.508 329.479 148.259 330.099 148.131C330.719 148.004 331.358 148 331.98 148.12Z" fill="#7FA632"/>
<path d="M335.048 155.565C334.488 156.38 333.691 157.002 332.765 157.347C331.838 157.693 330.828 157.744 329.872 157.495C328.915 157.245 328.059 156.707 327.419 155.953C326.78 155.199 326.388 154.267 326.298 153.282C327.535 152.64 328.953 152.438 330.32 152.707C332.192 153.051 333.874 154.067 335.048 155.565Z" fill="#7FA632"/>
<path d="M303.951 109.717C304.958 109.909 305.887 110.395 306.618 111.114C307.35 111.834 307.851 112.754 308.06 113.758C308.268 114.763 308.174 115.806 307.789 116.757C307.404 117.708 306.745 118.524 305.897 119.1C305.048 119.677 304.048 119.988 303.022 119.996C301.996 120.004 300.991 119.707 300.134 119.144C299.277 118.58 298.606 117.775 298.207 116.83C297.807 115.885 297.697 114.842 297.891 113.835C298.152 112.488 298.936 111.298 300.072 110.527C301.207 109.755 302.602 109.465 303.951 109.717Z" fill="white"/>
<path d="M282.273 105.577C283.279 105.769 284.206 106.255 284.937 106.974C285.667 107.693 286.168 108.612 286.375 109.615C286.583 110.619 286.489 111.661 286.104 112.611C285.719 113.561 285.061 114.375 284.214 114.951C283.366 115.526 282.367 115.838 281.342 115.846C280.318 115.853 279.314 115.557 278.458 114.994C277.601 114.431 276.931 113.627 276.532 112.684C276.133 111.74 276.023 110.699 276.215 109.692C276.473 108.344 277.256 107.153 278.392 106.381C279.528 105.609 280.924 105.32 282.273 105.577Z" fill="white"/>
<path d="M265.465 329.218L280.87 410.878L268.635 413.185L253.237 331.525L265.465 329.218Z" fill="#DBFF93"/>
<path d="M267.34 152.47C268.595 152.711 269.703 153.44 270.421 154.497C271.139 155.554 271.409 156.852 271.17 158.108C271.121 158.363 271.05 158.614 270.958 158.858C269.867 157.48 268.293 156.57 266.555 156.313C264.882 156.053 263.169 156.288 261.628 156.99C261.638 156.758 261.664 156.526 261.705 156.298C261.946 155.043 262.674 153.935 263.731 153.218C264.788 152.5 266.086 152.231 267.34 152.47Z" fill="#7FA632"/>
<path d="M266.555 156.315C268.293 156.573 269.867 157.483 270.957 158.86C270.561 159.938 269.793 160.839 268.791 161.4C267.789 161.961 266.619 162.146 265.493 161.92C264.367 161.695 263.358 161.074 262.65 160.171C261.941 159.267 261.578 158.14 261.627 156.992C263.169 156.291 264.882 156.055 266.555 156.315Z" fill="#7FA632"/>
<path d="M244.884 287.258L257.116 284.95L265.471 329.239L253.239 331.547L244.884 287.258Z" fill="white"/>
<path d="M260.605 101.438C261.611 101.629 262.538 102.115 263.269 102.834C263.999 103.553 264.5 104.472 264.707 105.476C264.915 106.479 264.821 107.521 264.436 108.471C264.051 109.421 263.393 110.235 262.546 110.811C261.698 111.387 260.699 111.698 259.674 111.706C258.65 111.714 257.646 111.417 256.79 110.854C255.933 110.291 255.263 109.487 254.864 108.544C254.465 107.6 254.355 106.559 254.547 105.553C254.807 104.205 255.591 103.015 256.726 102.244C257.861 101.472 259.256 101.182 260.605 101.438Z" fill="white"/>
<path d="M239.792 383.152L246.255 417.402V417.41L234.027 419.71L227.562 385.457L239.792 383.152Z" fill="#DBFF93"/>
<path d="M210.277 293.781L222.509 291.474L239.808 383.164L227.576 385.471L210.277 293.781Z" fill="white"/>
<path d="M200.023 362.312L211.643 423.935L199.413 426.242L187.785 364.62L200.013 362.312H200.023Z" fill="#DBFF93"/>
<path d="M187.888 297.985L200.023 362.312H200.013L187.785 364.62L175.65 300.292L187.888 297.985Z" fill="white"/>
<path d="M183.94 99.9673C187.65 114.023 186.595 128.912 180.94 142.305C171.206 164.934 168.632 190 173.563 214.135L173.825 215.405C174.489 218.547 173.927 221.825 172.254 224.567C170.581 227.308 167.924 229.307 164.826 230.155L162.753 230.695L162.728 230.602L137.85 135.655C136.043 145.355 130.565 145.305 125.925 141.89C128.953 135.045 128.335 123.975 122.038 125.622C115.32 127.372 119.91 137.462 125.925 141.89C123.568 147.232 118.988 150.002 113.175 142.12L138.048 237.08L138.073 237.165L136.468 237.587C135.464 237.837 134.435 237.964 133.4 237.967C130.722 237.961 128.114 237.102 125.957 235.515C123.799 233.927 122.203 231.693 121.4 229.137C113.882 205.257 99.2288 184.252 79.413 168.95C71.1115 162.505 64.4655 154.175 60.026 144.649C55.5865 135.123 53.4812 124.676 53.8847 114.174C54.2882 103.673 57.1889 93.4183 62.3463 84.2612C67.5037 75.1042 74.7693 67.3082 83.5408 61.5194C92.3124 55.7307 102.337 52.1158 112.785 50.9746C123.232 49.8333 133.801 51.1985 143.616 54.9569C153.43 58.7154 162.207 64.7589 169.22 72.5865C176.233 80.4141 181.279 89.8004 183.94 99.9673Z" fill="white"/>
<path d="M177.56 246.588C177.775 247.392 177.827 248.231 177.716 249.056C177.604 249.881 177.33 250.676 176.91 251.395C176.49 252.114 175.932 252.742 175.268 253.244C174.604 253.746 173.847 254.112 173.04 254.32L141.61 262.55C140.805 262.761 139.967 262.81 139.142 262.697C138.318 262.583 137.524 262.308 136.806 261.887C136.088 261.466 135.459 260.908 134.957 260.245C134.455 259.581 134.088 258.825 133.878 258.02C133.739 257.496 133.668 256.957 133.668 256.415C133.67 255.015 134.135 253.654 134.991 252.546C135.847 251.437 137.046 250.643 138.4 250.288L169.828 242.058C171.202 241.699 172.656 241.809 173.96 242.37C174.842 242.753 175.624 243.331 176.248 244.062C176.872 244.793 177.321 245.657 177.56 246.588Z" fill="#DBFF93"/>
<path d="M162.205 419.025L174.437 416.719L177.032 430.479L164.8 432.785L162.205 419.025Z" fill="#DBFF93"/>
<path d="M174.443 254.057C174.715 255.109 174.854 256.191 174.855 257.277C174.851 260.078 173.921 262.798 172.208 265.014C170.496 267.23 168.099 268.817 165.39 269.527L154.785 272.3C153.175 272.723 151.497 272.825 149.847 272.599C148.198 272.373 146.609 271.824 145.172 270.984C143.735 270.143 142.477 269.027 141.472 267.7C140.467 266.373 139.733 264.861 139.312 263.25L174.443 254.057Z" fill="#DBFF93"/>
<path d="M153.273 304.518L174.433 416.71L162.205 419.018L141.035 306.825L153.273 304.518Z" fill="white"/>
<path d="M174.333 234.223C174.466 234.748 174.534 235.288 174.535 235.83C174.535 237.232 174.071 238.595 173.215 239.705C172.359 240.815 171.159 241.61 169.802 241.965L138.375 250.195C137.418 250.449 136.414 250.472 135.446 250.264C134.478 250.055 133.573 249.62 132.805 248.995C132.068 248.398 131.474 247.645 131.064 246.791C130.655 245.936 130.441 245 130.438 244.053C130.44 242.652 130.905 241.292 131.761 240.183C132.617 239.075 133.816 238.281 135.17 237.925L136.473 237.588L138.077 237.165L162.752 230.708L164.825 230.168L166.598 229.703C168.223 229.278 169.949 229.516 171.4 230.363C172.85 231.211 173.904 232.599 174.333 234.223Z" fill="#DBFF93"/>
<path d="M162.72 230.615L162.745 230.708L138.07 237.165L138.045 237.08L113.173 142.12C118.988 150.003 123.568 147.233 125.923 141.89C130.563 145.305 136.04 145.355 137.848 135.655L162.72 230.615Z" fill="white"/>
<path d="M122.037 125.623C128.335 123.975 128.952 135.045 125.925 141.89C119.91 137.463 115.32 127.38 122.037 125.623Z" fill="white"/>
<path d="M109.963 344.192C111.483 352.261 109.736 360.603 105.107 367.384C100.478 374.166 93.3458 378.831 85.2778 380.355L83.6729 371.827C87.8267 371.045 91.6723 369.097 94.7608 366.211C97.8492 363.325 100.053 359.62 101.115 355.528C102.178 351.437 102.055 347.128 100.76 343.104C99.4658 339.08 97.0537 335.507 93.8053 332.802L99.6353 326.387C105.018 330.962 108.665 337.249 109.963 344.192Z" fill="#DBFF93"/>
<path d="M99.6347 326.387L93.8047 332.802C90.1152 329.72 85.5274 327.914 80.7267 327.654C75.9261 327.395 71.1703 328.695 67.1697 331.362C63.1692 334.028 60.1387 337.917 58.531 342.448C56.9233 346.979 56.8246 351.908 58.2497 356.5L58.1122 356.542L49.6972 358.132C49.4672 357.32 49.2822 356.5 49.1222 355.665C47.9325 349.369 48.7261 342.859 51.3935 337.033C54.0609 331.207 58.4705 326.352 64.0141 323.139C69.5576 319.926 75.9618 318.512 82.3429 319.093C88.724 319.674 94.7676 322.221 99.6397 326.382L99.6347 326.387Z" fill="white"/>
<path d="M91.9876 432.267L94.5826 446.017L71.4026 450.395L68.8076 436.635L91.9876 432.267Z" fill="#7FA632"/>
<path d="M88.125 411.765L90.72 425.515L67.53 429.892L64.9375 416.135L88.125 411.765Z" fill="#7FA632"/>
<path d="M87.0699 271.83C87.295 273.035 87.1581 274.279 86.6763 275.406C86.1946 276.533 85.3897 277.492 84.3634 278.161C83.337 278.831 82.1352 279.182 80.9097 279.169C79.6843 279.156 78.4902 278.78 77.4782 278.088C76.4663 277.397 75.6819 276.422 75.2241 275.285C74.7664 274.148 74.6558 272.901 74.9064 271.701C75.1569 270.502 75.7574 269.403 76.632 268.545C77.5065 267.686 78.6158 267.106 79.8199 266.878C80.6212 266.726 81.4444 266.734 82.2425 266.901C83.0407 267.068 83.7981 267.391 84.4714 267.851C85.1447 268.311 85.7208 268.899 86.1667 269.582C86.6125 270.265 86.9195 271.029 87.0699 271.83Z" fill="white"/>
<path d="M84.2549 391.265L86.8499 405.012L63.6599 409.39L61.0674 395.632L84.2549 391.265Z" fill="#7FA632"/>
<path d="M83.6724 371.827L85.2774 380.355C77.6399 381.795 69.7403 380.309 63.1478 376.193C56.5552 372.077 51.7521 365.631 49.6924 358.137L58.1074 356.547L58.2449 356.505C59.862 361.736 63.3475 366.189 68.037 369.014C72.7266 371.84 78.292 372.842 83.6724 371.827Z" fill="#7FA632"/>
<path d="M61.1081 276.722C61.3352 277.927 61.2001 279.172 60.7198 280.3C60.2396 281.428 59.4358 282.388 58.41 283.059C57.3842 283.73 56.1824 284.082 54.9566 284.071C53.7308 284.059 52.536 283.684 51.5231 282.994C50.5102 282.303 49.7247 281.328 49.266 280.191C48.8072 279.054 48.6957 277.807 48.9456 276.607C49.1955 275.407 49.7956 274.308 50.67 273.449C51.5444 272.589 52.6538 272.009 53.8581 271.78C54.6587 271.628 55.4814 271.636 56.2791 271.802C57.0768 271.968 57.8339 272.29 58.5072 272.749C59.1805 273.208 59.7567 273.795 60.203 274.477C60.6493 275.159 60.9569 275.922 61.1081 276.722Z" fill="white"/>
<path d="M35.148 281.625C35.3731 282.83 35.2362 284.074 34.7545 285.201C34.2728 286.328 33.4679 287.287 32.4415 287.956C31.4151 288.626 30.2133 288.977 28.9879 288.964C27.7624 288.951 26.5683 288.575 25.5563 287.884C24.5444 287.192 23.76 286.217 23.3022 285.08C22.8445 283.943 22.7339 282.696 22.9845 281.496C23.2351 280.297 23.8355 279.198 24.7101 278.34C25.5846 277.481 26.694 276.901 27.898 276.673C28.6994 276.521 29.5228 276.528 30.3212 276.695C31.1196 276.862 31.8772 277.184 32.5507 277.644C33.2242 278.104 33.8003 278.693 34.246 279.376C34.6917 280.059 34.9982 280.823 35.148 281.625Z" fill="white"/>
<path d="M164.817 230.167C167.915 229.32 170.573 227.321 172.246 224.579C173.919 221.837 174.481 218.56 173.817 215.417L173.555 214.147C168.623 190.012 171.198 164.946 180.932 142.317C185.71 130.939 187.209 118.452 185.259 106.266C183.31 94.081 177.989 82.6844 169.9 73.3654C161.81 64.0464 151.274 57.177 139.484 53.534C127.693 49.8911 115.119 49.6199 103.183 52.7513C91.2461 55.8827 80.424 62.2916 71.9403 71.2532C63.4566 80.2148 57.6498 91.3715 55.1766 103.462C52.7034 115.551 53.6626 128.092 57.9456 139.666C62.2286 151.239 69.6646 161.383 79.4124 168.95C99.2236 184.254 113.872 205.258 121.387 229.137C122.19 231.693 123.786 233.927 125.944 235.515C128.101 237.102 130.709 237.961 133.387 237.967C134.421 237.964 135.451 237.837 136.455 237.587" stroke="#7FA632" stroke-width="1.352" stroke-linecap="round" stroke-linejoin="round"/>
<path d="M132.797 249C132.061 248.403 131.466 247.65 131.056 246.795C130.647 245.941 130.433 245.005 130.43 244.057C130.432 242.657 130.897 241.297 131.753 240.188C132.609 239.08 133.808 238.286 135.162 237.93L136.465 237.592L138.07 237.17L162.745 230.712L164.817 230.172L166.59 229.707C167.395 229.495 168.235 229.444 169.061 229.556C169.886 229.668 170.681 229.942 171.401 230.362C172.121 230.782 172.751 231.339 173.255 232.002C173.759 232.666 174.128 233.422 174.34 234.227C174.473 234.753 174.541 235.293 174.542 235.835C174.543 237.237 174.078 238.599 173.222 239.709C172.366 240.82 171.166 241.614 169.81 241.97L138.375 250.195C137.417 250.449 136.414 250.472 135.446 250.264C134.478 250.055 133.573 249.62 132.805 248.995" stroke="#7FA632" stroke-width="1.352" stroke-linecap="round" stroke-linejoin="round"/>
<path d="M137.851 135.655L162.721 230.615" stroke="#7FA632" stroke-width="1.352" stroke-linecap="round" stroke-linejoin="round"/>
<path d="M125.925 141.89C130.565 145.305 136.042 145.355 137.85 135.655" stroke="#7FA632" stroke-width="1.352" stroke-linecap="round" stroke-linejoin="round"/>
<path d="M125.925 141.89C128.952 135.045 128.335 123.975 122.037 125.623C115.32 127.38 119.91 137.463 125.925 141.89Z" stroke="#7FA632" stroke-width="1.352" stroke-linecap="round" stroke-linejoin="round"/>
<path d="M138.045 237.08L113.173 142.12C118.988 150.002 123.568 147.232 125.923 141.89" stroke="#7FA632" stroke-width="1.352" stroke-linecap="round" stroke-linejoin="round"/>
<path d="M173.96 242.37C175.169 242.896 176.184 243.786 176.864 244.915C177.543 246.045 177.854 247.358 177.753 248.672C177.652 249.987 177.144 251.237 176.299 252.249C175.454 253.261 174.316 253.985 173.04 254.32L141.61 262.55C140.805 262.761 139.967 262.81 139.142 262.697C138.318 262.583 137.524 262.308 136.806 261.887C136.088 261.466 135.459 260.908 134.957 260.245C134.455 259.581 134.088 258.825 133.878 258.02C133.739 257.496 133.668 256.957 133.668 256.415C133.67 255.015 134.135 253.654 134.991 252.546C135.847 251.437 137.046 250.643 138.4 250.288L169.828 242.058C171.202 241.699 172.656 241.809 173.96 242.37Z" stroke="#7FA632" stroke-width="1.352" stroke-linecap="round" stroke-linejoin="round"/>
<path d="M165.39 269.53L154.785 272.302C153.175 272.726 151.497 272.827 149.847 272.602C148.198 272.376 146.609 271.827 145.172 270.986C143.735 270.146 142.477 269.03 141.472 267.703C140.467 266.376 139.733 264.863 139.312 263.252L174.443 254.057C174.715 255.109 174.854 256.191 174.855 257.277C174.852 260.078 173.921 262.799 172.209 265.016C170.497 267.232 168.099 268.819 165.39 269.53Z" stroke="#7FA632" stroke-width="1.352" stroke-linecap="round" stroke-linejoin="round"/>
<path d="M450.925 240.3C466.757 249.541 478.381 264.57 483.346 282.216C488.311 299.862 486.23 318.746 477.541 334.887C468.852 351.028 454.234 363.164 436.77 368.736C419.306 374.308 400.361 372.88 383.929 364.753C367.497 356.627 354.864 342.437 348.692 325.176C342.521 307.914 343.294 288.931 350.848 272.229C358.402 255.526 372.148 242.41 389.185 235.646C406.223 228.883 425.222 228.999 442.175 235.972C445.189 237.206 448.113 238.65 450.925 240.292" stroke="#7FA632" stroke-width="1.352" stroke-linecap="round" stroke-linejoin="round"/>
<path d="M173.598 241.305L173.758 241.273L222.603 232.06" stroke="#7FA632" stroke-width="1.352" stroke-linecap="round" stroke-linejoin="round"/>
<path d="M300.063 281.895L327.45 427.112L50.5377 479.355L11.4102 271.897L132.798 248.995H132.805" stroke="#7FA632" stroke-width="1.352" stroke-linecap="round" stroke-linejoin="round"/>
<path d="M46.2275 297.343L210.923 266.27" stroke="#7FA632" stroke-width="1.352" stroke-linecap="round" stroke-linejoin="round"/>
<path d="M35.148 281.625C35.3731 282.83 35.2362 284.074 34.7545 285.201C34.2728 286.328 33.4679 287.287 32.4415 287.956C31.4151 288.626 30.2133 288.977 28.9879 288.964C27.7624 288.951 26.5683 288.575 25.5563 287.884C24.5444 287.192 23.76 286.217 23.3022 285.08C22.8445 283.943 22.7339 282.696 22.9845 281.496C23.2351 280.297 23.8355 279.198 24.7101 278.34C25.5846 277.481 26.694 276.901 27.898 276.673C28.6994 276.521 29.5228 276.528 30.3212 276.695C31.1196 276.862 31.8772 277.184 32.5507 277.644C33.2242 278.104 33.8003 278.693 34.246 279.376C34.6917 280.059 34.9982 280.823 35.148 281.625Z" stroke="#7FA632" stroke-width="1.352" stroke-linecap="round" stroke-linejoin="round"/>
<path d="M61.1081 276.722C61.3352 277.927 61.2001 279.172 60.7198 280.3C60.2396 281.428 59.4358 282.388 58.41 283.059C57.3842 283.73 56.1824 284.082 54.9566 284.071C53.7308 284.059 52.536 283.684 51.5231 282.994C50.5102 282.303 49.7247 281.328 49.266 280.191C48.8072 279.054 48.6957 277.807 48.9456 276.607C49.1955 275.407 49.7956 274.308 50.67 273.449C51.5444 272.589 52.6538 272.009 53.8581 271.78C54.6587 271.628 55.4814 271.636 56.2791 271.802C57.0768 271.968 57.8339 272.29 58.5072 272.749C59.1805 273.208 59.7567 273.795 60.203 274.477C60.6493 275.159 60.9569 275.922 61.1081 276.722Z" stroke="#7FA632" stroke-width="1.352" stroke-linecap="round" stroke-linejoin="round"/>
<path d="M87.0699 271.83C87.295 273.035 87.1581 274.279 86.6763 275.406C86.1946 276.533 85.3897 277.492 84.3634 278.161C83.337 278.831 82.1352 279.182 80.9097 279.169C79.6843 279.156 78.4902 278.78 77.4782 278.088C76.4663 277.397 75.6819 276.422 75.2241 275.285C74.7664 274.148 74.6558 272.901 74.9064 271.701C75.1569 270.502 75.7574 269.403 76.632 268.545C77.5065 267.686 78.6158 267.106 79.8199 266.878C80.6212 266.726 81.4444 266.734 82.2425 266.901C83.0407 267.068 83.7981 267.391 84.4714 267.851C85.1447 268.311 85.7208 268.899 86.1667 269.582C86.6125 270.265 86.9195 271.029 87.0699 271.83Z" stroke="#7FA632" stroke-width="1.352" stroke-linecap="round" stroke-linejoin="round"/>
<path d="M344.538 290.395L300.063 281.895L216.146 265.855L222.603 232.06L223.441 227.717L249.248 92.6724L471.038 135.07L450.925 240.292V240.3" stroke="#7FA632" stroke-width="1.352" stroke-linecap="round" stroke-linejoin="round"/>
<path d="M269.285 121.135L445.745 154.863" stroke="#7FA632" stroke-width="1.352" stroke-linecap="round" stroke-linejoin="round"/>
<path d="M264.72 107.5C264.528 108.506 264.042 109.432 263.323 110.161C262.605 110.891 261.686 111.391 260.683 111.598C259.68 111.806 258.639 111.711 257.69 111.326C256.741 110.942 255.927 110.284 255.352 109.437C254.776 108.59 254.465 107.592 254.457 106.568C254.449 105.544 254.745 104.541 255.307 103.685C255.87 102.829 256.673 102.159 257.616 101.76C258.559 101.361 259.599 101.25 260.605 101.442C261.273 101.57 261.909 101.828 262.478 102.201C263.046 102.574 263.535 103.056 263.917 103.619C264.299 104.181 264.567 104.813 264.705 105.479C264.842 106.145 264.848 106.832 264.72 107.5Z" stroke="#7FA632" stroke-width="1.352" stroke-linecap="round" stroke-linejoin="round"/>
<path d="M286.39 111.637C286.198 112.644 285.712 113.57 284.993 114.3C284.274 115.03 283.355 115.531 282.352 115.738C281.349 115.946 280.306 115.851 279.357 115.466C278.407 115.082 277.593 114.424 277.018 113.577C276.442 112.729 276.13 111.73 276.122 110.706C276.114 109.681 276.41 108.678 276.973 107.821C277.535 106.965 278.339 106.295 279.282 105.896C280.226 105.496 281.266 105.385 282.273 105.577C282.941 105.704 283.579 105.961 284.148 106.334C284.717 106.708 285.207 107.19 285.589 107.753C285.972 108.316 286.239 108.949 286.377 109.615C286.514 110.282 286.519 110.969 286.39 111.637Z" stroke="#7FA632" stroke-width="1.352" stroke-linecap="round" stroke-linejoin="round"/>
<path d="M308.065 115.787C307.871 116.793 307.383 117.718 306.663 118.447C305.943 119.175 305.024 119.674 304.021 119.88C303.018 120.086 301.976 119.99 301.027 119.604C300.079 119.218 299.266 118.56 298.691 117.712C298.117 116.865 297.806 115.866 297.799 114.842C297.792 113.818 298.088 112.814 298.651 111.959C299.214 111.103 300.018 110.434 300.961 110.035C301.904 109.636 302.944 109.525 303.95 109.717C305.3 109.978 306.492 110.763 307.263 111.901C308.035 113.039 308.323 114.437 308.065 115.787Z" stroke="#7FA632" stroke-width="1.352" stroke-linecap="round" stroke-linejoin="round"/>
<path d="M441.072 219.265C442.965 222.08 443.405 227.04 442.187 235.972" stroke="#7FA632" stroke-width="1.352" stroke-linecap="round" stroke-linejoin="round"/>
<path d="M423.485 230.615C425.945 223.77 428.388 218.065 432.113 216.393" stroke="#7FA632" stroke-width="1.352" stroke-linecap="round" stroke-linejoin="round"/>
<path d="M379.38 190.22C384.95 198.155 378.63 221.885 379.66 239.97" stroke="#7FA632" stroke-width="1.352" stroke-linecap="round" stroke-linejoin="round"/>
<path d="M335.048 155.565C347.328 170.75 322.798 237.975 339.351 240.655C355.788 243.307 357.851 196.102 370.476 188.53" stroke="#7FA632" stroke-width="1.352" stroke-linecap="round" stroke-linejoin="round"/>
<path d="M270.958 158.86C283.583 174.3 255.045 252.13 280.82 256.45C307.07 260.852 308.07 162.492 326.285 153.282" stroke="#7FA632" stroke-width="1.352" stroke-linecap="round" stroke-linejoin="round"/>
<path d="M223.44 227.717C233.86 229.102 243.748 164.835 261.628 156.992" stroke="#7FA632" stroke-width="1.352" stroke-linecap="round" stroke-linejoin="round"/>
<path d="M99.6348 326.387C103.319 329.531 106.213 333.495 108.087 337.962C109.96 342.428 110.759 347.271 110.419 352.102C110.08 356.933 108.612 361.617 106.134 365.777C103.655 369.938 100.235 373.459 96.1477 376.057C92.0608 378.655 87.4212 380.258 82.6021 380.737C77.7829 381.216 72.9186 380.558 68.4002 378.815C63.8818 377.072 59.8353 374.293 56.5862 370.702C53.337 367.111 50.9758 362.807 49.6923 358.138C49.4623 357.325 49.2773 356.505 49.1173 355.67C47.9276 349.374 48.7212 342.864 51.3886 337.038C54.056 331.212 58.4657 326.357 64.0092 323.144C69.5527 319.931 75.9569 318.517 82.338 319.098C88.7192 319.679 94.7627 322.226 99.6348 326.387Z" stroke="#7FA632" stroke-width="1.352" stroke-linecap="round" stroke-linejoin="round"/>
<path d="M93.8053 332.802C97.6985 336.044 100.371 340.516 101.384 345.48C102.396 350.444 101.687 355.605 99.3738 360.112C97.0607 364.619 93.2812 368.204 88.6581 370.276C84.035 372.348 78.8439 372.784 73.9402 371.511C69.0364 370.238 64.7125 367.333 61.6806 363.274C58.6487 359.215 57.0898 354.245 57.2607 349.182C57.4316 344.118 59.3221 339.264 62.6207 335.419C65.9194 331.574 70.4294 328.967 75.4078 328.027C78.6365 327.409 81.9624 327.517 85.1444 328.343C88.3264 329.168 91.2848 330.692 93.8053 332.802Z" stroke="#7FA632" stroke-width="1.352" stroke-linecap="round" stroke-linejoin="round"/>
<path d="M83.6729 371.827L85.2778 380.355" stroke="#7FA632" stroke-width="1.352" stroke-linecap="round" stroke-linejoin="round"/>
<path d="M93.8047 332.802L99.6347 326.387" stroke="#7FA632" stroke-width="1.352" stroke-linecap="round" stroke-linejoin="round"/>
<path d="M58.1073 356.547L49.6923 358.137L49.5898 358.155" stroke="#7FA632" stroke-width="1.352" stroke-linecap="round" stroke-linejoin="round"/>
<path d="M280.87 410.877L306.383 406.062L283.135 282.815" stroke="#7FA632" stroke-width="1.352" stroke-linecap="round" stroke-linejoin="round"/>
<path d="M246.255 417.403L268.635 413.185" stroke="#7FA632" stroke-width="1.352" stroke-linecap="round" stroke-linejoin="round"/>
<path d="M234.027 419.71L246.255 417.41" stroke="#7FA632" stroke-width="1.352" stroke-linecap="round" stroke-linejoin="round"/>
<path d="M211.643 423.935L234.028 419.717" stroke="#7FA632" stroke-width="1.352" stroke-linecap="round" stroke-linejoin="round"/>
<path d="M177.027 430.467L199.412 426.242" stroke="#7FA632" stroke-width="1.352" stroke-linecap="round" stroke-linejoin="round"/>
<path d="M141.646 437.142L164.801 432.775" stroke="#7FA632" stroke-width="1.352" stroke-linecap="round" stroke-linejoin="round"/>
<path d="M86.8499 405.012L63.6599 409.39L61.0674 395.632L84.2549 391.265L86.8499 405.012Z" stroke="#7FA632" stroke-width="1.352" stroke-linecap="round" stroke-linejoin="round"/>
<path d="M90.72 425.515L67.53 429.892L64.9375 416.135L88.125 411.765L90.72 425.515Z" stroke="#7FA632" stroke-width="1.352" stroke-linecap="round" stroke-linejoin="round"/>
<path d="M94.5826 446.017L71.4026 450.395L68.8076 436.635L91.9876 432.267L94.5826 446.017Z" stroke="#7FA632" stroke-width="1.352" stroke-linecap="round" stroke-linejoin="round"/>
<path d="M177.028 430.468L164.8 432.775L162.205 419.018L141.035 306.825L153.273 304.518L174.433 416.71L177.028 430.468Z" stroke="#7FA632" stroke-width="1.352" stroke-linecap="round" stroke-linejoin="round"/>
<path d="M211.643 423.935L199.413 426.242L187.785 364.62L175.65 300.292L187.888 297.985L200.023 362.312L211.643 423.935Z" stroke="#7FA632" stroke-width="1.352" stroke-linecap="round" stroke-linejoin="round"/>
<path d="M246.256 417.41L234.028 419.717V419.71L227.563 385.457L210.266 293.767L222.493 291.46L239.793 383.152L246.256 417.402V417.41Z" stroke="#7FA632" stroke-width="1.352" stroke-linecap="round" stroke-linejoin="round"/>
<path d="M280.87 410.877L268.635 413.185L253.238 331.525L244.878 287.235L257.108 284.927L265.465 329.217L280.87 410.877Z" stroke="#7FA632" stroke-width="1.352" stroke-linecap="round" stroke-linejoin="round"/>
<path d="M162.205 419.017L174.433 416.71" stroke="#7FA632" stroke-width="1.352" stroke-linecap="round" stroke-linejoin="round"/>
<path d="M187.785 364.62L200.013 362.312" stroke="#7FA632" stroke-width="1.352" stroke-linecap="round" stroke-linejoin="round"/>
<path d="M227.562 385.457L239.792 383.152" stroke="#7FA632" stroke-width="1.352" stroke-linecap="round" stroke-linejoin="round"/>
<path d="M253.237 331.525L265.465 329.218" stroke="#7FA632" stroke-width="1.352" stroke-linecap="round" stroke-linejoin="round"/>
<path d="M465.495 251.53L415 302.025L364.508 352.518" stroke="#7FA632" stroke-width="1.352" stroke-linecap="round" stroke-linejoin="round"/>
<path d="M364.508 251.53L415 302.025" stroke="#7FA632" stroke-width="1.352" stroke-linecap="round" stroke-linejoin="round"/>
<path d="M99.0602 41.725L92.9502 19.075" stroke="#7FA632" stroke-width="1.352" stroke-linecap="round" stroke-linejoin="round"/>
<path d="M125.538 41.725L128.006 21.4175" stroke="#7FA632" stroke-width="1.352" stroke-linecap="round" stroke-linejoin="round"/>
<path d="M75.6849 57.3074L62.2324 41.7249" stroke="#7FA632" stroke-width="1.352" stroke-linecap="round" stroke-linejoin="round"/>
</svg>
