<svg width="499" height="500" viewBox="0 0 499 500" fill="none" xmlns="http://www.w3.org/2000/svg">
<rect x="158.355" y="66.4469" width="106.578" height="137.167" transform="rotate(-12 158.355 66.4469)" fill="white"/>
<path d="M217.532 306.5C217.25 305.241 217.258 303.933 217.556 302.678C219.88 292.365 219.528 277.148 221.849 264.775C224.17 252.403 231.821 253.795 240.279 250.83C245.679 248.93 250.732 246.01 256.483 243.33C259.909 241.689 263.455 240.314 267.09 239.215C277.86 236.035 304.893 247.465 317.986 249.568C321.079 250.061 324.128 250.805 327.102 251.793L327.162 251.613C327.162 251.613 386.872 210.568 402.483 199.328C418.093 188.088 450.139 165.265 450.139 165.265L486.638 249.565C486.638 249.565 414.977 297.065 404.372 306.43C393.767 315.795 370.444 327.697 370.444 327.697L370.254 327.653C368.831 334.193 364.094 341.653 351.036 349.048L350.249 349.323C348.088 344.336 345.356 339.619 342.107 335.267C329.084 311.242 275.97 275.643 271.378 276.408C266.786 277.173 254.105 278.848 254.105 278.848C253.173 281.658 249.274 283.23 249.274 283.23H248.94C249.003 291.729 246.092 299.982 240.713 306.55C232.217 317.3 219.279 314.25 217.532 306.5Z" fill="white"/>
<path d="M365.263 95.03C366.098 98.8626 366.421 102.79 366.223 106.707C366.183 107.393 365.999 108.063 365.683 108.672C365.367 109.282 364.927 109.818 364.391 110.246C363.855 110.674 363.236 110.984 362.572 111.155C361.909 111.327 361.217 111.357 360.542 111.242L342.797 108.305C341.71 108.13 340.714 107.59 339.974 106.772C339.234 105.954 338.794 104.907 338.726 103.805C338.656 100.876 337.602 98.0575 335.735 95.805C334.972 94.9162 334.116 94.1124 333.182 93.4075L328.077 124.435L335.368 128.86C345.4 134.79 351.846 141.67 354.706 149.5C357.566 157.321 358.325 165.759 356.905 173.967C356.006 179.747 353.96 185.287 350.889 190.26C347.962 194.997 344.185 199.15 339.751 202.51C335.263 205.879 330.134 208.291 324.681 209.597C321.142 210.468 317.503 210.87 313.86 210.792L311.417 225.65C311.281 226.473 310.985 227.261 310.545 227.97C310.106 228.678 309.532 229.293 308.855 229.778C308.179 230.264 307.414 230.611 306.604 230.801C305.794 230.99 304.954 231.017 304.134 230.881C303.313 230.745 302.527 230.448 301.821 230.008C301.114 229.567 300.501 228.991 300.017 228.313C299.533 227.635 299.186 226.867 298.997 226.055C298.809 225.242 298.781 224.401 298.917 223.577L301.333 208.902C292.616 206.58 284.911 201.432 279.415 194.26C276.74 190.873 274.644 187.063 273.213 182.987C272.766 181.756 272.374 180.504 272.039 179.237C271.145 175.875 270.667 172.415 270.615 168.935C270.59 167.804 270.813 166.682 271.268 165.648C271.724 164.613 272.401 163.692 273.252 162.95C274.103 162.208 275.106 161.663 276.191 161.353C277.275 161.044 278.414 160.978 279.527 161.16L287.024 162.41L292.343 163.287C293.919 163.554 295.372 164.306 296.501 165.44C297.63 166.574 298.379 168.032 298.643 169.612C299.014 171.8 299.647 173.934 300.528 175.97C301.574 178.375 303.477 180.302 305.865 181.375L311.624 146.375L305.259 142.75C297.365 138.434 290.849 131.968 286.463 124.097C282.335 116.189 281.021 107.106 282.736 98.3475C283.637 92.5562 285.731 87.0168 288.886 82.0825C291.89 77.3834 295.807 73.3389 300.403 70.19C304.792 67.0395 309.792 64.8474 315.079 63.755C318.459 63.0475 321.911 62.7445 325.362 62.8525L327.511 49.785C327.785 48.1224 328.706 46.637 330.071 45.6555C330.748 45.1695 331.513 44.8218 332.323 44.6323C333.133 44.4429 333.973 44.4153 334.794 44.5512C335.615 44.6872 336.401 44.9839 337.107 45.4245C337.814 45.8651 338.427 46.441 338.912 47.1192C339.396 47.7974 339.743 48.5647 339.932 49.3773C340.121 50.1898 340.148 51.0318 340.013 51.855L337.871 64.89C341.3 65.9204 344.578 67.3998 347.621 69.29C352.142 72.0734 356.024 75.7868 359.009 80.185C362.021 84.6867 364.144 89.7261 365.263 95.03ZM329.732 170.05C330.427 166.426 329.925 162.674 328.301 159.362C327.054 157.09 325.339 155.11 323.27 153.552L318.491 182.577C320.04 182.141 321.525 181.506 322.911 180.688C324.789 179.562 326.382 178.016 327.565 176.171C328.748 174.325 329.49 172.23 329.732 170.05ZM316.407 117.25L320.82 90.45C318.731 90.8113 316.779 91.735 315.173 93.1225C312.315 95.5137 310.423 98.8681 309.854 102.557C309.422 105.275 309.66 108.056 310.547 110.66C311.769 113.414 313.818 115.718 316.407 117.25Z" fill="#DBFF94"/>
<path d="M217.532 306.5C219.277 314.25 232.217 317.293 240.701 306.553C246.079 299.984 248.991 291.732 248.927 283.232H249.261C249.261 283.232 253.16 281.66 254.093 278.85C254.093 278.85 266.764 277.175 271.366 276.41C275.968 275.645 329.072 311.245 342.094 335.27C345.344 339.622 348.076 344.339 350.236 349.325C351.65 352.987 352.188 356.475 350.486 358.495C344.615 365.495 337.435 363.435 332.397 357.617C332.148 357.335 331.898 357.033 331.649 356.725C326.584 350.238 313.586 334.4 313.586 334.4L302.739 327.65C305.269 330.024 307.644 332.559 309.851 335.237C312.755 339.207 324.178 350.902 329.308 358.92C330.627 360.655 331.494 362.692 331.829 364.847C331.721 366.424 331.24 367.951 330.426 369.304C329.612 370.657 328.489 371.796 327.149 372.626C325.809 373.457 324.29 373.956 322.72 374.081C321.15 374.207 319.572 373.955 318.118 373.348C317.937 373.273 317.764 373.181 317.602 373.073C313.259 370.375 291.882 351.145 288.564 348.01C287.902 346.774 286.989 345.691 285.884 344.83C285.217 344.291 284.505 343.808 283.758 343.387L283.726 343.36C278.104 340.155 271.952 341.36 266.639 345.525C260.778 350.14 263.349 347.415 260.813 350.062C260.596 347.981 259.708 346.026 258.286 344.495C253.033 338.583 245.913 338.29 239.212 341.907C234.041 344.889 229.051 348.177 224.27 351.755L204.768 353.628L204.598 353.595C205.076 350.115 204.323 346.577 202.472 343.595C198.234 337.185 191.875 337.845 188.524 338.045C187.975 338.081 187.431 338.18 186.904 338.338L186.861 338.045C184.265 336.764 181.75 335.323 179.33 333.73C176.176 331.739 173.053 329.697 169.965 327.605C166.933 325.56 164.757 324.048 164.757 324.048C164.962 299.256 166.761 274.504 170.144 249.945L174.541 251.655C181.669 254.43 195.138 259.655 196.86 260.265C197.685 260.701 198.602 260.928 199.534 260.928C200.466 260.928 201.383 260.701 202.208 260.265C204.648 259.338 233.352 244.18 239.153 242.798C244.954 241.415 256.468 243.32 256.468 243.32C250.71 246.01 245.657 248.93 240.264 250.82C231.816 253.785 224.148 252.382 221.834 264.765C219.521 277.147 219.865 292.355 217.542 302.668C217.247 303.927 217.243 305.238 217.532 306.5Z" fill="white"/>
<path d="M331.677 356.722C331.926 357.03 332.176 357.332 332.425 357.615C332.425 357.615 329.408 359.015 329.349 358.922C324.218 350.905 312.796 339.21 309.892 335.24C307.685 332.561 305.309 330.027 302.779 327.652L313.626 334.402C313.626 334.402 326.611 350.235 331.677 356.722Z" fill="white"/>
<path d="M317.631 373.073L317.041 373.94C316.819 375.107 316.329 376.205 315.609 377.148C314.889 378.092 313.96 378.853 312.895 379.372C311.382 380.326 309.689 380.954 307.922 381.216C306.155 381.479 304.352 381.372 302.629 380.9C301.084 380.149 299.593 379.291 298.167 378.332L295.886 378.082C297.038 377.015 298.056 375.811 298.92 374.497C302.16 369.017 302.048 365.622 298.473 362.77C297.13 361.496 295.477 360.597 293.679 360.165C291.881 359.732 290.001 359.781 288.228 360.305L287.849 360.073C288.041 359.753 288.208 359.419 288.347 359.072C289.201 357.364 289.666 355.486 289.709 353.576C289.752 351.665 289.372 349.768 288.596 348.022C291.912 351.145 313.279 370.375 317.631 373.073Z" fill="white"/>
<path d="M302.629 380.9C299.595 384.67 295.446 387.378 290.78 388.635C289.798 388.99 288.75 389.126 287.71 389.034C286.67 388.942 285.663 388.624 284.757 388.102L283.591 388.085C287.899 385.02 292.006 381.68 295.886 378.085L298.167 378.335C299.593 379.293 301.084 380.15 302.629 380.9Z" fill="white"/>
<path d="M298.474 362.75C302.049 365.603 302.151 369 298.92 374.477C298.057 375.791 297.038 376.995 295.886 378.063C292.007 381.657 287.9 384.998 283.591 388.063C282.16 389.103 281.245 389.738 281.245 389.738C267.141 398.048 260.886 399.893 255.84 397.513C254.277 396.886 252.875 395.913 251.74 394.666C250.605 393.419 249.766 391.931 249.286 390.312L249.037 389.745C254.699 387.257 260.185 384.384 265.455 381.145C265.455 381.145 283.903 366.752 287.842 360.042L288.221 360.275C289.996 359.75 291.878 359.703 293.677 360.137C295.477 360.572 297.131 361.473 298.474 362.75Z" fill="white"/>
<path d="M288.6 348C289.375 349.746 289.755 351.642 289.712 353.553C289.669 355.464 289.204 357.341 288.35 359.05C288.211 359.396 288.044 359.73 287.852 360.05C283.91 366.76 265.465 381.152 265.465 381.152C260.195 384.392 254.709 387.265 249.047 389.752C237.331 394.642 234.603 391.752 230.395 389.77C226.386 387.646 223.375 384.021 222.017 379.682V379.562C225.501 379.301 228.902 378.367 232.033 376.812C232.033 376.812 254.893 364.562 258.328 358.915C260.117 356.317 261.005 353.201 260.856 350.047C263.391 347.4 260.821 350.125 266.682 345.51C271.994 341.342 278.149 340.14 283.768 343.345L283.801 343.372C284.548 343.793 285.259 344.276 285.927 344.815C287.03 345.678 287.94 346.763 288.6 348Z" fill="white"/>
<path d="M224.282 351.75C229.069 348.173 234.064 344.885 239.24 341.903C245.941 338.285 253.06 338.578 258.313 344.49C259.735 346.022 260.623 347.976 260.841 350.057C260.99 353.211 260.102 356.327 258.313 358.925C254.878 364.57 232.018 376.823 232.018 376.823C228.887 378.377 225.486 379.311 222.001 379.572C215.377 379.793 208.765 378.863 202.457 376.823C195.579 375.035 192.296 362.13 192.296 362.13C194.929 361.7 197.494 360.919 199.922 359.81C201.163 359.252 202.243 358.39 203.064 357.303C203.885 356.216 204.42 354.939 204.618 353.59L204.788 353.623L224.282 351.75Z" fill="white"/>
<path d="M253.305 38.095L254.923 45.95L158.507 65.875L184.648 193.105L176.808 194.72L175.19 186.857L149.057 59.6375L245.465 39.7125L253.305 38.095Z" fill="#DBFF94"/>
<path d="M245.464 39.7125L149.056 59.6375L175.189 186.857L167.349 188.482L139.596 53.39L243.854 31.85L245.464 39.7125Z" fill="#7FA632"/>
<path d="M186.926 338.335C187.454 338.177 187.997 338.079 188.547 338.042C191.897 337.852 198.244 337.182 202.494 343.592C204.346 346.575 205.098 350.112 204.621 353.592C204.422 354.941 203.888 356.219 203.067 357.306C202.246 358.393 201.165 359.255 199.924 359.812C197.496 360.922 194.932 361.702 192.299 362.132C186.448 363.12 180.363 362.587 177.69 359.95C173.203 355.507 168.377 345.3 178.857 334.518L179.355 333.725C181.775 335.318 184.29 336.759 186.886 338.04L186.926 338.335Z" fill="white"/>
<path d="M173.063 245.63L172.968 245.707C172.876 245.583 172.757 245.481 172.62 245.408C172.483 245.335 172.332 245.293 172.178 245.286C172.023 245.279 171.869 245.306 171.726 245.365C171.583 245.425 171.455 245.515 171.35 245.63C170.692 246.981 170.291 248.444 170.166 249.942C166.783 274.501 164.984 299.254 164.779 324.045C164.889 329.757 165.343 333.522 166.26 334.03C166.832 334.426 167.537 334.58 168.222 334.457L168.257 334.57C165.704 336.272 158.891 337.13 157.039 331.727C156.581 327.347 156.547 322.932 156.936 318.545C157.819 297.295 161.272 257.295 163.169 246.335C163.27 245.381 163.507 244.447 163.872 243.56C165.918 240.87 172.824 242.417 173.063 245.63Z" fill="#DBFF94"/>
<path d="M162.708 246.25L163.179 246.337C161.277 257.31 157.824 297.307 156.946 318.547H156.697C156.697 318.547 141.927 311.897 134.421 311.002C123.539 309.715 12.9863 258.227 12.9863 258.227L55.2859 175.602L155.832 242.82L162.708 246.25Z" fill="white"/>
<path d="M450.13 165.265L486.628 249.565" stroke="white" stroke-width="1.374" stroke-linecap="round" stroke-linejoin="round"/>
<path d="M12.9766 258.217L55.2861 175.602" stroke="white" stroke-width="1.374" stroke-linecap="round" stroke-linejoin="round"/>
<path d="M362.965 436.357C336.53 453.865 305.981 464.118 274.363 466.094C242.744 468.07 211.162 461.701 182.764 447.62C154.366 433.539 130.145 412.239 112.514 385.844C94.8841 359.448 84.461 328.88 82.2842 297.185" stroke="#7FA632" stroke-width="1.374" stroke-linecap="round" stroke-linejoin="round"/>
<path d="M444.156 290.207C443.406 316.14 437.115 341.61 425.708 364.896C414.302 388.182 398.045 408.742 378.037 425.187" stroke="#7FA632" stroke-width="1.374" stroke-linecap="round" stroke-linejoin="round"/>
<path d="M342.745 407.41C323.013 420.48 300.385 428.494 276.845 430.75C253.305 433.006 229.572 429.435 207.729 420.349C185.887 411.264 166.601 396.941 151.563 378.639C136.526 360.337 126.197 338.614 121.482 315.375" stroke="#7FA632" stroke-width="1.374" stroke-linecap="round" stroke-linejoin="round"/>
<path d="M405.052 313.5C398.748 346.87 380.949 376.957 354.766 398.5" stroke="#7FA632" stroke-width="1.374" stroke-linecap="round" stroke-linejoin="round"/>
<path d="M360.216 179.82C368.768 187.559 376.37 196.294 382.861 205.838" stroke="#7FA632" stroke-width="1.374" stroke-linecap="round" stroke-linejoin="round"/>
<path d="M134.02 222.112C140.685 208.685 149.382 196.373 159.801 185.612" stroke="#7FA632" stroke-width="1.374" stroke-linecap="round" stroke-linejoin="round"/>
<path d="M351.683 126.23C374.485 139.095 394.258 156.734 409.655 177.947" stroke="#7FA632" stroke-width="1.374" stroke-linecap="round" stroke-linejoin="round"/>
<path d="M102.918 199.67C114.508 177.8 130.416 158.524 149.672 143.017" stroke="#7FA632" stroke-width="1.374" stroke-linecap="round" stroke-linejoin="round"/>
<path d="M327.17 251.61C327.17 251.61 386.88 210.565 402.49 199.325C418.101 188.085 450.14 165.265 450.14 165.265" stroke="#7FA632" stroke-width="1.374" stroke-linecap="round" stroke-linejoin="round"/>
<path d="M370.438 327.697C370.438 327.697 393.76 315.787 404.367 306.43C414.974 297.072 486.633 249.565 486.633 249.565" stroke="#7FA632" stroke-width="1.374" stroke-linecap="round" stroke-linejoin="round"/>
<path d="M12.9766 258.217C12.9766 258.217 123.532 309.717 134.413 310.992C141.919 311.887 156.69 318.537 156.69 318.537" stroke="#7FA632" stroke-width="1.374" stroke-linecap="round" stroke-linejoin="round"/>
<path d="M162.713 246.247L155.832 242.82L55.2861 175.602" stroke="#7FA632" stroke-width="1.374" stroke-linecap="round" stroke-linejoin="round"/>
<path d="M174.649 251.43C174.502 249.424 173.929 247.473 172.968 245.707C172.876 245.583 172.757 245.481 172.62 245.408C172.483 245.335 172.332 245.293 172.178 245.286C172.023 245.279 171.869 245.306 171.726 245.365C171.583 245.425 171.455 245.515 171.351 245.63C170.692 246.981 170.291 248.444 170.166 249.942C166.784 274.501 164.984 299.254 164.779 324.045C164.889 329.757 165.343 333.522 166.26 334.03C166.832 334.426 167.537 334.58 168.222 334.457C170.466 333.875 169.74 328.332 169.74 328.332" stroke="#7FA632" stroke-width="1.374" stroke-linecap="round" stroke-linejoin="round"/>
<path d="M173.064 245.63C172.814 242.418 165.919 240.88 163.887 243.56C163.523 244.447 163.286 245.381 163.184 246.335C161.282 257.307 157.83 297.305 156.952 318.545C156.563 322.932 156.597 327.347 157.054 331.727C158.897 337.13 165.71 336.273 168.272 334.57" stroke="#7FA632" stroke-width="1.374" stroke-linecap="round" stroke-linejoin="round"/>
<path d="M170.167 249.943L174.564 251.653C181.692 254.428 195.161 259.653 196.883 260.263C197.708 260.698 198.625 260.926 199.557 260.926C200.489 260.926 201.406 260.698 202.231 260.263C204.671 259.335 233.375 244.177 239.176 242.795C244.977 241.412 256.491 243.318 256.491 243.318" stroke="#7FA632" stroke-width="1.374" stroke-linecap="round" stroke-linejoin="round"/>
<path d="M164.779 324.045C164.779 324.045 166.956 325.557 169.987 327.602C172.729 329.457 176.182 331.742 179.353 333.727C181.772 335.32 184.287 336.761 186.884 338.042" stroke="#7FA632" stroke-width="1.374" stroke-linecap="round" stroke-linejoin="round"/>
<path d="M369.581 311.31C369.581 314.937 371.747 320.78 370.249 327.653C368.826 334.193 364.089 341.652 351.031 349.05" stroke="#7FA632" stroke-width="1.374" stroke-linecap="round" stroke-linejoin="round"/>
<path d="M338.899 257.427C335.258 254.992 331.288 253.094 327.11 251.79C324.136 250.803 321.087 250.059 317.993 249.565C304.901 247.467 277.858 236.032 267.098 239.212C263.463 240.311 259.917 241.687 256.491 243.327C250.732 246.017 245.679 248.937 240.287 250.827C231.839 253.792 224.17 252.39 221.857 264.772C219.544 277.155 219.888 292.362 217.564 302.675C217.266 303.931 217.257 305.238 217.539 306.497C219.284 314.247 232.225 317.29 240.708 306.55C246.087 299.982 248.998 291.729 248.935 283.23C248.918 280.833 248.648 278.445 248.13 276.105" stroke="#7FA632" stroke-width="1.374" stroke-linecap="round" stroke-linejoin="round"/>
<path d="M249.269 283.23C249.269 283.23 253.167 281.657 254.1 278.847C254.1 278.847 266.771 277.172 271.373 276.407C275.975 275.642 329.079 311.242 342.102 335.267" stroke="#7FA632" stroke-width="1.374" stroke-linecap="round" stroke-linejoin="round"/>
<path d="M342.103 335.267C345.352 339.619 348.084 344.336 350.244 349.322C351.658 352.985 352.196 356.472 350.494 358.492C344.623 365.492 337.443 363.432 332.405 357.615C332.156 357.332 331.907 357.03 331.657 356.722C326.592 350.235 313.594 334.397 313.594 334.397L302.747 327.647" stroke="#7FA632" stroke-width="1.374" stroke-linecap="round" stroke-linejoin="round"/>
<path d="M283.788 304.592C284.01 306.907 284.589 309.173 285.503 311.31C286.214 312.135 295.689 320.702 302.767 327.652C305.296 330.027 307.672 332.561 309.879 335.24C312.783 339.21 324.206 350.905 329.336 358.922C330.655 360.657 331.521 362.695 331.856 364.85C331.748 366.426 331.267 367.954 330.453 369.307C329.64 370.659 328.516 371.798 327.176 372.629C325.836 373.46 324.318 373.958 322.748 374.084C321.177 374.209 319.6 373.958 318.145 373.35C317.965 373.275 317.792 373.183 317.629 373.075C313.287 370.377 291.91 351.147 288.592 348.012L288.577 347.995" stroke="#7FA632" stroke-width="1.374" stroke-linecap="round" stroke-linejoin="round"/>
<path d="M317.041 373.94C316.819 375.107 316.329 376.205 315.609 377.148C314.89 378.092 313.96 378.853 312.895 379.372C311.382 380.326 309.689 380.953 307.922 381.216C306.155 381.479 304.353 381.372 302.629 380.9C301.084 380.149 299.593 379.291 298.167 378.332" stroke="#7FA632" stroke-width="1.374" stroke-linecap="round" stroke-linejoin="round"/>
<path d="M302.629 380.9C299.595 384.67 295.447 387.378 290.781 388.635C289.798 388.99 288.751 389.126 287.711 389.034C286.671 388.942 285.663 388.624 284.758 388.102" stroke="#7FA632" stroke-width="1.374" stroke-linecap="round" stroke-linejoin="round"/>
<path d="M271.373 276.407C271.373 276.407 275.247 272.557 275.247 270.367" stroke="#7FA632" stroke-width="1.374" stroke-linecap="round" stroke-linejoin="round"/>
<path d="M254.1 278.847C254.444 277.042 254.444 275.188 254.1 273.382" stroke="#7FA632" stroke-width="1.374" stroke-linecap="round" stroke-linejoin="round"/>
<path d="M217.335 305.7C217.334 305.981 217.401 306.259 217.532 306.507C219.083 309.652 229.957 308.637 233.444 303.397C237.203 297.735 232.611 290.207 232.611 290.207" stroke="#7FA632" stroke-width="1.374" stroke-linecap="round" stroke-linejoin="round"/>
<path d="M219.648 288.162C219.648 288.162 222.44 287.947 226.13 287.517" stroke="#7FA632" stroke-width="1.374" stroke-linecap="round" stroke-linejoin="round"/>
<path d="M340.86 358.922C343.411 358.167 345.754 356.832 347.706 355.02" stroke="#7FA632" stroke-width="1.374" stroke-linecap="round" stroke-linejoin="round"/>
<path d="M332.412 357.615C332.412 357.615 329.396 359.015 329.336 358.922" stroke="#7FA632" stroke-width="1.374" stroke-linecap="round" stroke-linejoin="round"/>
<path d="M180.981 341.5C182.781 340.135 184.788 339.071 186.926 338.347C187.454 338.189 187.997 338.091 188.547 338.055C191.897 337.865 198.244 337.195 202.494 343.605C204.346 346.587 205.098 350.125 204.621 353.605C204.422 354.954 203.888 356.231 203.067 357.318C202.246 358.405 201.165 359.267 199.924 359.825C197.496 360.934 194.932 361.715 192.299 362.145C186.448 363.132 180.363 362.6 177.69 359.962C173.203 355.52 168.377 345.312 178.857 334.53" stroke="#7FA632" stroke-width="1.374" stroke-linecap="round" stroke-linejoin="round"/>
<path d="M224.283 351.75C222.304 353.195 220.658 354.422 219.639 355.18" stroke="#7FA632" stroke-width="1.374" stroke-linecap="round" stroke-linejoin="round"/>
<path d="M192.299 362.135C192.299 362.135 195.582 375.04 202.46 376.828C208.768 378.868 215.38 379.798 222.004 379.577C225.489 379.316 228.89 378.382 232.021 376.828C232.021 376.828 254.881 364.578 258.316 358.93C260.105 356.332 260.993 353.216 260.844 350.062C260.626 347.981 259.738 346.027 258.316 344.495C253.063 338.583 245.944 338.29 239.243 341.908C234.071 344.889 229.081 348.177 224.3 351.755" stroke="#7FA632" stroke-width="1.374" stroke-linecap="round" stroke-linejoin="round"/>
<path d="M224.299 351.755H224.292L204.79 353.627" stroke="#7FA632" stroke-width="1.374" stroke-linecap="round" stroke-linejoin="round"/>
<path d="M239.706 350.725C238.082 352.65 237.198 355.094 237.213 357.615C237.334 358.676 237.713 359.691 238.317 360.571C238.921 361.451 239.731 362.169 240.676 362.661C241.621 363.153 242.672 363.405 243.737 363.394C244.802 363.384 245.848 363.111 246.783 362.6C251.213 360.142 258.308 355.167 256.356 350.725" stroke="#7FA632" stroke-width="1.374" stroke-linecap="round" stroke-linejoin="round"/>
<path d="M242.747 348C244.295 346.624 246.183 345.689 248.214 345.292C249.643 345.231 251.041 345.713 252.13 346.642" stroke="#7FA632" stroke-width="1.374" stroke-linecap="round" stroke-linejoin="round"/>
<path d="M283.756 343.36C278.134 340.155 271.982 341.36 266.67 345.525C260.809 350.14 263.379 347.415 260.844 350.062C260.791 350.115 260.741 350.175 260.682 350.235" stroke="#7FA632" stroke-width="1.374" stroke-linecap="round" stroke-linejoin="round"/>
<path d="M222.014 379.697C223.372 384.036 226.383 387.661 230.392 389.785C234.6 391.77 237.34 394.657 249.044 389.767C254.706 387.28 260.192 384.407 265.462 381.167C265.462 381.167 283.91 366.775 287.849 360.065C288.041 359.745 288.208 359.411 288.347 359.065C289.201 357.356 289.666 355.479 289.709 353.568C289.752 351.657 289.372 349.761 288.597 348.015C287.935 346.779 287.022 345.696 285.917 344.835C285.249 344.296 284.538 343.813 283.79 343.392" stroke="#7FA632" stroke-width="1.374" stroke-linecap="round" stroke-linejoin="round"/>
<path d="M268.614 354.135C267.347 356.312 266.894 358.871 267.338 361.352C267.637 362.377 268.183 363.312 268.927 364.075C269.671 364.839 270.59 365.408 271.604 365.732C272.619 366.056 273.697 366.125 274.744 365.934C275.791 365.743 276.776 365.297 277.611 364.635C281.57 361.457 287.712 355.347 285.04 351.3" stroke="#7FA632" stroke-width="1.374" stroke-linecap="round" stroke-linejoin="round"/>
<path d="M271.149 350.922C272.441 349.304 274.142 348.064 276.075 347.33C277.475 347.025 278.938 347.262 280.171 347.992" stroke="#7FA632" stroke-width="1.374" stroke-linecap="round" stroke-linejoin="round"/>
<path d="M249.286 390.335C249.766 391.953 250.605 393.442 251.74 394.689C252.875 395.936 254.277 396.909 255.84 397.535C260.886 399.915 267.14 398.067 281.245 389.76C281.245 389.76 282.16 389.125 283.591 388.085C287.899 385.02 292.006 381.68 295.886 378.085C297.038 377.017 298.056 375.813 298.92 374.5C302.161 369.02 302.048 365.625 298.474 362.772C297.13 361.498 295.477 360.6 293.679 360.167C291.881 359.735 290.001 359.783 288.228 360.307" stroke="#7FA632" stroke-width="1.374" stroke-linecap="round" stroke-linejoin="round"/>
<path d="M284.389 368.647C283.41 370.33 283.06 372.308 283.404 374.225C283.635 375.019 284.057 375.743 284.632 376.335C285.207 376.927 285.919 377.368 286.704 377.619C287.49 377.87 288.324 377.924 289.135 377.775C289.946 377.627 290.708 377.281 291.354 376.767C294.413 374.31 299.17 369.585 297.088 366.447" stroke="#7FA632" stroke-width="1.374" stroke-linecap="round" stroke-linejoin="round"/>
<path d="M286.355 366.157C287.358 364.904 288.678 363.945 290.177 363.38C291.258 363.143 292.388 363.328 293.338 363.897" stroke="#7FA632" stroke-width="1.374" stroke-linecap="round" stroke-linejoin="round"/>
<path d="M275.247 332.475L278.116 337.965L283.755 343.36L283.788 343.387" stroke="#7FA632" stroke-width="1.374" stroke-linecap="round" stroke-linejoin="round"/>
<path d="M199.924 359.815C197.435 358.67 195.164 357.097 193.216 355.167C191.892 353.439 190.975 351.432 190.534 349.297C190.44 348.815 190.223 348.365 189.903 347.993C189.584 347.62 189.173 347.337 188.712 347.171C188.25 347.006 187.754 346.964 187.271 347.049C186.789 347.134 186.336 347.344 185.959 347.658C184.76 348.547 183.92 349.84 183.593 351.3C183.215 352.976 183.41 354.732 184.147 356.284C184.883 357.836 186.119 359.094 187.654 359.857" stroke="#7FA632" stroke-width="1.374" stroke-linecap="round" stroke-linejoin="round"/>
<path d="M273.148 183.007L186.258 200.957L184.647 193.105L158.507 65.875L254.922 45.95L262.755 44.335L287.018 162.395" stroke="#7FA632" stroke-width="1.374" stroke-linecap="round" stroke-linejoin="round"/>
<path d="M184.648 193.105L176.808 194.72L175.19 186.857L149.057 59.6375L245.465 39.7125L253.305 38.095L254.923 45.95V45.9575" stroke="#7FA632" stroke-width="1.374" stroke-linecap="round" stroke-linejoin="round"/>
<path d="M175.189 186.857L167.349 188.482L139.596 53.39L243.854 31.85L245.464 39.7125" stroke="#7FA632" stroke-width="1.374" stroke-linecap="round" stroke-linejoin="round"/>
<path d="M178.787 80.4225L249.867 65.7375" stroke="#7FA632" stroke-width="1.374" stroke-linecap="round" stroke-linejoin="round"/>
<path d="M185.932 95.34L257.014 80.645" stroke="#7FA632" stroke-width="1.374" stroke-linecap="round" stroke-linejoin="round"/>
<path d="M179.712 104.817L258.632 88.5074" stroke="#7FA632" stroke-width="1.374" stroke-linecap="round" stroke-linejoin="round"/>
<path d="M181.322 112.677L260.243 96.37" stroke="#7FA632" stroke-width="1.374" stroke-linecap="round" stroke-linejoin="round"/>
<path d="M182.942 120.54L238.345 109.087" stroke="#7FA632" stroke-width="1.374" stroke-linecap="round" stroke-linejoin="round"/>
<path d="M192.394 126.78L263.474 112.095" stroke="#7FA632" stroke-width="1.374" stroke-linecap="round" stroke-linejoin="round"/>
<path d="M186.174 136.258L265.094 119.958" stroke="#7FA632" stroke-width="1.374" stroke-linecap="round" stroke-linejoin="round"/>
<path d="M187.784 144.117L266.705 127.81" stroke="#7FA632" stroke-width="1.374" stroke-linecap="round" stroke-linejoin="round"/>
<path d="M197.234 150.365L268.324 135.672" stroke="#7FA632" stroke-width="1.374" stroke-linecap="round" stroke-linejoin="round"/>
<path d="M191.015 159.842L269.935 143.535" stroke="#7FA632" stroke-width="1.374" stroke-linecap="round" stroke-linejoin="round"/>
<path d="M192.633 167.705L271.553 151.397" stroke="#7FA632" stroke-width="1.374" stroke-linecap="round" stroke-linejoin="round"/>
<path d="M217.831 182.982L225.878 181.325L235.438 179.347L255.299 175.24L259.071 174.457L265.403 173.152" stroke="#7FA632" stroke-width="1.374" stroke-linecap="round" stroke-linejoin="round"/>
<path d="M241.234 170.857C240.985 171.77 239.442 177.51 241.568 177.57C243.864 177.637 249.099 164.397 249.099 164.397C249.099 164.397 246.536 175.147 249.638 175.37C252.739 175.592 252.288 167.722 254.977 166.992C256.87 166.475 255.301 172.095 255.301 175.242C255.301 176.592 255.593 177.492 256.563 177.242C257.769 176.942 258.497 175.8 259.073 174.457C260.016 172.207 260.554 169.405 262.234 168.985" stroke="#7FA632" stroke-width="1.374" stroke-linecap="round" stroke-linejoin="round"/>
<path d="M231.263 174.725C232.36 177.397 234.005 179.475 235.391 179.15C238.544 178.385 240.893 171.83 241.227 170.857C241.233 170.829 241.241 170.8 241.252 170.772V170.747" stroke="#7FA632" stroke-width="1.374" stroke-linecap="round" stroke-linejoin="round"/>
<path d="M231.263 174.725C233.805 169.912 235.211 164.267 232.17 165.05C229.218 165.815 229.69 170.875 231.263 174.725Z" stroke="#7FA632" stroke-width="1.374" stroke-linecap="round" stroke-linejoin="round"/>
<path d="M225.818 181.04C227.524 180.577 229.63 177.827 231.268 174.725" stroke="#7FA632" stroke-width="1.374" stroke-linecap="round" stroke-linejoin="round"/>
<path d="M212.915 173.625L208.973 179.63L205.032 185.628" stroke="#7FA632" stroke-width="1.374" stroke-linecap="round" stroke-linejoin="round"/>
<path d="M202.983 175.677L208.974 179.63L214.954 183.575" stroke="#7FA632" stroke-width="1.374" stroke-linecap="round" stroke-linejoin="round"/>
<path d="M273.209 182.983C274.64 187.058 276.736 190.868 279.411 194.255C284.908 201.425 292.613 206.573 301.328 208.898L298.913 223.573C298.777 224.396 298.804 225.237 298.993 226.05C299.182 226.862 299.528 227.63 300.013 228.308C300.497 228.986 301.11 229.562 301.816 230.003C302.523 230.443 303.309 230.74 304.129 230.876C304.95 231.012 305.789 230.985 306.6 230.796C307.41 230.606 308.175 230.259 308.851 229.773C309.527 229.288 310.102 228.673 310.541 227.965C310.981 227.256 311.277 226.468 311.412 225.645L313.855 210.788C317.499 210.865 321.137 210.463 324.677 209.593C330.13 208.284 335.259 205.871 339.747 202.5C344.181 199.14 347.957 194.987 350.885 190.25C353.956 185.28 356.004 179.744 356.905 173.967C358.325 165.758 357.566 157.319 354.704 149.497C351.842 141.664 345.396 134.784 335.367 128.857L328.075 124.432L333.18 93.405C334.115 94.11 334.97 94.9138 335.733 95.8025C337.6 98.055 338.655 100.874 338.725 103.802C338.792 104.905 339.232 105.951 339.972 106.769C340.712 107.587 341.708 108.128 342.795 108.302L360.54 111.24C361.215 111.354 361.907 111.325 362.57 111.153C363.234 110.981 363.853 110.671 364.389 110.244C364.925 109.816 365.365 109.28 365.681 108.67C365.997 108.06 366.181 107.391 366.221 106.705C366.419 102.787 366.096 98.8601 365.261 95.0275C364.14 89.7288 362.017 84.6947 359.007 80.1975C356.022 75.7993 352.14 72.0859 347.619 69.3025C344.576 67.4123 341.298 65.9329 337.869 64.9025L340.011 51.8675C340.146 51.0443 340.119 50.2023 339.93 49.3898C339.741 48.5772 339.394 47.8099 338.91 47.1317C338.425 46.4535 337.812 45.8776 337.106 45.437C336.399 44.9964 335.613 44.6997 334.792 44.5638C333.971 44.4278 333.132 44.4554 332.321 44.6449C331.511 44.8343 330.746 45.182 330.07 45.668C328.704 46.6495 327.783 48.1349 327.509 49.7975L325.36 62.865C321.909 62.757 318.457 63.06 315.077 63.7675C309.79 64.8599 304.791 67.0521 300.401 70.2025C295.805 73.3515 291.888 77.3959 288.884 82.095C285.729 87.0293 283.635 92.5687 282.734 98.36C281.019 107.119 282.333 116.202 286.461 124.11C290.847 131.98 297.363 138.447 305.257 142.762L311.617 146.38L305.858 181.38C303.471 180.307 301.568 178.38 300.521 175.975C299.64 173.939 299.007 171.803 298.636 169.615C298.372 168.035 297.623 166.577 296.494 165.444C295.365 164.311 293.912 163.559 292.337 163.293L287.017 162.415L279.521 161.165C278.408 160.983 277.268 161.049 276.184 161.358C275.099 161.668 274.096 162.213 273.245 162.955C272.394 163.697 271.717 164.618 271.261 165.653C270.806 166.687 270.583 167.809 270.608 168.94C270.66 172.42 271.138 175.88 272.032 179.242C272.376 180.525 272.77 181.77 273.209 182.983Z" stroke="#7FA632" stroke-width="1.374" stroke-linecap="round" stroke-linejoin="round"/>
<path d="M310.537 110.667C309.65 108.064 309.412 105.282 309.844 102.565C310.414 98.8756 312.305 95.5211 315.164 93.13C316.77 91.7425 318.722 90.8188 320.811 90.4575L316.398 117.257C313.809 115.725 311.76 113.422 310.537 110.667Z" stroke="#7FA632" stroke-width="1.374" stroke-linecap="round" stroke-linejoin="round"/>
<path d="M322.919 180.687C321.533 181.506 320.047 182.141 318.499 182.577L323.278 153.552C325.346 155.11 327.061 157.09 328.309 159.362C329.932 162.674 330.435 166.426 329.74 170.05C329.497 172.23 328.756 174.325 327.573 176.171C326.389 178.016 324.797 179.562 322.919 180.687Z" stroke="#7FA632" stroke-width="1.374" stroke-linecap="round" stroke-linejoin="round"/>
</svg>
