<svg width="4113" height="1050" viewBox="0 0 1413 1050" fill="none" xmlns="http://www.w3.org/2000/svg">
<g filter="url(#filter0_f_765_259)">
<circle cx="888" cy="525" r="225" fill="#B2B2B2" fill-opacity="0.34"/>
</g>
<path d="M353.452 554.96C348.204 554.96 343.372 554.096 338.956 552.368C334.54 550.64 330.7 548.24 327.436 545.168C324.172 542.032 321.644 538.384 319.852 534.224C318.06 530 317.164 525.392 317.164 520.4C317.164 515.408 318.06 510.832 319.852 506.672C321.644 502.448 324.172 498.8 327.436 495.728C330.7 492.592 334.54 490.16 338.956 488.432C343.372 486.704 348.172 485.84 353.356 485.84C358.604 485.84 363.404 486.704 367.756 488.432C372.172 490.16 376.012 492.592 379.276 495.728C382.54 498.8 385.068 502.448 386.86 506.672C388.652 510.832 389.548 515.408 389.548 520.4C389.548 525.392 388.652 530 386.86 534.224C385.068 538.448 382.54 542.096 379.276 545.168C376.012 548.24 372.172 550.64 367.756 552.368C363.404 554.096 358.636 554.96 353.452 554.96ZM353.356 544.016C356.748 544.016 359.884 543.44 362.764 542.288C365.644 541.136 368.14 539.504 370.252 537.392C372.364 535.216 373.996 532.72 375.148 529.904C376.364 527.024 376.972 523.856 376.972 520.4C376.972 516.944 376.364 513.808 375.148 510.992C373.996 508.112 372.364 505.616 370.252 503.504C368.14 501.328 365.644 499.664 362.764 498.512C359.884 497.36 356.748 496.784 353.356 496.784C349.964 496.784 346.828 497.36 343.948 498.512C341.132 499.664 338.636 501.328 336.46 503.504C334.348 505.616 332.684 508.112 331.468 510.992C330.316 513.808 329.74 516.944 329.74 520.4C329.74 523.792 330.316 526.928 331.468 529.808C332.684 532.688 334.348 535.216 336.46 537.392C338.572 539.504 341.068 541.136 343.948 542.288C346.828 543.44 349.964 544.016 353.356 544.016ZM425.33 554.672C419.954 554.672 415.154 553.552 410.93 551.312C406.77 549.008 403.506 545.872 401.138 541.904C398.77 537.936 397.586 533.424 397.586 528.368C397.586 523.248 398.77 518.736 401.138 514.832C403.506 510.864 406.77 507.76 410.93 505.52C415.154 503.28 419.954 502.16 425.33 502.16C430.322 502.16 434.706 503.184 438.482 505.232C442.322 507.216 445.234 510.16 447.218 514.064L438.002 519.44C436.466 517.008 434.578 515.216 432.338 514.064C430.162 512.912 427.794 512.336 425.234 512.336C422.29 512.336 419.634 512.976 417.266 514.256C414.898 515.536 413.042 517.392 411.698 519.824C410.354 522.192 409.682 525.04 409.682 528.368C409.682 531.696 410.354 534.576 411.698 537.008C413.042 539.376 414.898 541.2 417.266 542.48C419.634 543.76 422.29 544.4 425.234 544.4C427.794 544.4 430.162 543.824 432.338 542.672C434.578 541.52 436.466 539.728 438.002 537.296L447.218 542.672C445.234 546.512 442.322 549.488 438.482 551.6C434.706 553.648 430.322 554.672 425.33 554.672ZM457.783 554V502.736H469.783V523.568H495.607V502.736H507.607V554H495.607V533.744H469.783V554H457.783ZM546.537 554.672C541.289 554.672 536.617 553.552 532.521 551.312C528.425 549.008 525.193 545.872 522.825 541.904C520.457 537.936 519.273 533.424 519.273 528.368C519.273 523.248 520.457 518.736 522.825 514.832C525.193 510.864 528.425 507.76 532.521 505.52C536.617 503.28 541.289 502.16 546.537 502.16C551.849 502.16 556.553 503.28 560.649 505.52C564.809 507.76 568.041 510.832 570.345 514.736C572.713 518.64 573.897 523.184 573.897 528.368C573.897 533.424 572.713 537.936 570.345 541.904C568.041 545.872 564.809 549.008 560.649 551.312C556.553 553.552 551.849 554.672 546.537 554.672ZM546.537 544.4C549.481 544.4 552.105 543.76 554.409 542.48C556.713 541.2 558.505 539.344 559.785 536.912C561.129 534.48 561.801 531.632 561.801 528.368C561.801 525.04 561.129 522.192 559.785 519.824C558.505 517.392 556.713 515.536 554.409 514.256C552.105 512.976 549.513 512.336 546.633 512.336C543.689 512.336 541.065 512.976 538.761 514.256C536.521 515.536 534.729 517.392 533.385 519.824C532.041 522.192 531.369 525.04 531.369 528.368C531.369 531.632 532.041 534.48 533.385 536.912C534.729 539.344 536.521 541.2 538.761 542.48C541.065 543.76 543.657 544.4 546.537 544.4ZM585.752 554V502.736H610.808C617.016 502.736 621.88 503.888 625.4 506.192C628.984 508.496 630.776 511.76 630.776 515.984C630.776 520.144 629.112 523.408 625.784 525.776C622.456 528.08 618.04 529.232 612.536 529.232L613.976 526.256C620.184 526.256 624.792 527.408 627.8 529.712C630.872 531.952 632.408 535.248 632.408 539.6C632.408 544.144 630.712 547.696 627.32 550.256C623.928 552.752 618.776 554 611.864 554H585.752ZM597.176 545.264H610.904C614.168 545.264 616.632 544.752 618.296 543.728C619.96 542.64 620.792 541.008 620.792 538.832C620.792 536.528 620.024 534.832 618.488 533.744C616.952 532.656 614.552 532.112 611.288 532.112H597.176V545.264ZM597.176 524.144H609.752C612.824 524.144 615.128 523.6 616.664 522.512C618.264 521.36 619.064 519.76 619.064 517.712C619.064 515.6 618.264 514.032 616.664 513.008C615.128 511.984 612.824 511.472 609.752 511.472H597.176V524.144ZM696.933 554V502.736H708.933V554H696.933ZM670.149 519.632C676.741 519.632 681.733 521.104 685.125 524.048C688.581 526.992 690.309 531.152 690.309 536.528C690.309 542.096 688.389 546.448 684.549 549.584C680.773 552.656 675.397 554.16 668.421 554.096L645.189 554V502.736H657.189V519.536L670.149 519.632ZM667.365 545.264C670.885 545.328 673.573 544.592 675.429 543.056C677.285 541.52 678.213 539.28 678.213 536.336C678.213 533.392 677.285 531.28 675.429 530C673.637 528.656 670.949 527.952 667.365 527.888L657.189 527.792V545.168L667.365 545.264ZM48.825 782.432V746.912H29.145L28.857 755.168C28.729 758.112 28.537 760.96 28.281 763.712C28.025 766.4 27.609 768.896 27.033 771.2C26.457 773.44 25.625 775.296 24.537 776.768C23.449 778.24 22.009 779.2 20.217 779.648L8.313 777.824C10.233 777.824 11.769 777.216 12.921 776C14.137 774.72 15.065 772.992 15.705 770.816C16.409 768.576 16.921 766.048 17.241 763.232C17.561 760.352 17.785 757.376 17.913 754.304L18.585 736.736H60.825V782.432H48.825ZM6.489 799.424V777.824H68.409V799.424H57.177V788H17.625V799.424H6.489ZM103.031 788.672C97.3345 788.672 92.3425 787.552 88.0545 785.312C83.8305 783.008 80.5345 779.872 78.1665 775.904C75.8625 771.936 74.7105 767.424 74.7105 762.368C74.7105 757.248 75.8305 752.736 78.0705 748.832C80.3745 744.864 83.5105 741.76 87.4785 739.52C91.5105 737.28 96.0865 736.16 101.207 736.16C106.199 736.16 110.647 737.248 114.551 739.424C118.455 741.6 121.527 744.672 123.767 748.64C126.007 752.608 127.127 757.28 127.127 762.656C127.127 763.168 127.095 763.744 127.031 764.384C127.031 765.024 126.999 765.632 126.935 766.208H84.2145V758.24H120.599L115.895 760.736C115.959 757.792 115.351 755.2 114.071 752.96C112.791 750.72 111.031 748.96 108.791 747.68C106.615 746.4 104.087 745.76 101.207 745.76C98.2625 745.76 95.6705 746.4 93.4305 747.68C91.2545 748.96 89.5265 750.752 88.2465 753.056C87.0305 755.296 86.4225 757.952 86.4225 761.024V762.944C86.4225 766.016 87.1265 768.736 88.5345 771.104C89.9425 773.472 91.9265 775.296 94.4865 776.576C97.0465 777.856 99.9905 778.496 103.319 778.496C106.199 778.496 108.791 778.048 111.095 777.152C113.399 776.256 115.447 774.848 117.239 772.928L123.671 780.32C121.367 783.008 118.455 785.088 114.935 786.56C111.479 787.968 107.511 788.672 103.031 788.672ZM171.389 788V770.528L173.117 772.544H157.757C150.717 772.544 145.181 771.072 141.149 768.128C137.181 765.12 135.197 760.8 135.197 755.168C135.197 749.152 137.309 744.576 141.533 741.44C145.821 738.304 151.517 736.736 158.621 736.736H182.141V788H171.389ZM134.525 788L148.349 768.416H160.637L147.389 788H134.525ZM171.389 766.688V743.648L173.117 746.816H159.005C155.293 746.816 152.413 747.52 150.365 748.928C148.381 750.272 147.389 752.48 147.389 755.552C147.389 761.312 151.133 764.192 158.621 764.192H173.117L171.389 766.688ZM208.939 788V744.032L211.723 746.912H190.891V736.736H238.891V746.912H218.155L220.939 744.032V788H208.939ZM269.249 788.672C263.553 788.672 258.561 787.552 254.273 785.312C250.049 783.008 246.753 779.872 244.385 775.904C242.081 771.936 240.929 767.424 240.929 762.368C240.929 757.248 242.049 752.736 244.289 748.832C246.593 744.864 249.729 741.76 253.697 739.52C257.729 737.28 262.305 736.16 267.425 736.16C272.417 736.16 276.865 737.248 280.769 739.424C284.673 741.6 287.745 744.672 289.985 748.64C292.225 752.608 293.345 757.28 293.345 762.656C293.345 763.168 293.313 763.744 293.249 764.384C293.249 765.024 293.217 765.632 293.153 766.208H250.433V758.24H286.817L282.113 760.736C282.177 757.792 281.569 755.2 280.289 752.96C279.009 750.72 277.249 748.96 275.009 747.68C272.833 746.4 270.305 745.76 267.425 745.76C264.481 745.76 261.889 746.4 259.649 747.68C257.473 748.96 255.745 750.752 254.465 753.056C253.249 755.296 252.641 757.952 252.641 761.024V762.944C252.641 766.016 253.345 768.736 254.753 771.104C256.161 773.472 258.145 775.296 260.705 776.576C263.265 777.856 266.209 778.496 269.537 778.496C272.417 778.496 275.009 778.048 277.313 777.152C279.617 776.256 281.665 774.848 283.457 772.928L289.889 780.32C287.585 783.008 284.673 785.088 281.153 786.56C277.697 787.968 273.729 788.672 269.249 788.672ZM298.326 787.904L298.902 777.824C299.35 777.888 299.766 777.952 300.15 778.016C300.534 778.08 300.886 778.112 301.206 778.112C303.19 778.112 304.726 777.504 305.814 776.288C306.902 775.072 307.702 773.44 308.214 771.392C308.79 769.28 309.174 766.944 309.366 764.384C309.622 761.76 309.814 759.136 309.942 756.512L310.806 736.736H352.278V788H340.278V743.648L343.062 746.912H318.678L321.27 743.552L320.598 757.088C320.406 761.632 320.022 765.856 319.446 769.76C318.934 773.6 318.102 776.96 316.95 779.84C315.862 782.72 314.326 784.96 312.342 786.56C310.422 788.16 307.958 788.96 304.95 788.96C303.99 788.96 302.934 788.864 301.782 788.672C300.694 788.48 299.542 788.224 298.326 787.904ZM394.167 753.632C400.759 753.632 405.783 755.104 409.239 758.048C412.695 760.992 414.423 765.152 414.423 770.528C414.423 776.096 412.503 780.448 408.663 783.584C404.823 786.656 399.415 788.16 392.439 788.096L368.439 788V736.736H380.439V753.536L394.167 753.632ZM391.383 779.264C394.903 779.328 397.591 778.592 399.447 777.056C401.303 775.52 402.231 773.28 402.231 770.336C402.231 767.392 401.303 765.28 399.447 764C397.655 762.656 394.967 761.952 391.383 761.888L380.439 761.792V779.168L391.383 779.264ZM424.97 788V736.736H436.97V757.568H462.794V736.736H474.794V788H462.794V767.744H436.97V788H424.97ZM513.725 788.672C508.477 788.672 503.805 787.552 499.709 785.312C495.613 783.008 492.381 779.872 490.013 775.904C487.645 771.936 486.461 767.424 486.461 762.368C486.461 757.248 487.645 752.736 490.013 748.832C492.381 744.864 495.613 741.76 499.709 739.52C503.805 737.28 508.477 736.16 513.725 736.16C519.037 736.16 523.741 737.28 527.837 739.52C531.997 741.76 535.229 744.832 537.533 748.736C539.901 752.64 541.085 757.184 541.085 762.368C541.085 767.424 539.901 771.936 537.533 775.904C535.229 779.872 531.997 783.008 527.837 785.312C523.741 787.552 519.037 788.672 513.725 788.672ZM513.725 778.4C516.669 778.4 519.293 777.76 521.597 776.48C523.901 775.2 525.693 773.344 526.973 770.912C528.317 768.48 528.989 765.632 528.989 762.368C528.989 759.04 528.317 756.192 526.973 753.824C525.693 751.392 523.901 749.536 521.597 748.256C519.293 746.976 516.701 746.336 513.821 746.336C510.877 746.336 508.253 746.976 505.949 748.256C503.709 749.536 501.917 751.392 500.573 753.824C499.229 756.192 498.557 759.04 498.557 762.368C498.557 765.632 499.229 768.48 500.573 770.912C501.917 773.344 503.709 775.2 505.949 776.48C508.253 777.76 510.845 778.4 513.725 778.4ZM576.267 788.672C570.891 788.672 566.091 787.552 561.867 785.312C557.707 783.008 554.443 779.872 552.075 775.904C549.707 771.936 548.523 767.424 548.523 762.368C548.523 757.248 549.707 752.736 552.075 748.832C554.443 744.864 557.707 741.76 561.867 739.52C566.091 737.28 570.891 736.16 576.267 736.16C581.259 736.16 585.643 737.184 589.419 739.232C593.259 741.216 596.171 744.16 598.155 748.064L588.939 753.44C587.403 751.008 585.515 749.216 583.275 748.064C581.099 746.912 578.731 746.336 576.171 746.336C573.227 746.336 570.571 746.976 568.203 748.256C565.835 749.536 563.979 751.392 562.635 753.824C561.291 756.192 560.619 759.04 560.619 762.368C560.619 765.696 561.291 768.576 562.635 771.008C563.979 773.376 565.835 775.2 568.203 776.48C570.571 777.76 573.227 778.4 576.171 778.4C578.731 778.4 581.099 777.824 583.275 776.672C585.515 775.52 587.403 773.728 588.939 771.296L598.155 776.672C596.171 780.512 593.259 783.488 589.419 785.6C585.643 787.648 581.259 788.672 576.267 788.672ZM619.001 788V744.032L621.785 746.912H600.953V736.736H648.953V746.912H628.217L631.001 744.032V788H619.001ZM657.658 788V736.736H669.658V770.528L697.978 736.736H708.922V788H696.922V754.208L668.698 788H657.658Z" fill="white"/>
<path d="M166.783 671V619.736H215.935V671H204.031V627.128L206.815 629.912H175.999L178.783 627.128V671H166.783ZM260.543 671.672C256.383 671.672 252.575 670.712 249.119 668.792C245.727 666.872 243.007 663.992 240.959 660.152C238.975 656.248 237.983 651.32 237.983 645.368C237.983 639.352 238.943 634.424 240.863 630.584C242.847 626.744 245.535 623.896 248.927 622.04C252.319 620.12 256.191 619.16 260.543 619.16C265.599 619.16 270.047 620.248 273.887 622.424C277.791 624.6 280.863 627.64 283.103 631.544C285.407 635.448 286.559 640.056 286.559 645.368C286.559 650.68 285.407 655.32 283.103 659.288C280.863 663.192 277.791 666.232 273.887 668.408C270.047 670.584 265.599 671.672 260.543 671.672ZM232.127 689.624V619.736H243.551V631.832L243.167 645.464L244.127 659.096V689.624H232.127ZM259.199 661.4C262.079 661.4 264.639 660.76 266.879 659.48C269.183 658.2 271.007 656.344 272.351 653.912C273.695 651.48 274.367 648.632 274.367 645.368C274.367 642.04 273.695 639.192 272.351 636.824C271.007 634.392 269.183 632.536 266.879 631.256C264.639 629.976 262.079 629.336 259.199 629.336C256.319 629.336 253.727 629.976 251.423 631.256C249.119 632.536 247.295 634.392 245.951 636.824C244.607 639.192 243.935 642.04 243.935 645.368C243.935 648.632 244.607 651.48 245.951 653.912C247.295 656.344 249.119 658.2 251.423 659.48C253.727 660.76 256.319 661.4 259.199 661.4ZM321.35 671.672C316.102 671.672 311.43 670.552 307.334 668.312C303.238 666.008 300.006 662.872 297.638 658.904C295.27 654.936 294.086 650.424 294.086 645.368C294.086 640.248 295.27 635.736 297.638 631.832C300.006 627.864 303.238 624.76 307.334 622.52C311.43 620.28 316.102 619.16 321.35 619.16C326.662 619.16 331.366 620.28 335.462 622.52C339.622 624.76 342.854 627.832 345.158 631.736C347.526 635.64 348.71 640.184 348.71 645.368C348.71 650.424 347.526 654.936 345.158 658.904C342.854 662.872 339.622 666.008 335.462 668.312C331.366 670.552 326.662 671.672 321.35 671.672ZM321.35 661.4C324.294 661.4 326.918 660.76 329.222 659.48C331.526 658.2 333.318 656.344 334.598 653.912C335.942 651.48 336.614 648.632 336.614 645.368C336.614 642.04 335.942 639.192 334.598 636.824C333.318 634.392 331.526 632.536 329.222 631.256C326.918 629.976 324.326 629.336 321.446 629.336C318.502 629.336 315.878 629.976 313.574 631.256C311.334 632.536 309.542 634.392 308.198 636.824C306.854 639.192 306.182 642.04 306.182 645.368C306.182 648.632 306.854 651.48 308.198 653.912C309.542 656.344 311.334 658.2 313.574 659.48C315.878 660.76 318.47 661.4 321.35 661.4ZM384.468 671.672C378.772 671.672 373.78 670.552 369.492 668.312C365.268 666.008 361.972 662.872 359.604 658.904C357.3 654.936 356.148 650.424 356.148 645.368C356.148 640.248 357.268 635.736 359.508 631.832C361.812 627.864 364.948 624.76 368.916 622.52C372.948 620.28 377.524 619.16 382.644 619.16C387.636 619.16 392.084 620.248 395.988 622.424C399.892 624.6 402.964 627.672 405.204 631.64C407.444 635.608 408.564 640.28 408.564 645.656C408.564 646.168 408.532 646.744 408.468 647.384C408.468 648.024 408.436 648.632 408.372 649.208H365.652V641.24H402.036L397.332 643.736C397.396 640.792 396.788 638.2 395.508 635.96C394.228 633.72 392.468 631.96 390.228 630.68C388.052 629.4 385.524 628.76 382.644 628.76C379.7 628.76 377.108 629.4 374.868 630.68C372.692 631.96 370.964 633.752 369.684 636.056C368.468 638.296 367.86 640.952 367.86 644.024V645.944C367.86 649.016 368.564 651.736 369.972 654.104C371.38 656.472 373.364 658.296 375.924 659.576C378.484 660.856 381.428 661.496 384.756 661.496C387.636 661.496 390.228 661.048 392.532 660.152C394.836 659.256 396.884 657.848 398.676 655.928L405.108 663.32C402.804 666.008 399.892 668.088 396.372 669.56C392.916 670.968 388.948 671.672 384.468 671.672ZM458.457 671L439.929 646.424L449.721 640.376L472.569 671H458.457ZM421.689 671V619.736H433.689V671H421.689ZM430.137 650.456V640.472H447.513V650.456H430.137ZM450.873 646.808L439.641 645.464L458.457 619.736H471.321L450.873 646.808ZM491.033 671V627.032L493.817 629.912H472.985V619.736H520.985V629.912H500.249L503.033 627.032V671H491.033ZM529.689 671V619.736H541.689V640.568H567.513V619.736H579.513V671H567.513V650.744H541.689V671H529.689ZM618.443 671.672C613.195 671.672 608.523 670.552 604.427 668.312C600.331 666.008 597.099 662.872 594.731 658.904C592.363 654.936 591.179 650.424 591.179 645.368C591.179 640.248 592.363 635.736 594.731 631.832C597.099 627.864 600.331 624.76 604.427 622.52C608.523 620.28 613.195 619.16 618.443 619.16C623.755 619.16 628.459 620.28 632.555 622.52C636.715 624.76 639.947 627.832 642.251 631.736C644.619 635.64 645.803 640.184 645.803 645.368C645.803 650.424 644.619 654.936 642.251 658.904C639.947 662.872 636.715 666.008 632.555 668.312C628.459 670.552 623.755 671.672 618.443 671.672ZM618.443 661.4C621.387 661.4 624.011 660.76 626.315 659.48C628.619 658.2 630.411 656.344 631.691 653.912C633.035 651.48 633.707 648.632 633.707 645.368C633.707 642.04 633.035 639.192 631.691 636.824C630.411 634.392 628.619 632.536 626.315 631.256C624.011 629.976 621.419 629.336 618.539 629.336C615.595 629.336 612.971 629.976 610.667 631.256C608.427 632.536 606.635 634.392 605.291 636.824C603.947 639.192 603.275 642.04 603.275 645.368C603.275 648.632 603.947 651.48 605.291 653.912C606.635 656.344 608.427 658.2 610.667 659.48C612.971 660.76 615.563 661.4 618.443 661.4ZM657.658 671V619.736H669.658V653.528L697.978 619.736H708.922V671H696.922V637.208L668.698 671H657.658ZM682.522 613.688C677.402 613.688 673.466 612.504 670.714 610.136C667.962 607.704 666.554 604.184 666.49 599.576H674.458C674.522 601.88 675.226 603.704 676.57 605.048C677.978 606.392 679.93 607.064 682.426 607.064C684.858 607.064 686.778 606.392 688.186 605.048C689.658 603.704 690.426 601.88 690.49 599.576H698.65C698.586 604.184 697.146 607.704 694.33 610.136C691.578 612.504 687.642 613.688 682.522 613.688Z" fill="#7FA632"/>
<path d="M1226.04 520.07L1205.93 625.292C1203.11 623.65 1200.19 622.206 1197.18 620.972C1198.39 612.04 1197.95 607.08 1196.06 604.265C1196.34 603.798 1196.53 603.286 1196.63 602.752C1196.86 601.498 1196.59 600.201 1195.88 599.145C1195.16 598.089 1194.05 597.362 1192.8 597.124C1191.54 596.885 1190.24 597.154 1189.19 597.872C1188.13 598.59 1187.41 599.698 1187.17 600.952C1187.14 601.097 1187.12 601.25 1187.1 601.392C1183.38 603.065 1180.93 608.77 1178.47 615.615L1178.42 616.115C1163.26 614.308 1147.92 617.41 1134.65 624.965C1133.63 606.887 1139.94 583.157 1134.37 575.215C1134.65 574.748 1134.85 574.233 1134.94 573.695C1135.07 573.006 1135.05 572.296 1134.88 571.616C1134.71 570.936 1134.4 570.301 1133.95 569.757C1133.51 569.212 1132.96 568.771 1132.32 568.463C1131.69 568.156 1131 567.99 1130.3 567.978C1129.6 567.965 1128.91 568.106 1128.26 568.39C1127.62 568.675 1127.05 569.096 1126.59 569.625C1126.13 570.153 1125.79 570.776 1125.59 571.45C1125.4 572.123 1125.35 572.832 1125.46 573.525C1112.84 581.097 1110.78 628.302 1094.34 625.65C1077.79 622.97 1102.32 555.745 1090.04 540.56C1090.41 540.018 1090.67 539.4 1090.79 538.75C1090.9 538.129 1090.9 537.491 1090.77 536.872C1090.64 536.253 1090.39 535.665 1090.04 535.142C1089.68 534.619 1089.23 534.172 1088.7 533.824C1088.17 533.477 1087.58 533.237 1086.96 533.119C1086.34 533 1085.7 533.005 1085.08 533.133C1084.46 533.261 1083.88 533.509 1083.35 533.864C1082.83 534.219 1082.38 534.674 1082.04 535.202C1081.69 535.73 1081.45 536.322 1081.33 536.942C1081.24 537.382 1081.22 537.831 1081.26 538.277C1063.05 547.487 1062.05 645.847 1035.8 641.445C1010.02 637.125 1038.56 559.295 1025.94 543.855C1026.03 543.611 1026.1 543.361 1026.15 543.105C1026.27 542.483 1026.26 541.845 1026.13 541.225C1026.01 540.605 1025.76 540.017 1025.4 539.494C1025.05 538.97 1024.59 538.522 1024.06 538.175C1023.53 537.827 1022.94 537.587 1022.32 537.469C1021.7 537.35 1021.06 537.355 1020.44 537.483C1019.82 537.611 1019.23 537.86 1018.71 538.216C1018.18 538.571 1017.74 539.026 1017.39 539.555C1017.04 540.084 1016.8 540.676 1016.68 541.297C1016.64 541.526 1016.62 541.758 1016.61 541.99C998.75 549.835 988.86 614.102 978.44 612.717L1004.25 477.672L1226.04 520.07ZM1063.07 500.787C1063.26 499.781 1063.15 498.74 1062.75 497.797C1062.35 496.853 1061.68 496.049 1060.82 495.486C1059.97 494.923 1058.96 494.627 1057.94 494.635C1056.91 494.642 1055.92 494.953 1055.07 495.529C1054.22 496.105 1053.56 496.919 1053.18 497.868C1052.79 498.817 1052.7 499.86 1052.9 500.863C1053.11 501.866 1053.61 502.786 1054.34 503.505C1055.07 504.224 1056 504.71 1057.01 504.902C1058.35 505.155 1059.75 504.865 1060.88 504.094C1062.02 503.323 1062.8 502.134 1063.07 500.787ZM1041.39 496.637C1041.58 495.631 1041.47 494.59 1041.07 493.647C1040.67 492.703 1040 491.899 1039.15 491.336C1038.29 490.773 1037.29 490.477 1036.26 490.485C1035.24 490.492 1034.24 490.803 1033.39 491.379C1032.55 491.955 1031.89 492.769 1031.5 493.718C1031.12 494.667 1031.02 495.71 1031.23 496.713C1031.44 497.716 1031.94 498.636 1032.67 499.355C1033.4 500.074 1034.32 500.56 1035.33 500.752C1036.68 501.01 1038.08 500.721 1039.21 499.95C1040.35 499.178 1041.13 497.987 1041.39 496.637ZM1019.72 492.5C1019.91 491.494 1019.8 490.454 1019.4 489.511C1019 488.569 1018.33 487.766 1017.48 487.204C1016.62 486.642 1015.62 486.346 1014.59 486.354C1013.57 486.363 1012.57 486.674 1011.72 487.25C1010.88 487.825 1010.22 488.639 1009.84 489.588C1009.45 490.537 1009.36 491.579 1009.56 492.581C1009.77 493.584 1010.27 494.503 1011 495.221C1011.73 495.939 1012.66 496.425 1013.66 496.617C1015.01 496.872 1016.41 496.582 1017.54 495.81C1018.68 495.039 1019.46 493.848 1019.72 492.5Z" fill="white"/>
<path d="M1220.5 636.53C1233.89 649.923 1241.42 668.089 1241.42 687.03C1241.42 705.971 1233.89 724.136 1220.5 737.53C1207.11 750.923 1188.94 758.448 1170 758.448C1151.06 758.448 1132.89 750.923 1119.5 737.53L1170 687.03L1220.5 636.53Z" fill="white"/>
<path d="M1220.5 636.53L1170 687.025L1119.5 636.525C1129.47 626.564 1142.17 619.772 1155.99 617.004C1169.81 614.236 1184.14 615.615 1197.18 620.967C1200.19 622.201 1203.12 623.645 1205.93 625.287C1211.25 628.389 1216.15 632.168 1220.5 636.53Z" fill="#7FA632"/>
<path d="M1196.07 604.265C1197.97 607.08 1198.41 612.04 1197.19 620.972C1191.19 618.505 1184.88 616.87 1178.44 616.112L1178.49 615.612C1180.95 608.767 1183.39 603.062 1187.11 601.39C1187.01 602.484 1187.28 603.581 1187.89 604.498C1188.49 605.416 1189.39 606.1 1190.44 606.435C1191.48 606.771 1192.61 606.738 1193.64 606.343C1194.67 605.948 1195.52 605.213 1196.07 604.262L1196.07 604.265Z" fill="white"/>
<path d="M1192.81 597.125C1194.06 597.364 1195.17 598.091 1195.89 599.146C1196.61 600.201 1196.88 601.499 1196.64 602.752C1196.54 603.286 1196.35 603.798 1196.07 604.265C1194.88 602.615 1193.11 601.484 1191.11 601.105C1189.78 600.731 1188.37 600.833 1187.11 601.392C1187.13 601.25 1187.15 601.097 1187.18 600.952C1187.3 600.331 1187.54 599.739 1187.88 599.21C1188.23 598.681 1188.68 598.225 1189.2 597.87C1189.72 597.514 1190.31 597.265 1190.93 597.137C1191.55 597.01 1192.19 597.005 1192.81 597.125Z" fill="#7FA632"/>
<path d="M1196.07 604.265C1195.52 605.216 1194.66 605.95 1193.64 606.345C1192.61 606.741 1191.48 606.773 1190.44 606.438C1189.39 606.102 1188.49 605.419 1187.88 604.501C1187.28 603.583 1187.01 602.486 1187.11 601.392C1188.37 600.833 1189.79 600.731 1191.11 601.105C1193.11 601.485 1194.88 602.616 1196.07 604.265Z" fill="#7FA632"/>
<path d="M1170 687.025L1119.5 737.525C1112.87 730.895 1107.6 723.023 1104.01 714.358C1100.42 705.692 1098.57 696.405 1098.57 687.025C1098.57 677.645 1100.42 668.357 1104.01 659.692C1107.6 651.027 1112.87 643.155 1119.5 636.525L1170 687.025Z" fill="#DBFF93"/>
<path d="M1131.13 568.07C1131.75 568.187 1132.34 568.426 1132.87 568.773C1133.4 569.12 1133.85 569.568 1134.21 570.091C1134.57 570.614 1134.81 571.202 1134.94 571.821C1135.07 572.44 1135.07 573.079 1134.96 573.7C1134.86 574.238 1134.66 574.753 1134.38 575.22C1133.52 573.931 1132.19 573.028 1130.67 572.702C1129.79 572.486 1128.88 572.448 1127.99 572.591C1127.1 572.733 1126.24 573.052 1125.48 573.53C1125.36 572.769 1125.42 571.99 1125.67 571.259C1125.91 570.529 1126.33 569.868 1126.88 569.333C1127.44 568.798 1128.11 568.403 1128.85 568.184C1129.59 567.964 1130.37 567.925 1131.13 568.07Z" fill="#7FA632"/>
<path d="M1134.38 575.22C1139.95 583.155 1133.63 606.885 1134.66 624.97C1125.43 630.237 1117.48 637.497 1111.41 646.221C1105.33 654.945 1101.28 664.914 1099.54 675.403L1055.06 666.903L971.146 650.863L977.603 617.068L978.441 612.725C988.861 614.11 998.748 549.843 1016.63 542C1016.58 543.147 1016.94 544.275 1017.65 545.178C1018.36 546.082 1019.37 546.702 1020.49 546.928C1021.62 547.153 1022.79 546.969 1023.79 546.408C1024.79 545.846 1025.56 544.946 1025.96 543.868C1038.58 559.308 1010.05 637.138 1035.82 641.458C1062.07 645.86 1063.07 547.5 1081.29 538.29C1081.38 539.274 1081.77 540.207 1082.41 540.961C1083.05 541.715 1083.9 542.253 1084.86 542.502C1085.82 542.752 1086.83 542.7 1087.75 542.355C1088.68 542.01 1089.48 541.387 1090.04 540.573C1102.32 555.758 1077.79 622.983 1094.34 625.663C1110.78 628.315 1112.84 581.11 1125.46 573.538C1125.61 574.521 1126.06 575.433 1126.75 576.149C1127.44 576.865 1128.34 577.349 1129.32 577.535C1130.29 577.72 1131.3 577.598 1132.21 577.185C1133.11 576.771 1133.87 576.088 1134.37 575.228L1134.38 575.22Z" fill="white"/>
<path d="M1130.67 572.702C1132.19 573.028 1133.52 573.931 1134.38 575.22C1133.88 576.08 1133.13 576.764 1132.22 577.177C1131.32 577.59 1130.31 577.712 1129.33 577.527C1128.35 577.342 1127.46 576.858 1126.77 576.142C1126.08 575.426 1125.63 574.513 1125.48 573.53C1126.24 573.052 1127.1 572.733 1127.99 572.591C1128.88 572.448 1129.79 572.486 1130.67 572.702Z" fill="#7FA632"/>
<path d="M1086.98 533.12C1088.23 533.361 1089.34 534.09 1090.06 535.146C1090.78 536.202 1091.05 537.5 1090.81 538.755C1090.69 539.406 1090.43 540.023 1090.05 540.565C1088.87 539.063 1087.18 538.046 1085.3 537.707C1083.93 537.438 1082.51 537.64 1081.27 538.282C1081.23 537.836 1081.26 537.387 1081.34 536.947C1081.46 536.325 1081.7 535.733 1082.05 535.204C1082.39 534.674 1082.84 534.219 1083.37 533.863C1083.89 533.508 1084.48 533.259 1085.1 533.131C1085.72 533.004 1086.36 533 1086.98 533.12Z" fill="#7FA632"/>
<path d="M1090.05 540.565C1089.49 541.38 1088.69 542.002 1087.76 542.347C1086.84 542.693 1085.83 542.744 1084.87 542.495C1083.92 542.245 1083.06 541.707 1082.42 540.953C1081.78 540.199 1081.39 539.267 1081.3 538.282C1082.53 537.64 1083.95 537.438 1085.32 537.707C1087.19 538.051 1088.87 539.067 1090.05 540.565Z" fill="#7FA632"/>
<path d="M1058.95 494.717C1059.96 494.909 1060.89 495.395 1061.62 496.114C1062.35 496.834 1062.85 497.754 1063.06 498.758C1063.27 499.763 1063.17 500.806 1062.79 501.757C1062.4 502.708 1061.75 503.524 1060.9 504.1C1060.05 504.677 1059.05 504.988 1058.02 504.996C1057 505.004 1055.99 504.707 1055.13 504.144C1054.28 503.58 1053.61 502.775 1053.21 501.83C1052.81 500.885 1052.7 499.842 1052.89 498.835C1053.15 497.488 1053.94 496.298 1055.07 495.527C1056.21 494.755 1057.6 494.465 1058.95 494.717Z" fill="white"/>
<path d="M1037.27 490.577C1038.28 490.769 1039.21 491.255 1039.94 491.974C1040.67 492.693 1041.17 493.612 1041.38 494.615C1041.58 495.619 1041.49 496.661 1041.1 497.611C1040.72 498.561 1040.06 499.375 1039.21 499.951C1038.37 500.526 1037.37 500.838 1036.34 500.846C1035.32 500.853 1034.31 500.557 1033.46 499.994C1032.6 499.431 1031.93 498.627 1031.53 497.684C1031.13 496.74 1031.02 495.699 1031.22 494.692C1031.47 493.344 1032.26 492.153 1033.39 491.381C1034.53 490.609 1035.92 490.32 1037.27 490.577Z" fill="white"/>
<path d="M1020.46 714.217L1035.87 795.877L1023.63 798.185L1008.24 716.525L1020.46 714.217Z" fill="#DBFF93"/>
<path d="M1022.34 537.47C1023.6 537.711 1024.7 538.44 1025.42 539.497C1026.14 540.554 1026.41 541.852 1026.17 543.108C1026.12 543.363 1026.05 543.614 1025.96 543.858C1024.87 542.48 1023.29 541.57 1021.56 541.313C1019.88 541.053 1018.17 541.288 1016.63 541.99C1016.64 541.758 1016.66 541.526 1016.71 541.298C1016.95 540.043 1017.67 538.935 1018.73 538.218C1019.79 537.5 1021.09 537.231 1022.34 537.47Z" fill="#7FA632"/>
<path d="M1021.55 541.315C1023.29 541.573 1024.87 542.483 1025.96 543.86C1025.56 544.938 1024.79 545.839 1023.79 546.4C1022.79 546.961 1021.62 547.146 1020.49 546.92C1019.37 546.695 1018.36 546.074 1017.65 545.171C1016.94 544.267 1016.58 543.14 1016.63 541.992C1018.17 541.291 1019.88 541.055 1021.55 541.315Z" fill="#7FA632"/>
<path d="M999.884 672.258L1012.12 669.95L1020.47 714.239L1008.24 716.547L999.884 672.258Z" fill="white"/>
<path d="M1015.6 486.438C1016.61 486.629 1017.54 487.115 1018.27 487.834C1019 488.553 1019.5 489.472 1019.71 490.476C1019.92 491.479 1019.82 492.521 1019.44 493.471C1019.05 494.421 1018.39 495.235 1017.55 495.811C1016.7 496.387 1015.7 496.698 1014.67 496.706C1013.65 496.714 1012.65 496.417 1011.79 495.854C1010.93 495.291 1010.26 494.487 1009.86 493.544C1009.47 492.6 1009.35 491.559 1009.55 490.553C1009.81 489.205 1010.59 488.015 1011.73 487.244C1012.86 486.472 1014.26 486.182 1015.6 486.438Z" fill="white"/>
<path d="M994.792 768.152L1001.25 802.402V802.41L989.027 804.71L982.562 770.457L994.792 768.152Z" fill="#DBFF93"/>
<path d="M965.277 678.781L977.509 676.474L994.808 768.163L982.576 770.471L965.277 678.781Z" fill="white"/>
<path d="M955.023 747.312L966.643 808.935L954.413 811.242L942.785 749.62L955.013 747.312H955.023Z" fill="#DBFF93"/>
<path d="M942.888 682.985L955.023 747.312H955.013L942.785 749.62L930.65 685.292L942.888 682.985Z" fill="white"/>
<path d="M938.94 484.967C942.65 499.023 941.595 513.912 935.94 527.305C926.206 549.934 923.632 575 928.563 599.135L928.825 600.405C929.489 603.547 928.927 606.825 927.254 609.567C925.581 612.308 922.924 614.307 919.826 615.155L917.753 615.695L917.728 615.602L892.85 520.655C891.043 530.355 885.565 530.305 880.925 526.89C883.953 520.045 883.335 508.975 877.038 510.622C870.32 512.372 874.91 522.462 880.925 526.89C878.568 532.232 873.988 535.002 868.175 527.12L893.048 622.08L893.073 622.165L891.468 622.587C890.464 622.837 889.435 622.964 888.4 622.967C885.722 622.961 883.114 622.102 880.957 620.515C878.799 618.927 877.203 616.693 876.4 614.137C868.882 590.257 854.229 569.252 834.413 553.95C826.111 547.505 819.466 539.175 815.026 529.649C810.586 520.123 808.481 509.676 808.885 499.174C809.288 488.673 812.189 478.418 817.346 469.261C822.504 460.104 829.769 452.308 838.541 446.519C847.312 440.731 857.337 437.116 867.785 435.975C878.232 434.833 888.801 436.198 898.616 439.957C908.43 443.715 917.207 449.759 924.22 457.586C931.233 465.414 936.279 474.8 938.94 484.967Z" fill="white"/>
<path d="M932.56 631.587C932.775 632.392 932.827 633.231 932.716 634.056C932.604 634.881 932.33 635.676 931.91 636.395C931.49 637.113 930.932 637.742 930.268 638.244C929.604 638.746 928.847 639.112 928.04 639.32L896.61 647.55C895.805 647.76 894.967 647.81 894.142 647.697C893.318 647.583 892.524 647.308 891.806 646.887C891.088 646.466 890.459 645.908 889.957 645.245C889.455 644.581 889.088 643.825 888.878 643.02C888.739 642.496 888.668 641.957 888.668 641.415C888.67 640.014 889.135 638.654 889.991 637.546C890.847 636.437 892.046 635.643 893.4 635.287L924.828 627.057C926.202 626.699 927.656 626.809 928.96 627.37C929.842 627.753 930.624 628.331 931.248 629.062C931.872 629.793 932.321 630.657 932.56 631.587Z" fill="#DBFF93"/>
<path d="M917.205 804.025L929.437 801.719L932.032 815.479L919.8 817.785L917.205 804.025Z" fill="#DBFF93"/>
<path d="M929.443 639.057C929.715 640.109 929.854 641.191 929.855 642.278C929.851 645.078 928.921 647.798 927.208 650.014C925.496 652.23 923.099 653.817 920.39 654.527L909.785 657.3C908.175 657.723 906.497 657.825 904.847 657.599C903.198 657.373 901.609 656.824 900.172 655.984C898.735 655.143 897.477 654.027 896.472 652.7C895.467 651.373 894.733 649.861 894.312 648.25L929.443 639.057Z" fill="#DBFF93"/>
<path d="M908.273 689.517L929.433 801.71L917.205 804.017L896.035 691.825L908.273 689.517Z" fill="white"/>
<path d="M929.333 619.223C929.466 619.748 929.534 620.288 929.535 620.83C929.535 622.232 929.071 623.595 928.215 624.705C927.359 625.815 926.159 626.61 924.802 626.965L893.375 635.195C892.418 635.449 891.414 635.472 890.446 635.264C889.478 635.055 888.573 634.62 887.805 633.995C887.068 633.398 886.474 632.645 886.064 631.791C885.655 630.936 885.441 630 885.438 629.053C885.44 627.652 885.905 626.292 886.761 625.183C887.617 624.075 888.816 623.281 890.17 622.925L891.473 622.588L893.077 622.165L917.752 615.708L919.825 615.168L921.598 614.703C923.223 614.278 924.949 614.516 926.4 615.363C927.85 616.211 928.904 617.599 929.333 619.223Z" fill="#DBFF93"/>
<path d="M917.72 615.615L917.745 615.708L893.07 622.165L893.045 622.08L868.173 527.12C873.988 535.003 878.568 532.233 880.923 526.89C885.563 530.305 891.04 530.355 892.848 520.655L917.72 615.615Z" fill="white"/>
<path d="M877.037 510.623C883.335 508.975 883.952 520.045 880.925 526.89C874.91 522.463 870.32 512.38 877.037 510.623Z" fill="white"/>
<path d="M864.963 729.192C866.483 737.261 864.736 745.603 860.107 752.384C855.478 759.166 848.346 763.831 840.278 765.355L838.673 756.827C842.827 756.045 846.672 754.097 849.761 751.211C852.849 748.325 855.053 744.62 856.115 740.528C857.178 736.437 857.055 732.128 855.76 728.104C854.466 724.08 852.054 720.507 848.805 717.802L854.635 711.387C860.018 715.962 863.665 722.249 864.963 729.192Z" fill="#DBFF93"/>
<path d="M854.635 711.387L848.805 717.803C845.115 714.72 840.527 712.914 835.727 712.655C830.926 712.395 826.17 713.695 822.17 716.362C818.169 719.028 815.139 722.917 813.531 727.448C811.923 731.979 811.825 736.908 813.25 741.5L813.112 741.543L804.697 743.133C804.467 742.32 804.282 741.5 804.122 740.665C802.933 734.369 803.726 727.859 806.393 722.033C809.061 716.207 813.471 711.352 819.014 708.139C824.558 704.926 830.962 703.512 837.343 704.093C843.724 704.674 849.768 707.221 854.64 711.382L854.635 711.387Z" fill="white"/>
<path d="M846.988 817.267L849.583 831.017L826.403 835.395L823.808 821.635L846.988 817.267Z" fill="#7FA632"/>
<path d="M843.125 796.765L845.72 810.515L822.53 814.892L819.938 801.135L843.125 796.765Z" fill="#7FA632"/>
<path d="M842.07 656.83C842.295 658.035 842.158 659.279 841.676 660.406C841.195 661.533 840.39 662.492 839.363 663.161C838.337 663.831 837.135 664.181 835.91 664.168C834.684 664.155 833.49 663.78 832.478 663.088C831.466 662.397 830.682 661.421 830.224 660.285C829.766 659.148 829.656 657.901 829.906 656.701C830.157 655.502 830.757 654.403 831.632 653.544C832.506 652.686 833.616 652.106 834.82 651.877C835.621 651.726 836.444 651.734 837.243 651.901C838.041 652.068 838.798 652.391 839.471 652.851C840.145 653.311 840.721 653.899 841.167 654.582C841.613 655.265 841.919 656.029 842.07 656.83Z" fill="white"/>
<path d="M839.255 776.265L841.85 790.012L818.66 794.39L816.067 780.632L839.255 776.265Z" fill="#7FA632"/>
<path d="M838.672 756.827L840.277 765.355C832.64 766.795 824.74 765.309 818.148 761.193C811.555 757.077 806.752 750.631 804.692 743.137L813.107 741.547L813.245 741.505C814.862 746.736 818.348 751.189 823.037 754.014C827.727 756.84 833.292 757.842 838.672 756.827Z" fill="#7FA632"/>
<path d="M816.108 661.722C816.335 662.927 816.2 664.172 815.72 665.3C815.24 666.428 814.436 667.388 813.41 668.059C812.384 668.73 811.182 669.082 809.957 669.071C808.731 669.059 807.536 668.684 806.523 667.994C805.51 667.303 804.725 666.328 804.266 665.191C803.807 664.054 803.696 662.807 803.946 661.607C804.196 660.407 804.796 659.308 805.67 658.449C806.544 657.589 807.654 657.009 808.858 656.78C809.659 656.628 810.481 656.636 811.279 656.802C812.077 656.968 812.834 657.29 813.507 657.749C814.18 658.208 814.757 658.795 815.203 659.477C815.649 660.159 815.957 660.922 816.108 661.722Z" fill="white"/>
<path d="M790.148 666.625C790.373 667.83 790.236 669.074 789.754 670.201C789.273 671.328 788.468 672.287 787.442 672.956C786.415 673.626 785.213 673.976 783.988 673.963C782.762 673.951 781.568 673.575 780.556 672.883C779.544 672.192 778.76 671.216 778.302 670.08C777.844 668.943 777.734 667.696 777.984 666.496C778.235 665.297 778.836 664.198 779.71 663.34C780.585 662.481 781.694 661.901 782.898 661.672C783.699 661.52 784.523 661.528 785.321 661.695C786.12 661.862 786.877 662.184 787.551 662.644C788.224 663.104 788.8 663.693 789.246 664.376C789.692 665.059 789.998 665.823 790.148 666.625Z" fill="white"/>
<path d="M919.817 615.167C922.915 614.32 925.573 612.321 927.246 609.579C928.919 606.837 929.481 603.56 928.817 600.417L928.555 599.147C923.623 575.012 926.198 549.946 935.932 527.317C940.71 515.939 942.209 503.452 940.259 491.266C938.31 479.081 932.989 467.684 924.9 458.365C916.81 449.046 906.274 442.177 894.484 438.534C882.693 434.891 870.119 434.62 858.183 437.751C846.246 440.883 835.424 447.292 826.94 456.253C818.457 465.215 812.65 476.372 810.177 488.462C807.703 500.551 808.663 513.092 812.946 524.666C817.229 536.239 824.665 546.383 834.412 553.95C854.224 569.254 868.872 590.258 876.387 614.137C877.19 616.693 878.786 618.927 880.944 620.515C883.101 622.102 885.709 622.961 888.387 622.967C889.421 622.964 890.451 622.837 891.455 622.587" stroke="#7FA632" stroke-width="1.352" stroke-linecap="round" stroke-linejoin="round"/>
<path d="M887.797 634C887.061 633.403 886.466 632.65 886.056 631.795C885.647 630.941 885.433 630.005 885.43 629.057C885.432 627.657 885.897 626.297 886.753 625.188C887.609 624.08 888.808 623.286 890.162 622.93L891.465 622.592L893.07 622.17L917.745 615.712L919.817 615.172L921.59 614.707C922.395 614.495 923.235 614.444 924.061 614.556C924.886 614.668 925.681 614.942 926.401 615.362C927.121 615.782 927.751 616.339 928.255 617.002C928.759 617.666 929.128 618.422 929.34 619.227C929.473 619.753 929.541 620.293 929.542 620.835C929.543 622.237 929.078 623.599 928.222 624.709C927.366 625.82 926.166 626.614 924.81 626.97L893.375 635.195C892.417 635.449 891.414 635.472 890.446 635.264C889.478 635.055 888.573 634.62 887.805 633.995" stroke="#7FA632" stroke-width="1.352" stroke-linecap="round" stroke-linejoin="round"/>
<path d="M892.851 520.655L917.721 615.615" stroke="#7FA632" stroke-width="1.352" stroke-linecap="round" stroke-linejoin="round"/>
<path d="M880.925 526.89C885.565 530.305 891.042 530.355 892.85 520.655" stroke="#7FA632" stroke-width="1.352" stroke-linecap="round" stroke-linejoin="round"/>
<path d="M880.925 526.89C883.952 520.045 883.335 508.975 877.037 510.623C870.32 512.38 874.91 522.463 880.925 526.89Z" stroke="#7FA632" stroke-width="1.352" stroke-linecap="round" stroke-linejoin="round"/>
<path d="M893.045 622.08L868.173 527.12C873.988 535.002 878.568 532.232 880.923 526.89" stroke="#7FA632" stroke-width="1.352" stroke-linecap="round" stroke-linejoin="round"/>
<path d="M928.96 627.37C930.169 627.896 931.184 628.786 931.864 629.915C932.543 631.045 932.854 632.358 932.753 633.672C932.652 634.987 932.144 636.237 931.299 637.249C930.454 638.261 929.316 638.985 928.04 639.32L896.61 647.55C895.805 647.76 894.967 647.81 894.142 647.697C893.318 647.583 892.524 647.308 891.806 646.887C891.088 646.466 890.459 645.908 889.957 645.245C889.455 644.581 889.088 643.825 888.878 643.02C888.739 642.496 888.668 641.957 888.668 641.415C888.67 640.014 889.135 638.654 889.991 637.546C890.847 636.437 892.046 635.643 893.4 635.287L924.828 627.057C926.202 626.699 927.656 626.809 928.96 627.37Z" stroke="#7FA632" stroke-width="1.352" stroke-linecap="round" stroke-linejoin="round"/>
<path d="M920.39 654.53L909.785 657.302C908.175 657.726 906.497 657.828 904.847 657.602C903.198 657.376 901.609 656.827 900.172 655.986C898.735 655.146 897.477 654.03 896.472 652.703C895.467 651.376 894.733 649.864 894.312 648.252L929.443 639.057C929.715 640.109 929.854 641.191 929.855 642.278C929.852 645.078 928.921 647.799 927.209 650.016C925.497 652.232 923.099 653.819 920.39 654.53Z" stroke="#7FA632" stroke-width="1.352" stroke-linecap="round" stroke-linejoin="round"/>
<path d="M1205.93 625.3C1221.76 634.541 1233.38 649.57 1238.35 667.216C1243.31 684.862 1241.23 703.746 1232.54 719.887C1223.85 736.028 1209.23 748.164 1191.77 753.736C1174.31 759.308 1155.36 757.88 1138.93 749.753C1122.5 741.627 1109.86 727.437 1103.69 710.176C1097.52 692.914 1098.29 673.931 1105.85 657.229C1113.4 640.526 1127.15 627.41 1144.19 620.646C1161.22 613.883 1180.22 613.999 1197.18 620.972C1200.19 622.206 1203.11 623.65 1205.93 625.292" stroke="#7FA632" stroke-width="1.352" stroke-linecap="round" stroke-linejoin="round"/>
<path d="M928.598 626.305L928.758 626.272L977.603 617.06" stroke="#7FA632" stroke-width="1.352" stroke-linecap="round" stroke-linejoin="round"/>
<path d="M1055.06 666.895L1082.45 812.112L805.538 864.355L766.41 656.898L887.798 633.995H887.805" stroke="#7FA632" stroke-width="1.352" stroke-linecap="round" stroke-linejoin="round"/>
<path d="M801.228 682.343L965.923 651.27" stroke="#7FA632" stroke-width="1.352" stroke-linecap="round" stroke-linejoin="round"/>
<path d="M790.148 666.625C790.373 667.83 790.236 669.074 789.754 670.201C789.273 671.328 788.468 672.287 787.442 672.956C786.415 673.626 785.213 673.976 783.988 673.963C782.762 673.951 781.568 673.575 780.556 672.883C779.544 672.192 778.76 671.216 778.302 670.08C777.844 668.943 777.734 667.696 777.984 666.496C778.235 665.297 778.836 664.198 779.71 663.34C780.585 662.481 781.694 661.901 782.898 661.672C783.699 661.52 784.523 661.528 785.321 661.695C786.12 661.862 786.877 662.184 787.551 662.644C788.224 663.104 788.8 663.693 789.246 664.376C789.692 665.059 789.998 665.823 790.148 666.625Z" stroke="#7FA632" stroke-width="1.352" stroke-linecap="round" stroke-linejoin="round"/>
<path d="M816.108 661.722C816.335 662.927 816.2 664.172 815.72 665.3C815.24 666.428 814.436 667.388 813.41 668.059C812.384 668.73 811.182 669.082 809.957 669.071C808.731 669.059 807.536 668.684 806.523 667.994C805.51 667.303 804.725 666.328 804.266 665.191C803.807 664.054 803.696 662.807 803.946 661.607C804.196 660.407 804.796 659.308 805.67 658.449C806.544 657.589 807.654 657.009 808.858 656.78C809.659 656.628 810.481 656.636 811.279 656.802C812.077 656.968 812.834 657.29 813.507 657.749C814.18 658.208 814.757 658.795 815.203 659.477C815.649 660.159 815.957 660.922 816.108 661.722Z" stroke="#7FA632" stroke-width="1.352" stroke-linecap="round" stroke-linejoin="round"/>
<path d="M842.07 656.83C842.295 658.035 842.158 659.279 841.676 660.406C841.195 661.533 840.39 662.492 839.363 663.161C838.337 663.831 837.135 664.181 835.91 664.168C834.684 664.155 833.49 663.78 832.478 663.088C831.466 662.397 830.682 661.421 830.224 660.285C829.766 659.148 829.656 657.901 829.906 656.701C830.157 655.502 830.757 654.403 831.632 653.544C832.506 652.686 833.616 652.106 834.82 651.877C835.621 651.726 836.444 651.734 837.243 651.901C838.041 652.068 838.798 652.391 839.471 652.851C840.145 653.311 840.721 653.899 841.167 654.582C841.613 655.265 841.919 656.029 842.07 656.83Z" stroke="#7FA632" stroke-width="1.352" stroke-linecap="round" stroke-linejoin="round"/>
<path d="M1099.54 675.395L1055.06 666.895L971.146 650.855L977.603 617.06L978.441 612.717L1004.25 477.672L1226.04 520.07L1205.93 625.292V625.3" stroke="#7FA632" stroke-width="1.352" stroke-linecap="round" stroke-linejoin="round"/>
<path d="M1024.29 506.135L1200.75 539.863" stroke="#7FA632" stroke-width="1.352" stroke-linecap="round" stroke-linejoin="round"/>
<path d="M1019.72 492.5C1019.53 493.506 1019.04 494.432 1018.32 495.161C1017.6 495.891 1016.69 496.391 1015.68 496.598C1014.68 496.806 1013.64 496.711 1012.69 496.326C1011.74 495.942 1010.93 495.284 1010.35 494.437C1009.78 493.59 1009.47 492.592 1009.46 491.568C1009.45 490.544 1009.75 489.541 1010.31 488.685C1010.87 487.829 1011.67 487.159 1012.62 486.76C1013.56 486.361 1014.6 486.25 1015.61 486.442C1016.27 486.57 1016.91 486.828 1017.48 487.201C1018.05 487.574 1018.54 488.056 1018.92 488.619C1019.3 489.181 1019.57 489.813 1019.7 490.479C1019.84 491.145 1019.85 491.832 1019.72 492.5Z" stroke="#7FA632" stroke-width="1.352" stroke-linecap="round" stroke-linejoin="round"/>
<path d="M1041.39 496.637C1041.2 497.644 1040.71 498.57 1039.99 499.3C1039.27 500.03 1038.35 500.531 1037.35 500.738C1036.35 500.946 1035.31 500.851 1034.36 500.466C1033.41 500.082 1032.59 499.424 1032.02 498.577C1031.44 497.729 1031.13 496.73 1031.12 495.706C1031.11 494.681 1031.41 493.678 1031.97 492.821C1032.54 491.965 1033.34 491.295 1034.28 490.896C1035.23 490.496 1036.27 490.385 1037.27 490.577C1037.94 490.704 1038.58 490.961 1039.15 491.334C1039.72 491.708 1040.21 492.19 1040.59 492.753C1040.97 493.316 1041.24 493.949 1041.38 494.615C1041.51 495.282 1041.52 495.969 1041.39 496.637Z" stroke="#7FA632" stroke-width="1.352" stroke-linecap="round" stroke-linejoin="round"/>
<path d="M1063.06 500.787C1062.87 501.793 1062.38 502.718 1061.66 503.447C1060.94 504.175 1060.02 504.674 1059.02 504.88C1058.02 505.086 1056.98 504.99 1056.03 504.604C1055.08 504.218 1054.27 503.56 1053.69 502.712C1053.12 501.865 1052.81 500.866 1052.8 499.842C1052.79 498.818 1053.09 497.814 1053.65 496.959C1054.21 496.103 1055.02 495.434 1055.96 495.035C1056.9 494.636 1057.94 494.525 1058.95 494.717C1060.3 494.978 1061.49 495.763 1062.26 496.901C1063.03 498.039 1063.32 499.437 1063.06 500.787Z" stroke="#7FA632" stroke-width="1.352" stroke-linecap="round" stroke-linejoin="round"/>
<path d="M1196.07 604.265C1197.96 607.08 1198.4 612.04 1197.19 620.972" stroke="#7FA632" stroke-width="1.352" stroke-linecap="round" stroke-linejoin="round"/>
<path d="M1178.49 615.615C1180.95 608.77 1183.39 603.065 1187.11 601.392" stroke="#7FA632" stroke-width="1.352" stroke-linecap="round" stroke-linejoin="round"/>
<path d="M1134.38 575.22C1139.95 583.155 1133.63 606.885 1134.66 624.97" stroke="#7FA632" stroke-width="1.352" stroke-linecap="round" stroke-linejoin="round"/>
<path d="M1090.05 540.565C1102.33 555.75 1077.8 622.975 1094.35 625.655C1110.79 628.307 1112.85 581.102 1125.48 573.53" stroke="#7FA632" stroke-width="1.352" stroke-linecap="round" stroke-linejoin="round"/>
<path d="M1025.96 543.86C1038.58 559.3 1010.05 637.13 1035.82 641.45C1062.07 645.852 1063.07 547.492 1081.29 538.282" stroke="#7FA632" stroke-width="1.352" stroke-linecap="round" stroke-linejoin="round"/>
<path d="M978.44 612.717C988.86 614.102 998.748 549.835 1016.63 541.992" stroke="#7FA632" stroke-width="1.352" stroke-linecap="round" stroke-linejoin="round"/>
<path d="M854.635 711.387C858.319 714.531 861.213 718.495 863.087 722.962C864.96 727.428 865.759 732.271 865.419 737.102C865.08 741.933 863.612 746.617 861.134 750.777C858.655 754.938 855.235 758.459 851.148 761.057C847.061 763.655 842.421 765.258 837.602 765.737C832.783 766.216 827.919 765.558 823.4 763.815C818.882 762.072 814.835 759.293 811.586 755.702C808.337 752.111 805.976 747.807 804.692 743.138C804.462 742.325 804.277 741.505 804.117 740.67C802.928 734.374 803.721 727.864 806.389 722.038C809.056 716.212 813.466 711.357 819.009 708.144C824.553 704.931 830.957 703.517 837.338 704.098C843.719 704.679 849.763 707.226 854.635 711.387Z" stroke="#7FA632" stroke-width="1.352" stroke-linecap="round" stroke-linejoin="round"/>
<path d="M848.805 717.802C852.699 721.044 855.371 725.516 856.384 730.48C857.396 735.444 856.687 740.605 854.374 745.112C852.061 749.619 848.281 753.204 843.658 755.276C839.035 757.348 833.844 757.784 828.94 756.511C824.036 755.238 819.712 752.333 816.681 748.274C813.649 744.215 812.09 739.245 812.261 734.182C812.432 729.118 814.322 724.264 817.621 720.419C820.919 716.574 825.429 713.967 830.408 713.027C833.637 712.409 836.962 712.517 840.144 713.343C843.326 714.168 846.285 715.692 848.805 717.802Z" stroke="#7FA632" stroke-width="1.352" stroke-linecap="round" stroke-linejoin="round"/>
<path d="M838.673 756.827L840.278 765.355" stroke="#7FA632" stroke-width="1.352" stroke-linecap="round" stroke-linejoin="round"/>
<path d="M848.805 717.802L854.635 711.387" stroke="#7FA632" stroke-width="1.352" stroke-linecap="round" stroke-linejoin="round"/>
<path d="M813.107 741.547L804.692 743.137L804.59 743.155" stroke="#7FA632" stroke-width="1.352" stroke-linecap="round" stroke-linejoin="round"/>
<path d="M1035.87 795.877L1061.38 791.062L1038.14 667.815" stroke="#7FA632" stroke-width="1.352" stroke-linecap="round" stroke-linejoin="round"/>
<path d="M1001.25 802.402L1023.63 798.185" stroke="#7FA632" stroke-width="1.352" stroke-linecap="round" stroke-linejoin="round"/>
<path d="M989.027 804.71L1001.25 802.41" stroke="#7FA632" stroke-width="1.352" stroke-linecap="round" stroke-linejoin="round"/>
<path d="M966.643 808.935L989.028 804.717" stroke="#7FA632" stroke-width="1.352" stroke-linecap="round" stroke-linejoin="round"/>
<path d="M932.027 815.467L954.412 811.242" stroke="#7FA632" stroke-width="1.352" stroke-linecap="round" stroke-linejoin="round"/>
<path d="M896.646 822.142L919.801 817.775" stroke="#7FA632" stroke-width="1.352" stroke-linecap="round" stroke-linejoin="round"/>
<path d="M841.85 790.012L818.66 794.39L816.067 780.632L839.255 776.265L841.85 790.012Z" stroke="#7FA632" stroke-width="1.352" stroke-linecap="round" stroke-linejoin="round"/>
<path d="M845.72 810.515L822.53 814.892L819.938 801.135L843.125 796.765L845.72 810.515Z" stroke="#7FA632" stroke-width="1.352" stroke-linecap="round" stroke-linejoin="round"/>
<path d="M849.583 831.017L826.403 835.395L823.808 821.635L846.988 817.267L849.583 831.017Z" stroke="#7FA632" stroke-width="1.352" stroke-linecap="round" stroke-linejoin="round"/>
<path d="M932.028 815.467L919.8 817.775L917.205 804.017L896.035 691.825L908.273 689.517L929.433 801.71L932.028 815.467Z" stroke="#7FA632" stroke-width="1.352" stroke-linecap="round" stroke-linejoin="round"/>
<path d="M966.643 808.935L954.413 811.242L942.785 749.62L930.65 685.292L942.888 682.985L955.023 747.312L966.643 808.935Z" stroke="#7FA632" stroke-width="1.352" stroke-linecap="round" stroke-linejoin="round"/>
<path d="M1001.26 802.41L989.028 804.717V804.71L982.563 770.457L965.266 678.767L977.493 676.46L994.793 768.152L1001.26 802.402V802.41Z" stroke="#7FA632" stroke-width="1.352" stroke-linecap="round" stroke-linejoin="round"/>
<path d="M1035.87 795.877L1023.64 798.185L1008.24 716.525L999.878 672.235L1012.11 669.927L1020.47 714.217L1035.87 795.877Z" stroke="#7FA632" stroke-width="1.352" stroke-linecap="round" stroke-linejoin="round"/>
<path d="M917.205 804.017L929.433 801.71" stroke="#7FA632" stroke-width="1.352" stroke-linecap="round" stroke-linejoin="round"/>
<path d="M942.785 749.62L955.013 747.312" stroke="#7FA632" stroke-width="1.352" stroke-linecap="round" stroke-linejoin="round"/>
<path d="M982.562 770.457L994.792 768.152" stroke="#7FA632" stroke-width="1.352" stroke-linecap="round" stroke-linejoin="round"/>
<path d="M1008.24 716.525L1020.46 714.217" stroke="#7FA632" stroke-width="1.352" stroke-linecap="round" stroke-linejoin="round"/>
<path d="M1220.5 636.53L1170 687.025L1119.51 737.517" stroke="#7FA632" stroke-width="1.352" stroke-linecap="round" stroke-linejoin="round"/>
<path d="M1119.51 636.53L1170 687.025" stroke="#7FA632" stroke-width="1.352" stroke-linecap="round" stroke-linejoin="round"/>
<path d="M854.06 426.725L847.95 404.075" stroke="#7FA632" stroke-width="1.352" stroke-linecap="round" stroke-linejoin="round"/>
<path d="M880.538 426.725L883.006 406.417" stroke="#7FA632" stroke-width="1.352" stroke-linecap="round" stroke-linejoin="round"/>
<path d="M830.685 442.307L817.232 426.725" stroke="#7FA632" stroke-width="1.352" stroke-linecap="round" stroke-linejoin="round"/>
<defs>
<filter id="filter0_f_765_259" x="363" y="0" width="1050" height="1050" filterUnits="userSpaceOnUse" color-interpolation-filters="sRGB">
<feFlood flood-opacity="0" result="BackgroundImageFix"/>
<feBlend mode="normal" in="SourceGraphic" in2="BackgroundImageFix" result="shape"/>
<feGaussianBlur stdDeviation="150" result="effect1_foregroundBlur_765_259"/>
</filter>
</defs>
</svg>
