<svg width="762" height="262" viewBox="0 0 762 262" fill="none" xmlns="http://www.w3.org/2000/svg">
<path d="M60 121.849L61.2256 120.984L60 121.849ZM95.5 164.182L96.4769 163.044L95.5 164.182ZM134.5 190.141L135.12 188.775L134.5 190.141ZM191 204.518L191.007 203.018L191 204.518ZM239 194.933L238.399 193.559L239 194.933ZM269 174.565L270.138 175.543L269 174.565ZM282 145.012L280.501 144.953L282 145.012ZM271.5 115.06L272.761 114.247L271.5 115.06ZM252 94.2927L252.669 92.9501L252 94.2927ZM239 89.8996L238.986 91.3996L239 89.8996ZM308 204.518L308.531 203.115L308.506 203.106L308.481 203.097L308 204.518ZM361.5 222.889L361.919 221.448L361.5 222.889ZM434 239.263L434.25 237.784L434 239.263ZM514 248.049L514.115 246.553L514 248.049ZM652 250.844V249.344H651.988L651.977 249.345L652 250.844ZM221.5 93.4939L222.115 94.8622L221.5 93.4939ZM245.5 174.565L246.412 173.375L245.5 174.565ZM217.5 146.21L218.845 145.545L218.831 145.517L218.816 145.49L217.5 146.21ZM214 139.82L212.605 140.372L212.639 140.459L212.684 140.541L214 139.82ZM211 132.232L209.554 132.63L209.575 132.708L209.605 132.784L211 132.232ZM208.5 121.45L209.98 121.204L208.5 121.45ZM761.061 251.905C761.646 251.319 761.646 250.37 761.061 249.784L751.515 240.238C750.929 239.652 749.979 239.652 749.393 240.238C748.808 240.824 748.808 241.773 749.393 242.359L757.879 250.844L749.393 259.33C748.808 259.915 748.808 260.865 749.393 261.451C749.979 262.037 750.929 262.037 751.515 261.451L761.061 251.905ZM2 1C0.614735 1.57536 0.614737 1.57537 0.61474 1.57537C0.614743 1.57538 0.614747 1.57539 0.614753 1.5754C0.614848 1.57563 0.614698 1.57527 0.614804 1.57553C0.614878 1.57571 0.614891 1.57574 0.615011 1.57603C0.615201 1.57648 0.615464 1.57712 0.615837 1.57801C0.616591 1.57983 0.617648 1.58238 0.619131 1.58594C0.62206 1.593 0.626422 1.6035 0.632231 1.61749C0.643835 1.64542 0.661165 1.68715 0.684032 1.7422C0.729774 1.85233 0.797694 2.01586 0.886429 2.2295C1.0639 2.65678 1.3246 3.28446 1.65755 4.08609L4.42808 2.93536C4.09513 2.13374 3.83442 1.50605 3.65696 1.07878C3.56823 0.865151 3.5003 0.701597 3.45456 0.59148C3.4317 0.536434 3.41436 0.49469 3.40276 0.466762C3.39697 0.452811 3.39257 0.442237 3.38966 0.43522C3.38821 0.431728 3.38709 0.429029 3.38637 0.42729C3.38599 0.426379 3.38574 0.425772 3.38554 0.425302C3.38549 0.425181 3.38534 0.424814 3.38533 0.424804C3.38532 0.424776 3.38531 0.424752 3.3853 0.424731C3.38529 0.42471 3.38529 0.424693 3.38528 0.424679C3.38528 0.424665 3.38527 0.424655 3.38527 0.424648C3.38527 0.424641 3.38526 0.424638 2 1ZM3.76238 9.15375C4.39287 10.6718 5.09911 12.3721 5.86315 14.2117L8.63368 13.0609C7.86963 11.2214 7.16341 9.52104 6.53291 8.00303L3.76238 9.15375ZM7.96365 19.2689C8.6396 20.8963 9.3423 22.5882 10.0627 24.3227L12.8333 23.172C12.1128 21.4375 11.4101 19.7456 10.7342 18.1182L7.96365 19.2689ZM12.1644 29.3828C12.859 31.055 13.5615 32.7464 14.2647 34.4396L17.0352 33.2888C16.332 31.5957 15.6295 29.9043 14.9349 28.2321L12.1644 29.3828ZM16.3654 39.4973C17.0748 41.2052 17.7774 42.8968 18.4656 44.5538L21.2361 43.403C20.5479 41.7461 19.8453 40.0545 19.1359 38.3466L16.3654 39.4973ZM20.5672 49.6137C20.9235 50.4716 21.2731 51.3133 21.6147 52.1358L24.3853 50.9851C24.0436 50.1626 23.6941 49.3209 23.3377 48.463L20.5672 49.6137ZM21.6147 52.1358C21.9296 52.8939 22.248 53.6595 22.5701 54.4321L25.3391 53.2777C25.0177 52.5067 24.6998 51.7424 24.3853 50.9851L21.6147 52.1358ZM24.4974 59.0265C25.134 60.5327 25.7861 62.0629 26.4558 63.6155L29.2105 62.4274C28.5442 60.8826 27.895 59.3593 27.2608 57.8586L24.4974 59.0265ZM28.4521 68.1873C29.1155 69.6867 29.7962 71.2049 30.496 72.7406L33.226 71.4967C32.5311 69.9718 31.8549 68.4637 31.1956 66.9735L28.4521 68.1873ZM32.5944 77.2725C33.2946 78.76 34.0134 80.2623 34.7524 81.7785L37.4491 80.4641C36.7164 78.9608 36.0034 77.4707 35.3087 75.9948L32.5944 77.2725ZM36.9742 86.255C37.7172 87.7249 38.4799 89.2065 39.2634 90.6989L41.9196 89.3044C41.1435 87.8261 40.3879 86.3582 39.6515 84.9016L36.9742 86.255ZM41.6228 95.1071C42.4128 96.5549 43.223 98.0118 44.0547 99.4772L46.6638 97.9965C45.8406 96.546 45.0384 95.1036 44.2562 93.6701L41.6228 95.1071ZM46.561 103.807C47.4005 105.229 48.2606 106.658 49.1425 108.093L51.6986 106.522C50.8261 105.102 49.975 103.689 49.1443 102.282L46.561 103.807ZM51.7979 112.33C52.6874 113.721 53.5979 115.118 54.5302 116.52L57.0281 114.858C56.106 113.472 55.2054 112.09 54.3255 110.714L51.7979 112.33ZM57.3402 120.661C57.8129 121.345 58.291 122.029 58.7744 122.714L61.2256 120.984C60.7475 120.307 60.2747 119.63 59.8072 118.954L57.3402 120.661ZM58.7744 122.714C59.2252 123.353 59.668 123.982 60.1036 124.603L62.5593 122.88C62.1224 122.257 61.6781 121.625 61.2256 120.984L58.7744 122.714ZM62.7495 128.387C63.6544 129.684 64.534 130.946 65.3956 132.176L67.8529 130.455C66.9933 129.228 66.1159 127.969 65.2099 126.671L62.7495 128.387ZM68.0649 135.959C68.9772 137.24 69.8809 138.492 70.7872 139.722L73.2029 137.944C72.3079 136.728 71.4136 135.489 70.508 134.218L68.0649 135.959ZM73.5885 143.44C74.5372 144.667 75.5015 145.881 76.494 147.089L78.8117 145.184C77.84 144.001 76.8943 142.811 75.9621 141.605L73.5885 143.44ZM79.5192 150.646C80.5288 151.793 81.5747 152.941 82.668 154.098L84.8484 152.037C83.7797 150.906 82.7575 149.784 81.7708 148.664L79.5192 150.646ZM85.9365 157.439C87.0095 158.5 88.1287 159.573 89.3022 160.663L91.3444 158.466C90.193 157.396 89.0961 156.344 88.0457 155.306L85.9365 157.439ZM92.7629 163.791C93.3371 164.296 93.9235 164.806 94.5231 165.32L96.4769 163.044C95.8865 162.537 95.3092 162.035 94.7445 161.538L92.7629 163.791ZM94.5231 165.32C95.131 165.842 95.7285 166.354 96.317 166.856L98.2647 164.574C97.6788 164.074 97.0833 163.564 96.4769 163.044L94.5231 165.32ZM99.9198 169.904C101.164 170.945 102.377 171.945 103.572 172.91L105.457 170.576C104.278 169.624 103.079 168.636 101.845 167.603L99.9198 169.904ZM107.298 175.844C108.57 176.817 109.839 177.757 111.124 178.672L112.864 176.228C111.609 175.335 110.368 174.415 109.121 173.462L107.298 175.844ZM115.059 181.358C116.369 182.214 117.71 183.052 119.101 183.881L120.637 181.304C119.282 180.497 117.975 179.68 116.7 178.847L115.059 181.358ZM123.239 186.239C124.587 186.974 125.987 187.707 127.453 188.443L128.799 185.762C127.362 185.04 125.992 184.323 124.674 183.605L123.239 186.239ZM131.722 190.512C132.426 190.842 133.145 191.173 133.88 191.507L135.12 188.775C134.396 188.446 133.687 188.12 132.994 187.795L131.722 190.512ZM133.88 191.507C134.637 191.85 135.384 192.188 136.122 192.52L137.353 189.784C136.618 189.454 135.874 189.117 135.12 188.775L133.88 191.507ZM140.62 194.517C142.16 195.19 143.668 195.836 145.154 196.455L146.306 193.685C144.84 193.075 143.348 192.436 141.821 191.768L140.62 194.517ZM149.737 198.298C151.298 198.902 152.845 199.473 154.388 200.01L155.374 197.177C153.867 196.652 152.352 196.093 150.819 195.5L149.737 198.298ZM159.11 201.547C160.696 202.026 162.291 202.468 163.905 202.873L164.635 199.963C163.068 199.57 161.52 199.141 159.978 198.675L159.11 201.547ZM168.763 203.962C170.366 204.279 171.997 204.56 173.669 204.805L174.104 201.837C172.481 201.599 170.899 201.326 169.345 201.019L168.763 203.962ZM178.608 205.41C180.213 205.569 181.859 205.697 183.556 205.794L183.727 202.799C182.071 202.704 180.466 202.579 178.904 202.424L178.608 205.41ZM188.513 205.986C189.328 206.003 190.154 206.014 190.993 206.018L191.007 203.018C190.184 203.014 189.374 203.003 188.576 202.987L188.513 205.986ZM190.993 206.018C191.837 206.022 192.667 206.022 193.484 206.017L193.465 203.017C192.66 203.022 191.841 203.022 191.007 203.018L190.993 206.018ZM198.462 205.92C200.173 205.863 201.831 205.779 203.447 205.667L203.239 202.674C201.662 202.784 200.04 202.866 198.361 202.922L198.462 205.92ZM208.43 205.214C210.117 205.022 211.767 204.792 213.396 204.521L212.904 201.562C211.328 201.824 209.729 202.047 208.091 202.233L208.43 205.214ZM218.325 203.562C219.949 203.198 221.567 202.789 223.192 202.331L222.378 199.444C220.804 199.887 219.24 200.283 217.67 200.634L218.325 203.562ZM227.979 200.85C229.523 200.332 231.087 199.768 232.683 199.156L231.61 196.355C230.05 196.953 228.525 197.502 227.024 198.007L227.979 200.85ZM237.31 197.292C238.064 196.974 238.828 196.646 239.601 196.307L238.399 193.559C237.636 193.893 236.885 194.215 236.144 194.528L237.31 197.292ZM239.601 196.307C240.319 195.993 241.021 195.683 241.709 195.376L240.486 192.637C239.806 192.94 239.111 193.247 238.399 193.559L239.601 196.307ZM245.902 193.452C247.347 192.768 248.728 192.086 250.055 191.395L248.669 188.734C247.381 189.405 246.035 190.07 244.617 190.742L245.902 193.452ZM254.132 189.133C255.493 188.325 256.803 187.488 258.076 186.603L256.365 184.14C255.154 184.98 253.906 185.779 252.601 186.553L254.132 189.133ZM261.825 183.77C263.011 182.796 264.175 181.761 265.332 180.649L263.254 178.486C262.151 179.545 261.045 180.528 259.921 181.452L261.825 183.77ZM268.592 177.292C269.106 176.727 269.62 176.145 270.138 175.543L267.862 173.588C267.363 174.169 266.867 174.73 266.373 175.273L268.592 177.292ZM270.138 175.543C270.76 174.819 271.358 174.108 271.934 173.408L269.616 171.503C269.056 172.184 268.472 172.878 267.862 173.588L270.138 175.543ZM275.359 168.968C276.503 167.367 277.521 165.788 278.416 164.194L275.8 162.725C274.966 164.21 274.009 165.697 272.918 167.224L275.359 168.968ZM280.857 159.02C281.533 157.257 282.073 155.44 282.487 153.525L279.555 152.891C279.172 154.66 278.675 156.33 278.056 157.947L280.857 159.02ZM283.322 147.895C283.402 146.98 283.461 146.039 283.499 145.071L280.501 144.953C280.465 145.877 280.409 146.769 280.333 147.633L283.322 147.895ZM283.499 145.071C283.536 144.115 283.547 143.188 283.531 142.285L280.531 142.338C280.546 143.181 280.537 144.052 280.501 144.953L283.499 145.071ZM283.054 136.706C282.752 134.802 282.311 132.996 281.742 131.239L278.888 132.163C279.41 133.777 279.814 135.431 280.092 137.177L283.054 136.706ZM279.658 126.054C278.891 124.443 278.023 122.833 277.065 121.185L274.471 122.692C275.399 124.29 276.226 125.825 276.949 127.343L279.658 126.054ZM274.222 116.532C273.75 115.787 273.263 115.026 272.761 114.247L270.239 115.872C270.738 116.647 271.221 117.401 271.688 118.138L274.222 116.532ZM272.761 114.247C272.317 113.558 271.889 112.883 271.472 112.221L268.934 113.819C269.354 114.486 269.787 115.171 270.239 115.872L272.761 114.247ZM268.889 108.124C267.981 106.714 267.072 105.358 266.102 104.056L263.696 105.849C264.608 107.073 265.477 108.366 266.366 109.747L268.889 108.124ZM262.863 100.221C261.734 99.0555 260.491 97.9414 259.079 96.872L257.267 99.2635C258.553 100.237 259.682 101.249 260.709 102.309L262.863 100.221ZM254.875 94.1217C254.174 93.7247 253.44 93.3344 252.669 92.9501L251.331 95.6352C252.057 95.9967 252.743 96.3621 253.395 96.7316L254.875 94.1217ZM252.669 92.9501C251.565 92.4002 250.588 91.8791 249.6 91.3695L248.225 94.0362C249.165 94.5207 250.206 95.0744 251.331 95.6352L252.669 92.9501ZM242.737 88.757C241.599 88.5369 240.376 88.4119 239.014 88.3997L238.986 91.3996C240.178 91.4103 241.219 91.519 242.168 91.7025L242.737 88.757ZM239.014 88.3997C238.235 88.3927 237.476 88.3875 236.729 88.3943L236.756 91.3942C237.474 91.3877 238.21 91.3926 238.986 91.3996L239.014 88.3997ZM232.047 88.6842C230.595 88.8739 229.084 89.1796 227.413 89.6635L228.248 92.545C229.773 92.1032 231.135 91.8288 232.436 91.6589L232.047 88.6842ZM223.009 91.2144C222.33 91.4911 221.623 91.7941 220.885 92.1257L222.115 94.8622C222.823 94.544 223.497 94.2551 224.141 93.9928L223.009 91.2144ZM220.885 92.1257C219.875 92.5794 218.904 93.1333 217.978 93.7614L219.662 96.2443C220.461 95.7024 221.281 95.2369 222.115 94.8622L220.885 92.1257ZM213.111 98.0922C211.647 99.7346 210.366 101.518 209.311 103.287L211.888 104.823C212.852 103.206 214.022 101.578 215.351 100.088L213.111 98.0922ZM206.603 109.205C206.227 110.433 206 111.619 206 112.664H209C209 112.02 209.146 111.145 209.471 110.084L206.603 109.205ZM206 112.664C206 113.541 206.014 114.288 206.042 114.943L209.039 114.818C209.014 114.213 209 113.509 209 112.664H206ZM206.625 119.561C206.747 120.18 206.88 120.848 207.02 121.695L209.98 121.204C209.831 120.307 209.691 119.599 209.568 118.98L206.625 119.561ZM207.02 121.695C207.164 122.564 207.351 123.516 207.556 124.479L210.491 123.855C210.291 122.919 210.114 122.014 209.98 121.204L207.02 121.695ZM208.843 129.926C209.046 130.724 209.223 131.398 209.35 131.874C209.413 132.112 209.464 132.3 209.499 132.429C209.516 132.493 209.53 132.543 209.539 132.577C209.544 132.594 209.547 132.607 209.55 132.616C209.551 132.62 209.552 132.624 209.552 132.626C209.553 132.627 209.553 132.628 209.553 132.629C209.553 132.629 209.553 132.629 209.553 132.629C209.553 132.629 209.553 132.629 209.553 132.63C209.554 132.63 209.554 132.63 209.554 132.63C209.554 132.63 209.554 132.63 211 132.232C212.446 131.835 212.446 131.835 212.446 131.835C212.446 131.835 212.446 131.835 212.446 131.835C212.446 131.835 212.446 131.835 212.446 131.835C212.446 131.834 212.446 131.834 212.446 131.833C212.445 131.831 212.444 131.828 212.443 131.824C212.441 131.816 212.438 131.804 212.433 131.788C212.425 131.756 212.412 131.708 212.395 131.645C212.361 131.52 212.311 131.335 212.249 131.102C212.125 130.635 211.95 129.971 211.75 129.186L208.843 129.926ZM209.605 132.784L210.355 134.681L213.145 133.578L212.395 131.681L209.605 132.784ZM211.855 138.475L212.605 140.372L215.395 139.269L214.645 137.372L211.855 138.475ZM212.684 140.541L213.559 142.139L216.191 140.697L215.316 139.1L212.684 140.541ZM215.309 145.333L216.184 146.931L218.816 145.49L217.941 143.892L215.309 145.333ZM216.155 146.875C216.546 147.665 216.945 148.429 217.353 149.169L219.98 147.72C219.594 147.02 219.216 146.296 218.845 145.545L216.155 146.875ZM220.075 153.581C221.082 155.042 222.135 156.404 223.238 157.696L225.519 155.747C224.481 154.532 223.491 153.251 222.546 151.879L220.075 153.581ZM226.781 161.465C227.999 162.65 229.269 163.79 230.592 164.912L232.532 162.625C231.251 161.538 230.033 160.444 228.873 159.315L226.781 161.465ZM234.551 168.122C235.842 169.131 237.182 170.15 238.569 171.199L240.378 168.805C238.994 167.76 237.67 166.752 236.399 165.758L234.551 168.122ZM242.588 174.233C243.244 174.73 243.91 175.237 244.588 175.756L246.412 173.375C245.73 172.852 245.059 172.341 244.4 171.842L242.588 174.233ZM244.588 175.756C245.246 176.261 245.925 176.763 246.623 177.262L248.369 174.823C247.697 174.341 247.044 173.858 246.412 173.375L244.588 175.756ZM250.797 180.087C252.179 180.974 253.61 181.85 255.078 182.714L256.6 180.129C255.161 179.282 253.763 178.426 252.418 177.562L250.797 180.087ZM259.439 185.189C260.892 185.985 262.37 186.769 263.861 187.538L265.236 184.872C263.765 184.113 262.31 183.341 260.88 182.558L259.439 185.189ZM268.33 189.781C269.832 190.515 271.339 191.233 272.84 191.933L274.108 189.215C272.622 188.522 271.132 187.811 269.648 187.086L268.33 189.781ZM277.383 194.007C278.927 194.697 280.454 195.365 281.953 196.009L283.137 193.252C281.651 192.614 280.137 191.952 278.607 191.268L277.383 194.007ZM286.547 197.946C288.142 198.605 289.687 199.232 291.167 199.824L292.28 197.037C290.81 196.451 289.277 195.828 287.694 195.174L286.547 197.946ZM295.817 201.648C297.516 202.303 299.079 202.892 300.471 203.409L301.516 200.597C300.134 200.084 298.583 199.499 296.896 198.848L295.817 201.648ZM305.178 205.121C305.925 205.386 306.509 205.59 306.907 205.728C307.105 205.797 307.258 205.849 307.361 205.885C307.412 205.902 307.451 205.916 307.478 205.925C307.491 205.929 307.501 205.933 307.508 205.935C307.511 205.936 307.514 205.937 307.516 205.938C307.517 205.938 307.517 205.938 307.518 205.938C307.518 205.938 307.518 205.938 307.518 205.938C307.518 205.938 307.519 205.939 307.519 205.939C307.519 205.939 307.519 205.939 307.519 205.939C307.519 205.939 307.519 205.939 308 204.518C308.481 203.097 308.481 203.097 308.481 203.097C308.481 203.097 308.481 203.097 308.481 203.097C308.481 203.097 308.481 203.097 308.481 203.097C308.481 203.097 308.48 203.097 308.479 203.097C308.478 203.096 308.476 203.095 308.473 203.094C308.467 203.092 308.457 203.089 308.445 203.085C308.42 203.076 308.383 203.064 308.333 203.046C308.233 203.012 308.084 202.961 307.889 202.893C307.498 202.758 306.922 202.557 306.182 202.294L305.178 205.121ZM308 204.518C307.469 205.921 307.469 205.921 307.469 205.921C307.469 205.921 307.469 205.921 307.469 205.921C307.469 205.921 307.469 205.921 307.469 205.921C307.469 205.921 307.47 205.921 307.47 205.921C307.47 205.921 307.471 205.921 307.472 205.922C307.473 205.922 307.476 205.923 307.479 205.924C307.485 205.927 307.494 205.93 307.507 205.935C307.531 205.944 307.568 205.958 307.616 205.976C307.713 206.013 307.857 206.067 308.044 206.137C308.42 206.279 308.972 206.486 309.681 206.751L310.73 203.94C310.024 203.676 309.474 203.47 309.1 203.329C308.913 203.259 308.771 203.205 308.675 203.169C308.627 203.151 308.591 203.138 308.567 203.129C308.555 203.124 308.546 203.121 308.54 203.118C308.537 203.117 308.534 203.116 308.533 203.116C308.532 203.115 308.532 203.115 308.531 203.115C308.531 203.115 308.531 203.115 308.531 203.115C308.531 203.115 308.531 203.115 308.531 203.115C308.531 203.115 308.531 203.115 308.531 203.115C308.531 203.115 308.531 203.115 308 204.518ZM314.108 208.391C315.431 208.879 316.917 209.423 318.536 210.013L319.563 207.194C317.947 206.606 316.464 206.062 315.145 205.576L314.108 208.391ZM322.973 211.618C324.396 212.13 325.883 212.662 327.419 213.208L328.424 210.381C326.891 209.837 325.408 209.306 323.988 208.796L322.973 211.618ZM331.874 214.78C333.336 215.293 334.827 215.812 336.336 216.332L337.315 213.496C335.811 212.977 334.324 212.46 332.866 211.949L331.874 214.78ZM340.806 217.861C342.296 218.367 343.793 218.869 345.287 219.365L346.232 216.518C344.745 216.024 343.254 215.524 341.769 215.02L340.806 217.861ZM349.779 220.838C351.3 221.329 352.806 221.809 354.287 222.273L355.183 219.409C353.712 218.949 352.215 218.472 350.703 217.983L349.779 220.838ZM358.812 223.659C359.58 223.889 360.337 224.113 361.081 224.329L361.919 221.448C361.182 221.234 360.433 221.013 359.672 220.785L358.812 223.659ZM361.081 224.329C361.944 224.58 362.796 224.826 363.637 225.069L364.467 222.186C363.628 221.944 362.779 221.699 361.919 221.448L361.081 224.329ZM368.757 226.527C370.508 227.02 372.216 227.494 373.889 227.951L374.681 225.058C373.015 224.602 371.314 224.13 369.569 223.639L368.757 226.527ZM379.033 229.335C380.779 229.796 382.494 230.24 384.187 230.669L384.924 227.761C383.241 227.335 381.536 226.893 379.799 226.434L379.033 229.335ZM389.36 231.951C391.098 232.372 392.823 232.778 394.546 233.174L395.218 230.251C393.506 229.857 391.793 229.453 390.065 229.035L389.36 231.951ZM399.747 234.338C401.471 234.713 403.205 235.081 404.959 235.443L405.566 232.505C403.822 232.145 402.098 231.78 400.385 231.406L399.747 234.338ZM410.181 236.493C411.892 236.829 413.631 237.163 415.408 237.496L415.962 234.548C414.192 234.216 412.461 233.884 410.759 233.55L410.181 236.493ZM420.645 238.46C422.35 238.768 424.095 239.077 425.886 239.391L426.404 236.436C424.617 236.123 422.877 235.814 421.178 235.507L420.645 238.46ZM431.128 240.296C431.991 240.444 432.864 240.592 433.75 240.742L434.25 237.784C433.366 237.634 432.494 237.486 431.633 237.339L431.128 240.296ZM433.75 240.742C434.59 240.884 435.42 241.023 436.241 241.159L436.731 238.199C435.913 238.064 435.087 237.925 434.25 237.784L433.75 240.742ZM441.221 241.967C442.918 242.236 444.578 242.493 446.206 242.738L446.653 239.771C445.033 239.527 443.381 239.272 441.691 239.004L441.221 241.967ZM451.196 243.469C452.89 243.71 454.554 243.939 456.193 244.157L456.589 241.184C454.959 240.967 453.304 240.739 451.619 240.499L451.196 243.469ZM461.197 244.801C462.883 245.009 464.55 245.208 466.206 245.398L466.547 242.417C464.9 242.229 463.242 242.031 461.566 241.823L461.197 244.801ZM471.22 245.95C472.892 246.127 474.562 246.297 476.237 246.461L476.529 243.475C474.862 243.312 473.2 243.143 471.535 242.967L471.22 245.95ZM481.256 246.934C482.913 247.085 484.584 247.232 486.276 247.376L486.531 244.387C484.844 244.243 483.179 244.097 481.528 243.946L481.256 246.934ZM491.295 247.795C492.94 247.929 494.611 248.062 496.315 248.196L496.55 245.205C494.849 245.071 493.181 244.938 491.539 244.805L491.295 247.795ZM501.333 248.586C502.971 248.712 504.642 248.839 506.352 248.97L506.58 245.978C504.87 245.848 503.2 245.72 501.563 245.594L501.333 248.586ZM511.372 249.352C512.201 249.416 513.038 249.48 513.885 249.544L514.115 246.553C513.267 246.488 512.429 246.424 511.601 246.361L511.372 249.352ZM513.885 249.544C514.693 249.606 515.508 249.667 516.33 249.726L516.546 246.734C515.729 246.675 514.918 246.615 514.115 246.553L513.885 249.544ZM521.263 250.064C522.888 250.169 524.534 250.27 526.198 250.367L526.372 247.372C524.714 247.276 523.075 247.175 521.457 247.071L521.263 250.064ZM531.135 250.64C532.767 250.725 534.413 250.807 536.072 250.886L536.213 247.889C534.56 247.811 532.918 247.729 531.292 247.644L531.135 250.64ZM541.01 251.107C542.645 251.177 544.289 251.243 545.94 251.306L546.055 248.309C544.408 248.245 542.768 248.179 541.137 248.11L541.01 251.107ZM550.873 251.486C552.514 251.543 554.16 251.597 555.808 251.648L555.901 248.649C554.256 248.598 552.614 248.544 550.976 248.488L550.873 251.486ZM560.744 251.793C562.39 251.838 564.036 251.881 565.68 251.922L565.754 248.923C564.113 248.882 562.47 248.839 560.827 248.794L560.744 251.793ZM570.614 252.037C572.263 252.073 573.907 252.107 575.546 252.138L575.603 249.139C573.968 249.107 572.326 249.074 570.68 249.038L570.614 252.037ZM580.483 252.227C582.139 252.255 583.786 252.28 585.421 252.304L585.464 249.304C583.831 249.28 582.187 249.255 580.533 249.227L580.483 252.227ZM590.359 252.369C592.021 252.389 593.667 252.407 595.297 252.423L595.326 249.423C593.699 249.407 592.055 249.389 590.396 249.369L590.359 252.369ZM600.233 252.467C601.901 252.48 603.547 252.491 605.169 252.5L605.186 249.501C603.566 249.491 601.922 249.48 600.256 249.467L600.233 252.467ZM610.104 252.524C611.783 252.531 613.429 252.536 615.041 252.539L615.047 249.539C613.437 249.536 611.792 249.531 610.116 249.525L610.104 252.524ZM619.978 252.544C621.673 252.544 623.32 252.543 624.915 252.54L624.909 249.54C623.317 249.543 621.672 249.544 619.979 249.544L619.978 252.544ZM629.843 252.527C631.563 252.521 633.204 252.514 634.759 252.505L634.743 249.505C633.19 249.514 631.55 249.521 629.832 249.527L629.843 252.527ZM639.726 252.473C641.552 252.46 643.203 252.445 644.659 252.431L644.63 249.431C643.176 249.445 641.528 249.46 639.704 249.473L639.726 252.473ZM649.589 252.377C650.38 252.367 650.988 252.359 651.399 252.353C651.604 252.35 651.76 252.348 651.865 252.347C651.917 252.346 651.957 252.345 651.983 252.345C651.997 252.345 652.006 252.344 652.013 252.344C652.017 252.344 652.019 252.344 652.021 252.344C652.022 252.344 652.022 252.344 652.023 252.344C652.023 252.344 652.023 252.344 652.023 252.344C652.023 252.344 652.023 252.344 652.023 252.344C652.023 252.344 652.023 252.344 652.023 252.344C652.023 252.344 652.023 252.344 652 250.844C651.977 249.345 651.977 249.345 651.977 249.345C651.977 249.345 651.977 249.345 651.977 249.345C651.976 249.345 651.976 249.345 651.976 249.345C651.976 249.345 651.975 249.345 651.974 249.345C651.973 249.345 651.97 249.345 651.967 249.345C651.961 249.345 651.951 249.345 651.938 249.345C651.911 249.346 651.872 249.346 651.82 249.347C651.717 249.348 651.561 249.351 651.357 249.354C650.948 249.359 650.341 249.368 649.551 249.377L649.589 252.377ZM652 252.344H654.455V249.344H652V252.344ZM659.364 252.344H664.273V249.344H659.364V252.344ZM669.182 252.344H674.091V249.344H669.182V252.344ZM679 252.344H683.909V249.344H679V252.344ZM688.818 252.344H693.727V249.344H688.818V252.344ZM698.636 252.344H703.545V249.344H698.636V252.344ZM708.455 252.344H713.364V249.344H708.455V252.344ZM718.273 252.344H723.182V249.344H718.273V252.344ZM728.091 252.344H733V249.344H728.091V252.344ZM737.909 252.344H742.818V249.344H737.909V252.344ZM747.727 252.344H752.636V249.344H747.727V252.344ZM757.545 252.344H760V249.344H757.545V252.344Z" fill="#7FA632"/>
</svg>
